<?xml version="1.0" encoding="UTF-8" standalone="no"?>
<!DOCTYPE svg PUBLIC "-//W3C//DTD SVG 1.1//EN" "http://www.w3.org/Graphics/SVG/1.1/DTD/svg11.dtd">
<!-- Created with Vectornator (http://vectornator.io/) -->
<svg height="100%" stroke-miterlimit="10" style="fill-rule:nonzero;clip-rule:evenodd;stroke-linecap:round;stroke-linejoin:round;" version="1.1" viewBox="0 0 2000 2000" width="100%" xml:space="preserve" xmlns="http://www.w3.org/2000/svg" xmlns:vectornator="http://vectornator.io" xmlns:xlink="http://www.w3.org/1999/xlink">
<defs>
<path d="M904.296 663.305C914.633 564.272 1227.14 274.905 1351.37 249.465C1439.59 231.4 1671.43 361.167 1730.57 552.45C1772.63 688.531 1391.1 1028.5 1281.04 1048.13C1180.24 1066.11 884.815 849.942 904.296 663.305Z" id="Fill"/>
</defs>
<g id="Layer-1" vectornator:layerName="Layer 1">
<g opacity="1" vectornator:layerName="Group 4">
<use fill="#c9a27a" fill-rule="nonzero" opacity="1" stroke="#735c43" stroke-linecap="round" stroke-linejoin="round" stroke-width="10" vectornator:layerName="Curve 1" xlink:href="#Fill"/>
<clipPath clip-rule="nonzero" id="ClipPath">
<use xlink:href="#Fill"/>
</clipPath>
<g clip-path="url(#ClipPath)">
<path d="M1015.86 627.819C1021.48 560.377 1246.26 369.052 1337.44 354.196C1402.19 343.647 1575.95 437.004 1623.48 568.874C1657.3 662.689 1382.59 887.181 1301.75 898.355C1227.72 908.588 1005.27 754.919 1015.86 627.819Z" fill="#dbc6b1" fill-rule="nonzero" opacity="1" stroke="none" vectornator:layerName="Curve 40"/>
</g>
</g>
<path d="M1371 242.619C1363.17 244.902 1378.59 224.06 1381.58 227.696C1384.93 231.773 1375.22 253.367 1379.62 254.52C1388.77 256.924 1405.34 221.472 1414.59 231.457C1422.53 240.028 1406.83 267.452 1420.85 272.357C1430.47 275.724 1459.47 252.293 1463.95 257.736C1469.99 265.082 1453.3 281.609 1468.45 287.31C1480.69 291.914 1500.25 269.065 1509.53 276.365C1517.39 282.554 1499.04 301.008 1508.61 308.547C1518.32 316.188 1551.71 286.787 1558.79 297.011C1567.44 309.518 1538.45 331.411 1556.05 344.136C1566.9 351.982 1589.2 341.165 1600.07 337.996C1600.46 337.884 1603.29 337.294 1603.81 338.451C1608.52 348.85 1582.02 363.543 1590.5 375.79C1600.41 390.112 1626.03 379.887 1638.91 377.636C1639.54 377.527 1645.48 375.441 1645.83 376.649C1648.82 386.894 1616.51 405.195 1632.12 416.162C1648.86 427.919 1683.31 412.466 1688.4 416.745C1690.36 418.394 1686.15 421.372 1684.7 423.485C1678.82 432.057 1655.93 453.72 1664.97 465.271C1673.79 476.533 1694.6 470.019 1705.57 466.819C1705.57 466.819 1712.78 463.881 1713.16 464.607C1714.72 467.583 1682.72 492.604 1686.57 505.818C1690.18 518.21 1710.02 516.01 1719.4 514.264C1725.31 513.164 1740.2 506.861 1737.31 512.132C1731.04 523.563 1708.91 529.245 1709.18 544.527C1709.4 557.626 1732.89 551.078 1739.01 549.73C1741.74 549.126 1747.32 545.051 1747.21 547.854C1746.93 555.19 1719.97 566.928 1715.73 577.619C1714.55 580.605 1740.9 596.401 1744.24 601.226M906.908 690.047C911.779 686.113 869.606 701.81 866.855 707.843C865.855 710.036 910.622 714.786 913.855 720.001C920.015 729.938 870.243 749.434 880.059 760.225C886.39 767.186 926.118 756.075 926.533 757.721C929.526 769.595 884.65 794.303 903.901 805.096C914.695 811.147 949.06 790.287 953.486 795.767C960.956 805.017 915.499 838.3 931.004 847.332C944.47 855.177 984.642 830.165 987.188 834.831C995.077 849.291 952.561 874.274 971.918 888.654C982.103 896.22 996.599 889.093 1006.6 884.894C1011.33 882.909 1020.73 872.599 1020.19 877.695C1019.45 884.639 1010.18 897.981 1007.67 902.894C981.112 954.751 1050.94 904.819 1054.83 907.915C1062.72 914.207 1035.95 941.747 1042.98 951.967C1054.35 968.491 1086.49 937.971 1098.39 941.172C1108.59 943.915 1077.8 986.383 1090.5 990.116C1108.07 995.282 1128.53 959.429 1143.67 963.879C1156.3 967.592 1123.7 1013.99 1129.4 1022.28C1139.08 1036.34 1167.38 996.346 1173.89 999.311C1176.4 1000.46 1160.33 1038.48 1167.94 1043.97C1177.54 1050.9 1198.67 1029.39 1204.58 1024.62C1207.08 1022.6 1211.22 1015.87 1212.34 1018.89C1216.47 1029.94 1191.29 1053.12 1204.69 1062.79C1215.3 1070.45 1236.35 1037.81 1243.59 1036.23C1243.59 1036.22 1231.63 1063.96 1237.29 1065.62C1252.46 1070.08 1251.92 1057.93 1264.18 1048.85" fill="none" opacity="1" stroke="#735c43" stroke-linecap="round" stroke-linejoin="round" stroke-width="67.1786" vectornator:layerName="Curve 22"/>
<path d="M1179.9 669.39C1177.83 698.213 1148.11 675.156 1148.64 670.797C1150.06 659.088 1181.62 645.475 1179.9 669.39ZM1245.36 760.553C1231.16 750.085 1280.27 769.391 1258.93 777.341C1190.05 802.997 1262.31 711.317 1256.64 758.107C1255.51 767.389 1247.17 761.885 1245.36 760.553ZM1296.8 761.478C1293.75 748.454 1327.71 784.344 1308.94 793.812C1275.88 810.49 1297.87 766.053 1296.8 761.478ZM1205.36 700.566C1226.94 714.032 1232.45 736.753 1205.81 721.656C1194.23 715.093 1190.84 691.504 1205.36 700.566ZM1154.99 634.696C1151.5 651.981 1115.43 650.263 1117.04 628.357C1119.09 600.313 1161 604.91 1154.99 634.696ZM1217.45 665.739C1205.06 675.846 1180.03 643.841 1188.49 639.571C1211.65 627.888 1233.69 652.491 1217.45 665.739ZM1310.41 740.707C1305.85 739.247 1271.53 734.304 1287.96 722.841C1309.07 708.113 1313.32 741.637 1310.41 740.707ZM1333.66 774.851C1333.61 766.999 1333.66 749.653 1344.74 767.411C1354.61 783.238 1333.82 796.922 1333.66 774.851ZM1266.89 728.837C1267.19 729.356 1236.84 712.489 1249.05 706.329C1258.43 701.599 1263.03 722.027 1266.89 728.837ZM1254.91 688.546L1252.32 688.926L1246.03 689.318L1241.58 687.854L1239.36 687.122L1236.02 686.024L1234.17 684.181L1232.31 682.337L1230.82 679.382L1229.33 676.427L1227.84 673.472L1226.71 669.406L1226.33 666.817L1227.07 664.594L1227.8 662.371L1229.64 660.515L1232.23 660.135L1234.45 660.867L1238.9 662.331L1242.23 663.43L1245.2 665.639L1247.06 667.483L1250.03 669.692L1251.88 671.536L1253.74 673.379L1254.87 677.445L1253.77 680.78L1253.41 685.591M1267.82 679.249L1271.14 676.647L1273.73 676.267L1277.43 676.254L1279.29 678.098L1281.89 681.418L1282.27 684.007L1283.4 688.074L1283.78 690.663L1283.04 692.885L1283.42 695.474L1282.32 698.809L1281.59 701.031L1279 701.411L1276.78 700.679L1273.45 699.581L1270.48 697.371L1268.62 695.528L1266.76 693.684L1266.39 691.095L1265.26 687.029L1265.99 684.806M1217.54 639.281C1216.94 635.416 1188.11 625.103 1195.81 617.342C1216.5 596.508 1219.08 649.264 1217.54 639.281ZM1252.72 646.555C1247.58 644.024 1226.88 640.963 1233.24 630.899C1247.84 607.765 1264.32 652.268 1252.72 646.555ZM1340.92 734.121L1344.25 735.219L1346.11 737.063L1347.97 738.906L1349.82 740.75L1349.84 744.45L1349.1 746.673L1347.26 748.53L1343.56 748.543L1341.34 747.811L1339.11 747.079L1334.67 745.615L1331.33 744.517L1328.37 742.307L1325.4 740.098L1323.91 737.143L1319.45 731.978L1318.32 727.912L1317.94 725.323L1322.39 726.787L1326.84 728.251L1330.17 729.349M1284.94 758.19C1291.65 757.639 1266.29 747.647 1271.38 743.252C1276.54 738.801 1279.77 758.615 1284.94 758.19ZM1324.67 742.32C1309.5 741.208 1244.96 711.688 1287.53 705.451C1306.56 702.662 1319.11 734.143 1300.59 736.857M1280.99 687.897C1284.44 691.107 1238.67 665.01 1270.35 660.368C1284.93 658.231 1277.44 684.59 1280.99 687.897ZM1285.88 658.092L1283.66 657.36L1278.84 657.007L1274.03 656.654L1271.81 655.922L1268.48 654.824L1266.98 651.869L1266.23 646.691L1266.96 644.469L1267.69 642.246L1268.79 638.912L1269.52 636.689L1270.25 634.466L1272.1 632.609L1274.68 632.23L1278.02 633.328L1279.88 635.171L1281.37 638.126L1282.13 643.304L1284.75 654.026M1300.1 702.815C1304.82 694.306 1316.22 688.836 1322.3 700.885C1335.81 727.68 1288.4 723.934 1300.1 702.815ZM1291.12 673.985C1280.08 656.348 1294.9 644.026 1303.63 656.548C1311.49 667.812 1310.16 704.41 1291.12 673.985ZM1334.67 745.615L1338.37 745.601L1342.44 744.477L1344.28 742.62L1346.12 740.763L1347.22 737.429L1347.95 735.206L1348.68 732.983L1348.67 729.283L1347.55 725.216L1345.69 723.373L1345.31 720.784L1342.71 717.463L1340.11 714.142L1337.52 714.521L1336.78 716.744L1334.21 720.824L1331.63 724.904L1329.42 727.872M1332.05 738.593L1330.2 736.75L1329.82 734.161L1333.15 735.259L1335.01 737.103L1335.39 739.692L1334.66 741.914L1333.92 744.137L1330.97 745.628L1327.63 744.53L1324.67 742.32M1227.56 750.996C1236.21 772.563 1174.93 743.832 1210.32 741.622C1223.21 740.817 1225.18 745.047 1227.56 750.996ZM1187.23 701.371C1185.02 728.328 1158.03 702.149 1159.84 696.659C1166.37 676.824 1187.8 694.433 1187.23 701.371ZM1321.88 791.915L1325.22 793.013L1328.55 794.111L1330.41 795.955L1332.27 797.798L1334.87 801.119L1335.99 805.186L1336.37 807.775L1336.39 811.475L1336.77 814.064L1333.43 812.966L1330.1 811.868L1325.65 810.404L1323.06 810.783L1318.62 809.319M1193.43 622.716C1186.61 617.601 1151.92 605.846 1164.27 593.403C1179.19 578.376 1211.69 636.431 1193.43 622.716ZM1143.22 604.95L1137.67 603.12L1130.25 599.446L1128.4 597.603L1126.54 595.759L1124.68 593.916L1122.82 592.073L1119.86 589.863L1116.89 587.653L1114.67 586.921L1116.51 585.065L1118.73 585.797L1122.07 586.895L1126.51 588.359L1128.73 589.091L1133.18 590.555L1139.48 593.863L1142.09 597.184" fill="#dbc6b1" fill-rule="nonzero" opacity="1" stroke="#b2875a" stroke-linecap="round" stroke-linejoin="round" stroke-width="58.1509" vectornator:layerName="Curve 23"/>
<path d="M1244.5 675.263L1240.43 676.387L1237.84 676.767L1233.03 676.414L1229.7 675.316L1226.36 674.218L1224.14 673.486L1223.76 670.897L1224.49 668.674L1227.08 668.295L1229.3 669.027L1232.64 670.125L1235.97 671.223L1240.05 673.798M1296.57 749.082L1293.98 749.462L1291.39 749.841L1289.17 749.109L1285.83 748.011L1285.45 745.422L1288.04 745.043L1291.76 748.73L1293.25 751.684M1314.2 714.235L1311.98 713.503L1308.65 712.405L1306.06 712.785L1303.47 713.164L1304.2 710.941L1304.93 708.718L1308.27 709.816L1311.24 712.026M1188.4 613.669L1182.1 610.361M1223.13 598.002L1227.57 599.466M1293.31 665.466C1292.19 665.1 1291.08 664.734 1289.97 664.368M1353.59 759.238L1351.75 761.095" fill="#dbc6b1" fill-rule="nonzero" opacity="1" stroke="#c0a181" stroke-linecap="round" stroke-linejoin="round" stroke-width="68.8393" vectornator:layerName="Curve 24"/>
<path d="M1256.81 662.91C1267.13 646.471 1287.66 637.519 1295.22 619.429C1306.94 591.395 1300.9 563.814 1318.34 536.056C1332.49 513.52 1367.13 472.853 1367.13 472.853C1367.13 472.853 1365.42 479.854 1364.57 483.355C1362.58 491.496 1335.99 617.589 1301.22 613.102C1300.59 613.021 1321.18 576.729 1322.42 572.933C1325.78 562.635 1336.02 514.043 1346.84 511.575C1368.47 506.637 1296.01 569.151 1317.56 574.407C1332.4 578.024 1354.7 527.805 1339.5 526.322C1334.6 525.844 1314.09 573.953 1315.89 576.903M1268.11 653.01C1361.54 625.614 1368.12 564.688 1474 583.782C1480.14 584.89 1501.94 581.244 1505.75 583.329C1512.75 587.152 1491.65 590.837 1485.05 595.305C1452.48 617.348 1418.98 617.533 1381.26 613.927C1379.22 613.733 1362.48 611.818 1363.93 607.197C1366.74 598.2 1463.53 592.391 1463.94 593.816C1467.05 604.414 1441.87 594.766 1430.87 595.835C1427.35 596.178 1390.88 602.437 1389.39 597.368C1388.43 594.08 1441.26 592.2 1445.4 590.986C1451.48 589.204 1432.73 590.396 1426.4 590.65C1420.37 590.893 1389.59 589.492 1386.42 595.286C1382.34 602.746 1413.28 596.268 1410.89 588.111C1410.11 585.438 1358.19 605.925 1383.8 598.418M1485.44 594.601C1477.54 593.177 1353.85 647.351 1346.36 621.797C1346.1 620.927 1351.3 620.263 1351.8 620.203C1372.3 617.729 1392.72 615.188 1413.24 612.227" fill="none" opacity="1" stroke="#96bd60" stroke-linecap="round" stroke-linejoin="round" stroke-width="29.2742" vectornator:layerName="Curve 25"/>
<path d="M758.255 1123.44C786.434 1109.42 720.715 1140.47 750.319 1134.55C794.792 1125.66 740.006 1132.52 758.255 1123.44Z" fill="none" opacity="1" stroke="#b2875a" stroke-linecap="round" stroke-linejoin="round" stroke-width="29.2742" vectornator:layerName="Curve 27"/>
<path d="M728.099 1445.64L724.924 1436.12L724.924 1426.59L718.576 1420.24L712.227 1429.77L712.227 1442.46L709.053 1448.81L715.401 1451.99L724.924 1451.99" fill="none" opacity="1" stroke="#b2875a" stroke-linecap="round" stroke-linejoin="round" stroke-width="29.2742" vectornator:layerName="Curve 29"/>
<path d="M474.152 1347.23L455.106 1344.06" fill="none" opacity="1" stroke="#b2875a" stroke-linecap="round" stroke-linejoin="round" stroke-width="29.2742" vectornator:layerName="Curve 30"/>
<path d="M753.493 1674.19L750.319 1664.67L750.319 1645.62L750.319 1655.14L747.145 1661.49L747.145 1674.19L753.493 1677.36L759.842 1677.36L766.191 1677.36L772.539 1671.02L775.714 1664.67L766.191 1664.67L759.842 1664.67" fill="none" opacity="1" stroke="#b2875a" stroke-linecap="round" stroke-linejoin="round" stroke-width="29.2742" vectornator:layerName="Curve 31"/>
<path d="M469.391 1336.12C452.096 1353.98 468.611 1313.9 480.501 1309.14C490.758 1305.04 474.766 1330.57 469.391 1336.12Z" fill="none" opacity="1" stroke="#b2875a" stroke-linecap="round" stroke-linejoin="round" stroke-width="29.2742" vectornator:layerName="Curve 32"/>
<path d="M728.099 1431.35C750.007 1426.04 709.053 1406.21 709.053 1429.77C709.053 1451.48 754.815 1421.57 740.796 1407.55C729.624 1396.37 705.879 1414.59 705.879 1426.59C705.879 1438.28 726.982 1431.62 728.099 1431.35Z" fill="none" opacity="1" stroke="#b2875a" stroke-linecap="round" stroke-linejoin="round" stroke-width="29.2742" vectornator:layerName="Curve 35"/>
<path d="M586.841 991.709C497.434 975.332 594.777 1053.27 594.777 988.535C594.777 956.302 522.313 1017.52 563.034 1001.23C576.214 995.96 590.332 992.348 586.841 991.709ZM918.559 1312.32L931.256 1286.92M477.327 1315.49C497.162 1273.56 512.695 1379.88 458.281 1347.23C425.518 1327.58 473.431 1323.72 477.327 1315.49ZM755.081 1656.73C781.548 1663.3 786.054 1631.1 766.191 1642.45C753.46 1649.72 741.159 1683.35 753.493 1671.02C783.037 1641.47 712.162 1646.08 755.081 1656.73ZM775.714 1118.68L778.888 1109.16L778.888 1102.81L772.539 1099.64L766.191 1112.33L766.191 1121.86L772.539 1125.03L775.714 1118.68L778.888 1112.33L775.714 1102.81L766.191 1102.81L759.842 1105.98L753.493 1112.33L747.145 1118.68L750.319 1125.03L759.842 1121.86M226.554 1350.41C252.72 1303.12 255.215 1377.73 213.857 1369.45C194.826 1365.65 219.13 1308.08 245.6 1318.67C282.343 1333.36 198.479 1401.15 226.554 1350.41ZM415.427 1594.83C441.329 1585.98 402.39 1568.19 394.794 1575.79C365.827 1604.75 409.272 1596.93 415.427 1594.83Z" fill="none" opacity="1" stroke="#b2875a" stroke-linecap="round" stroke-linejoin="round" stroke-width="29.2742" vectornator:layerName="Curve 42"/>
<path d="M493.592 1087.74C520.357 1098.31 476.688 1020.38 465.707 1086.27C461.905 1109.09 506.801 1105.24 506.801 1077.47C506.801 1062.4 445.713 1068.84 493.592 1087.74ZM938.295 1147.92C944.582 1145.57 944.969 1124.43 932.424 1124.43C920.098 1124.43 922.616 1131.38 920.683 1139.11C904.602 1203.43 971.592 1103.86 932.424 1133.24C918.761 1143.49 924.321 1153.14 938.295 1147.92ZM925.086 1486.95C929.796 1497.28 909.682 1439.2 903.071 1485.48C895.404 1539.15 916.536 1468.19 925.086 1486.95Z" fill="none" opacity="1" stroke="#c0a181" stroke-linecap="round" stroke-linejoin="round" stroke-width="29.2742" vectornator:layerName="Curve 43"/>
</g>
</svg>
