<?xml version="1.0" encoding="UTF-8" standalone="no"?>
<!DOCTYPE svg PUBLIC "-//W3C//DTD SVG 1.1//EN" "http://www.w3.org/Graphics/SVG/1.1/DTD/svg11.dtd">
<!-- Created with Vectornator (http://vectornator.io/) -->
<svg height="100%" stroke-miterlimit="10" style="fill-rule:nonzero;clip-rule:evenodd;stroke-linecap:round;stroke-linejoin:round;" version="1.1" viewBox="0 0 2000 2000" width="100%" xml:space="preserve" xmlns="http://www.w3.org/2000/svg" xmlns:vectornator="http://vectornator.io" xmlns:xlink="http://www.w3.org/1999/xlink">
<defs>
<path d="M1865.1 840.675C1808.16 1048.76 1566.13 1091.31 1477.35 1072.7C1461.53 1067.25 1423.38 1064.37 1409.53 1050.32C1353.13 1048.68 1138.54 1032.87 1079.81 1027.67C1072.71 1045.84 1056.73 1166.25 945.268 1143.96C892.365 1133.38 859.071 1036.01 866.018 987.385C881.044 882.203 947.348 831.862 1003.4 860.877C1061.7 891.052 1053.12 913.309 1076.56 960.258C1154.6 966.172 1240.54 961.206 1296.23 962.099C1323.25 962.533 1328.58 964.964 1348.07 966.148C1367.27 967.315 1353.04 950.833 1347.94 941.784C1339.9 927.527 1328.63 911.5 1318.22 894.066C1305.1 902.538 1283.87 937.11 1259.71 957.497C1244.11 970.658 1214.42 982.819 1213.01 957.519C1212.2 942.828 1280.64 882.962 1293.46 850.378C1295.39 845.471 1291.27 840.509 1288.73 836.915C1265.35 803.786 1243.68 752.943 1217.82 713.462C1176.55 650.456 1152.21 582.468 1166.56 496.41C1167.68 489.691 1173.39 476.959 1173.39 476.959C1173.39 476.959 1138.69 441.462 1124.53 421.703C1105.31 394.867 1088 359.586 1088 324.265C1088 295.389 1109.42 232.107 1123.88 233.361C1107.98 277.542 1110.59 324.485 1115.91 341.176C1120.93 356.918 1130.39 376.77 1138.52 393.874C1143.61 404.569 1150.86 412.204 1158.27 420.12C1174.47 437.429 1177.1 442.704 1186.37 450.901C1186.58 451.089 1224.67 407.141 1224.67 407.141L1286.16 359.733C1286.16 359.733 1361.78 324.091 1372.26 319.9C1404.65 306.946 1464.29 301.812 1504.36 297.871C1535.51 294.808 1556.97 309.387 1542.5 289.065C1516.54 252.584 1486.06 238.732 1446.26 210.729C1377.01 162.016 1303.57 162.378 1257.6 162.378C1228.79 162.378 1133.74 214.666 1153.49 193.68C1192.3 152.436 1268.27 134.394 1287.85 130.479C1344.52 119.145 1432.48 147.097 1432.48 147.097L1532.22 208.146C1532.22 208.146 1591.01 265.723 1610.47 288.043C1619.43 298.329 1624.42 314.737 1633.77 328.159C1645.57 345.105 1652.97 368.16 1653.83 352.467C1654.67 337.207 1656.41 337.556 1654.08 321.618C1650.83 299.472 1639.27 264.973 1631.11 255.993C1626.34 250.743 1618.87 247.026 1613.04 249.008C1602.06 252.747 1593.21 267.766 1593.21 267.766C1593.21 267.766 1572.98 259.082 1576.45 244.769C1579.71 231.327 1607.69 213.794 1619.26 210.903C1638.54 206.083 1688.32 258.709 1693.59 410.602C1754.24 532.729 1861.11 803.729 1861.11 816.731" id="Fill"/>
<filter color-interpolation-filters="sRGB" filterUnits="userSpaceOnUse" height="572.724" id="Filter" width="411.944" x="1350.57" y="504.583">
<feGaussianBlur in="SourceGraphic" result="Blur" stdDeviation="3.19767"/>
</filter>
</defs>
<g id="Layer-1" vectornator:layerName="Layer 1">
<g opacity="1" vectornator:layerName="Group 1">
<use fill="#a0d4ed" fill-rule="nonzero" opacity="1" stroke="none" vectornator:layerName="Curve 25" xlink:href="#Fill"/>
<clipPath clip-rule="nonzero" id="ClipPath">
<use xlink:href="#Fill"/>
</clipPath>
<g clip-path="url(#ClipPath)">
<path d="M1619.2 431.18C1619.2 431.18 1606.88 448.92 1596.6 459.207C1576.84 478.959 1561.2 480.486 1544 503.423C1540.53 508.053 1507.52 524.6 1509.14 531.055C1511.5 540.525 1712.88 944.291 1736.04 967.451C1738.82 970.236 1755.39 995.984 1759.01 994.778C1768.54 991.599 1784.27 977.472 1792.53 971.281C1831.17 942.298 1850.45 895.487 1860.28 846.369C1868.36 805.953 1839.7 761.234 1824.98 726.882C1805.82 682.17 1793.86 642.463 1776.82 597.022C1762.84 559.733 1757.2 551.396 1736.78 509.376C1733.02 501.633 1710.24 444.084 1705.01 437.107C1702.56 433.837 1700.07 430.772 1698.21 427.051C1697.78 426.193 1661.78 359.506 1661.11 360.184C1659.31 361.982 1690.45 437.857 1690.09 440.345C1689.01 447.951 1688.34 469.507 1681.49 474.642C1678.09 477.194 1675.85 475.483 1672.49 474.642C1662.23 472.079 1642.64 469.839 1640.07 457.001C1639.3 453.156 1630.64 424.364 1624.69 424.364C1620.32 424.364 1619.2 431.18 1619.2 431.18Z" fill="#84a9d1" fill-rule="nonzero" opacity="1" stroke="#84a9d1" stroke-linecap="butt" stroke-linejoin="round" stroke-width="10" vectornator:layerName="Curve 26"/>
<path d="M1363.59 582.324C1361.88 582.55 1464.39 767.344 1474.72 787.315C1520.57 875.954 1612.56 1064.89 1617.14 1064.31C1644.7 1060.81 1759.65 1026.14 1748.8 998.957C1715.04 914.361 1522.03 513.181 1513.98 517.613C1431.46 563.065 1405.35 576.796 1363.59 582.324Z" fill="#a2c5eb" fill-rule="nonzero" filter="url(#Filter)" opacity="1" stroke="#a2c5eb" stroke-linecap="butt" stroke-linejoin="round" stroke-width="10" vectornator:blur="6.39535" vectornator:layerName="Curve 40"/>
</g>
</g>
<path d="M1207.47 583.53C1211.27 574.04 1213.68 554.63 1223.65 541.416C1229.83 533.228 1234.95 526.76 1252.49 521.676C1260.17 519.452 1263.33 514.528 1271.91 495.272C1278.01 481.565 1286.69 459.695 1297.91 448.609C1307.23 439.394 1318.86 433.001 1335.9 430.871C1353.06 428.726 1376.66 429.112 1392.15 420.263C1407.85 411.291 1419.02 393.789 1438.22 385.17C1475.43 368.46 1481.97 383.047 1525.11 368.112C1541.46 362.449 1580.06 351.987 1588.91 366.575C1606.59 395.712 1604 371.191 1611.59 400.324C1613.33 407.017 1622.84 421.232 1622.84 421.232C1622.84 421.232 1585.47 466.931 1562.58 482.186C1529.43 504.291 1495.27 531.059 1457.63 546.114C1431.2 556.686 1410.67 569.277 1383.48 576.074C1366.83 580.236 1344.88 585.099 1326.5 587.725C1297.78 591.827 1203.86 592.557 1207.47 583.53ZM1332.76 514.023C1332.82 513.553 1332.89 513.083 1332.95 512.613M1261.48 543.101C1261.89 542.275 1261.61 542.673 1262.35 541.94" fill="#4ab6df" fill-rule="nonzero" opacity="1" stroke="#4ab6df" stroke-linecap="butt" stroke-linejoin="round" stroke-width="17.1009" vectornator:layerName="Curve 84"/>
<path d="M1576.91 244.907C1588.82 223.742 1603.25 211.351 1618.81 211.351C1659.66 211.351 1692.79 296.824 1692.79 402.259C1692.79 403.006 1692.78 403.751 1692.78 404.496M1595.17 265.253C1603.92 249.689 1644.46 210.371 1659.82 365.33M1320.56 896.075C1335.75 922.222 1350.56 947.234 1364.06 969.549M1545.63 298.884C1366.23 274.76 1092.31 421.544 1174.61 622.005C1184.15 651.316 1238.5 752.597 1294.39 850.612M1416.85 1051.69C1419.66 1055.44 1421.97 1058.25 1423.71 1059.99C1674.19 1125.69 1849.38 962.813 1863.07 830.049C1787.79 594.631 1697.45 412.592 1668.71 368.794C1661.91 357.686 1653.58 347.949 1643.98 339.518M1169.38 473.85C889.381 204.988 1425.51-59.1017 1643.47 456.35M1186.88 451.577C906.881 182.715 1463.7-97.2833 1681.65 418.168C1705.62 496.309 1649.58 478.498 1641.05 450.668M866.647 1005.24C866.647 925.872 907.091 861.529 956.982 861.529C1006.87 861.529 1047.32 925.872 1047.32 1005.24C1047.32 1084.61 1006.87 1148.96 956.982 1148.96C907.091 1148.96 866.647 1084.61 866.647 1005.24ZM865.278 1001.82C865.278 920.56 913.076 854.685 972.038 854.685C1031 854.685 1078.8 920.56 1078.8 1001.82C1078.8 1083.08 1031 1148.96 972.038 1148.96C913.076 1148.96 865.278 1083.08 865.278 1001.82ZM1073.32 962.813C1073.32 962.813 1327.22 954.259 1427.82 975.132C1473.88 979.289 1494.26 1029.81 1475.72 1046.3C1389.49 1059.65 1082.9 1028.51 1082.9 1028.51M1163.02 575.667C1307.7 642.952 1557.97 530.759 1627.22 418.835M1212.52 956.652C1212.52 956.652 1303.15 837.337 1339.48 808.273C1360.15 791.46 1371.14 821.814 1357.84 840.396C1337.95 877.109 1255.09 962.8 1255.09 962.8" fill="none" opacity="1" stroke="#396698" stroke-linecap="round" stroke-linejoin="round" stroke-width="10" vectornator:layerName="Curve 85"/>
<path d="M957.448 920.842C959.773 921.973 960.004 910.326 955.605 908.86C949.215 906.73 947.37 923.392 955.605 925.451C962.888 927.272 962.833 914.245 959.291 910.703C955.593 907.005 948.585 916.533 957.448 920.842Z" fill="none" opacity="1" stroke="#749dcb" stroke-linecap="butt" stroke-linejoin="round" stroke-width="23.426" vectornator:layerName="Curve 86"/>
<path d="M994.317 986.284C993.17 985.623 994.591 980.754 992.473 980.754C989.401 980.754 989.725 988.597 992.473 989.971C998.188 992.828 990.229 976.666 994.317 980.754C996.108 982.545 995.507 986.97 994.317 986.284Z" fill="none" opacity="1" stroke="#658db9" stroke-linecap="butt" stroke-linejoin="round" stroke-width="23.426" vectornator:layerName="Curve 87"/>
<path d="M988.434 1057.93C985.919 1084.89 982.329 1041.58 990.63 1058.18C993.678 1064.27 988.892 1066.38 984.939 1068.75C977.491 1073.22 989.666 1044.72 988.434 1057.93Z" fill="none" opacity="1" stroke="#396698" stroke-linecap="butt" stroke-linejoin="round" stroke-width="23.426" vectornator:layerName="Curve 88"/>
<path d="M939.014 991.814C937.623 992.96 933.784 1007.68 929.797 1001.03C916.668 979.15 952.282 980.886 939.014 991.814Z" fill="none" opacity="1" stroke="#7aa6d6" stroke-linecap="butt" stroke-linejoin="round" stroke-width="23.426" vectornator:layerName="Curve 89"/>
<path d="M985.099 1071.08L983.256 1067.39M940.857 1102.42L942.701 1106.11" fill="none" opacity="1" stroke="#396698" stroke-linecap="butt" stroke-linejoin="round" stroke-width="23.426" vectornator:layerName="Curve 90"/>
<path d="M946.387 1100.58C931.445 1115.52 942.529 1082.81 948.231 1091.36C950.998 1095.51 946.26 1110.94 939.014 1106.11C932.764 1101.94 940.676 1089.66 942.701 1093.2C944.92 1097.09 947.616 1099.35 946.387 1100.58ZM917.814 1046.2C919.479 1051.05 903.763 1051.26 907.675 1043.43C909.347 1040.09 919.469 1037.92 918.736 1041.59C918.033 1045.1 916.788 1043.2 917.814 1046.2Z" fill="none" opacity="1" stroke="#5585ba" stroke-linecap="butt" stroke-linejoin="round" stroke-width="23.426" vectornator:layerName="Curve 91"/>
<path d="M916.893 940.198C914.251 933.94 916.717 952.927 911.362 947.572C909.796 946.005 917.996 942.813 916.893 940.198Z" fill="none" opacity="1" stroke="#99c5f5" stroke-linecap="butt" stroke-linejoin="round" stroke-width="23.426" vectornator:layerName="Curve 92"/>
<path d="M655.914 938.725C682.928 928.168 610.523 928.409 620.062 947.489C626.818 961.001 649.959 941.053 655.914 938.725ZM709.293 1076.55C707.902 1018.91 670.083 1085.77 675.831 1097.27C682.435 1110.48 709.499 1085.09 709.293 1076.55ZM762.671 1222.35C771.668 1176.79 719.602 1292.03 753.908 1235.89C758.992 1227.57 761.985 1225.83 762.671 1222.35ZM558.91 1359.27C556.82 1347.92 522.969 1386.5 527.896 1396.74C535.121 1411.76 561.452 1341.18 559.131 1357.69C557.598 1368.59 545.565 1383.43 536.894 1389.96M419.504 1171.97C425.566 1165.91 371.703 1185.83 371.703 1203.84C371.703 1220.32 431.946 1166.81 417.911 1164.01C411.374 1162.7 356.844 1194.28 389.23 1194.28M322.701 998.799C351.018 987.714 269.679 996.26 283.564 1016.62C292.676 1029.99 320.093 999.82 322.701 998.799ZM71.105 1136.79C69.0224 1123.43 27.2992 1158.73 40.1303 1163C47.9121 1165.6 58.9002 1146.4 62.3685 1142.35C89.1628 1111.09 72.23 1144.01 71.105 1136.79ZM372.508 1564.76C355.845 1562.67 339.402 1627.7 365.323 1582.49C374.964 1565.67 375.519 1565.14 372.508 1564.76ZM164.082 1450.23C183.047 1424.42 116.557 1468.17 131.649 1473.2C138.229 1475.4 160.919 1454.54 164.082 1450.23Z" fill="none" opacity="1" stroke="#4ab6df" stroke-linecap="round" stroke-linejoin="round" stroke-width="28.1948" vectornator:layerName="Curve 93"/>
</g>
</svg>
