<?xml version="1.0" encoding="UTF-8" standalone="no"?>
<!DOCTYPE svg PUBLIC "-//W3C//DTD SVG 1.1//EN" "http://www.w3.org/Graphics/SVG/1.1/DTD/svg11.dtd">
<!-- Created with Vectornator (http://vectornator.io/) -->
<svg height="100%" stroke-miterlimit="10" style="fill-rule:nonzero;clip-rule:evenodd;stroke-linecap:round;stroke-linejoin:round;" version="1.1" viewBox="0 0 2000 2000" width="100%" xml:space="preserve" xmlns="http://www.w3.org/2000/svg" xmlns:vectornator="http://vectornator.io" xmlns:xlink="http://www.w3.org/1999/xlink">
<defs/>
<g id="Layer-2" vectornator:layerName="Layer 2">
<path d="M736.903 596.881C675.607 580.059 651.742 720.254 632.782 771.716C578.882 918.017 431.861 1124.4 541.265 1283.53C576.539 1334.84 655.24 1350.72 710.741 1366.58C877.57 1414.24 1051.24 1433.75 1225.95 1400.47C1602 1328.84 1458.41 1104.9 1370 864.928C1353.94 821.333 1339.55 616.379 1302.21 603.935C1256.35 588.646 1194.42 780.939 1141.21 802.222C1107.76 815.6 843.277 795.28 825.985 775.106C781.668 723.402 800.24 614.262 736.903 596.881Z" fill="#ffffff" fill-rule="nonzero" opacity="1" stroke="none" vectornator:layerName="Body"/>
<path d="M853.476 806.158C827.361 830.553 834.053 869.295 852.765 898.337C999.052 1125.37 1320.53 783.862 1072.47 783.862C1040.07 783.862 1007.27 772.079 975.264 773.603C930.237 775.748 885.932 775.84 853.476 806.158Z" fill="#f6c56d" fill-rule="nonzero" opacity="1" stroke="none" vectornator:layerName="Pattern"/>
<path d="M867.807 505.876C851.497 493.191 844.283 418.767 836.437 369.551C834.03 354.452 925.179 436.723 935.173 418.463C957.642 377.405 1000.8 299.481 1010.95 299.104C1019.63 298.782 1058.79 369.553 1084.96 420.603C1095.05 440.275 1188.67 347.384 1187.19 365.019C1181.46 433.172 1170.22 497.095 1164.74 504.325C1138.71 538.649 915.117 542.67 867.807 505.876Z" fill="#ffe27e" fill-rule="nonzero" opacity="1" stroke="#ffe27e" stroke-linecap="round" stroke-linejoin="round" stroke-width="29.2742" vectornator:layerName="Crown"/>
<path d="M828.167 1110.12L830.646 1168.89M1128.11 1110.12L1130.59 1168.89" fill="none" opacity="1" stroke="#c0a181" stroke-linecap="round" stroke-linejoin="round" stroke-width="48.3638" vectornator:layerName="Eyes"/>
<path d="M608.901 823.836C639.904 759.71 674.241 591.417 732.914 592.472C791.587 593.527 781.694 727.441 850.623 799.933C976.542 768.498 1041.18 777.003 1151.72 805.346C1207.81 730.485 1244.19 597.803 1299.48 598.797C1354.76 599.791 1349.25 771.497 1365.84 837.444M554.469 942.906C360.556 1366.45 776.003 1418.36 989.903 1419.21C1203.8 1420.06 1626.49 1420.38 1410.07 946.308M555.918 861.411L581.229 886.721M1419.48 868.595L1389.76 888.127M976.892 1221.84L966.044 1206.93L987.371 1207.14L976.892 1221.84Z" fill="none" opacity="1" stroke="#c0a181" stroke-linecap="round" stroke-linejoin="round" stroke-width="29.2742" vectornator:layerName="Outline"/>
</g>
</svg>
