<?xml version="1.0" encoding="UTF-8" standalone="no"?>
<!DOCTYPE svg PUBLIC "-//W3C//DTD SVG 1.1//EN" "http://www.w3.org/Graphics/SVG/1.1/DTD/svg11.dtd">
<!-- Created with Vectornator (http://vectornator.io/) -->
<svg height="100%" stroke-miterlimit="10" style="fill-rule:nonzero;clip-rule:evenodd;stroke-linecap:round;stroke-linejoin:round;" version="1.1" viewBox="0 0 2000 2000" width="100%" xml:space="preserve" xmlns="http://www.w3.org/2000/svg" xmlns:vectornator="http://vectornator.io" xmlns:xlink="http://www.w3.org/1999/xlink">
<defs/>
<g id="Layer-2" vectornator:layerName="Layer 2">
<path d="M735.059 594.022C673.762 577.2 651.742 720.254 632.782 771.716C578.882 918.017 431.861 1124.4 541.265 1283.53C576.539 1334.84 655.24 1350.72 710.741 1366.58C877.57 1414.24 1051.24 1433.75 1225.95 1400.47C1602 1328.84 1458.41 1104.9 1370 864.928C1353.94 821.333 1339.55 616.379 1302.21 603.935C1256.35 588.646 1194.42 780.939 1141.21 802.222C1126.43 808.135 1072.45 783.675 1008.68 779.343C928.192 773.875 857.441 804.204 847.792 792.948C803.475 741.244 798.396 611.404 735.059 594.022Z" fill="#635d58" fill-rule="nonzero" opacity="1" stroke="none" vectornator:layerName="Body"/>
<path d="M828.167 1110.12L830.646 1168.89M1128.11 1110.12L1130.59 1168.89" fill="none" opacity="1" stroke="#c0a181" stroke-linecap="round" stroke-linejoin="round" stroke-width="48.3638" vectornator:layerName="Eyes"/>
<path d="M608.901 823.836C639.904 759.71 674.241 591.417 732.914 592.472C791.587 593.527 781.694 727.441 850.623 799.933C976.542 768.498 1041.18 777.003 1151.72 805.346C1207.81 730.485 1244.19 597.803 1299.48 598.797C1354.76 599.791 1349.25 771.497 1365.84 837.444M554.469 942.906C360.556 1366.45 776.003 1418.36 989.903 1419.21C1203.8 1420.06 1626.49 1420.38 1410.07 946.308M555.918 861.411L581.229 886.721M1420.5 868.85L1389.76 888.127M976.892 1221.84L966.044 1206.93L987.371 1207.14L976.892 1221.84Z" fill="none" opacity="1" stroke="#c0a181" stroke-linecap="round" stroke-linejoin="round" stroke-width="29.2742" vectornator:layerName="Outline"/>
<path d="M1571.34 664.657C1694.83 654.267 1720.09 474.514 1720.09 474.514C1720.09 474.514 1684.13 664.974 1824.49 668.069C1680.3 687.918 1687.71 862.682 1687.71 862.682C1687.71 862.682 1706.3 694.036 1571.34 664.657Z" fill="#ffe27e" fill-rule="nonzero" opacity="1" stroke="#ffe27e" stroke-linecap="round" stroke-linejoin="round" stroke-width="29.2742" vectornator:layerName="Whine"/>
<path d="M728.503 1138.57C748.694 1112.67 883.351 1112.67 908.046 1138.57C921.948 1248.89 827.284 1242.13 827.284 1242.13C827.284 1242.13 701.709 1254.69 728.503 1138.57ZM1228.66 1139.19C1208.47 1113.3 1073.81 1113.3 1049.12 1139.19C1035.22 1249.52 1129.88 1242.76 1129.88 1242.76C1129.88 1242.76 1255.46 1255.31 1228.66 1139.19ZM910.182 1150.98C949.221 1130.1 996.431 1127.38 1047.27 1154.62" fill="none" opacity="1" stroke="#ffffff" stroke-linecap="round" stroke-linejoin="round" stroke-width="29.2742" vectornator:layerName="Glasses"/>
</g>
</svg>
