<?xml version="1.0" encoding="UTF-8" standalone="no"?>
<!DOCTYPE svg PUBLIC "-//W3C//DTD SVG 1.1//EN" "http://www.w3.org/Graphics/SVG/1.1/DTD/svg11.dtd">
<!-- Created with Vectornator (http://vectornator.io/) -->
<svg height="100%" stroke-miterlimit="10" style="fill-rule:nonzero;clip-rule:evenodd;stroke-linecap:round;stroke-linejoin:round;" version="1.1" viewBox="0 0 2000 2000" width="100%" xml:space="preserve" xmlns="http://www.w3.org/2000/svg" xmlns:vectornator="http://vectornator.io" xmlns:xlink="http://www.w3.org/1999/xlink">
<defs>
<filter color-interpolation-filters="sRGB" filterUnits="userSpaceOnUse" height="612.178" id="Filter" width="637.847" x="677.253" y="1073.94">
<feGaussianBlur in="SourceGraphic" result="Blur" stdDeviation="13.5659"/>
</filter>
</defs>
<g id="Layer-1" vectornator:layerName="Layer 1">
<path d="M881.999 911.743C867.911 850.834 865.367 740.572 862.184 626.537C860.648 571.479 857.893 516.799 862.822 473.234C870.464 405.68 887.675 361.882 887.675 361.882C887.675 361.882 938.249 255.037 1025.19 272.426C1066.58 280.703 1115.68 368.88 1115.68 368.88C1115.68 368.88 1149.24 534.264 1140.11 652.244C1135.46 712.446 1121.46 859.332 1121.46 859.332C1121.46 859.332 1121.28 902.149 1111.3 925.01C1107.04 934.759 1099.28 929.928 1091.81 934.495C1030.14 972.232 1081.27 1025.96 1056.78 1050.44C1032.13 1075.09 959.158 1074.72 937.386 1047.7C919.763 1025.82 942.056 979.583 928.59 954.973C915.507 931.061 874.06 933.102 884.555 912.113" fill="#b5895b" fill-rule="nonzero" opacity="1" stroke="none" vectornator:layerName="Curve 26"/>
<path d="M1078.15 1040.37C1080.87 1040.28 1184.66 1082.74 1202.57 1086.18C1263.65 1097.9 1339.9 1092.42 1342.41 1107.5C1372.95 1342.06 1281.26 1514.91 1241.31 1560.8C1176.55 1635.19 1085.84 1708.93 996.704 1728.66C909.784 1711.94 809.026 1645.37 741.048 1529.07C663.454 1396.32 635.863 1195.6 656.881 1094.68C685.935 1088.48 753.887 1088.06 805.738 1076.11C873.912 1060.4 928.373 1039.6 928.373 1039.6C928.373 1039.6 967.29 1068.35 1003.18 1068.66C1003.18 1068.66 1063.71 1040.81 1078.15 1040.37Z" fill="#8b8987" fill-rule="nonzero" opacity="1" stroke="none" vectornator:layerName="Curve 27"/>
<path d="M1059.81 1108.46C1062.03 1108.39 1146.55 1141.93 1161.13 1144.65C1210.87 1153.91 1274.22 1143.45 1276.27 1155.37C1301.14 1340.67 1225.21 1483.34 1192.68 1519.59C1139.95 1578.36 1066.08 1636.61 993.493 1652.2C928.653 1652.2 847.292 1596.56 785.309 1494.53C721.734 1389.88 696.142 1234.25 719.928 1156.27C743.587 1151.37 795.764 1146.13 837.987 1136.69C893.503 1124.28 937.85 1107.85 937.85 1107.85C937.85 1107.85 969.541 1130.57 998.767 1130.81C998.767 1130.81 1048.06 1108.81 1059.81 1108.46Z" fill="#b5b5b5" fill-rule="nonzero" filter="url(#Filter)" opacity="1" stroke="none" vectornator:blur="27.1318" vectornator:layerName="Curve 28"/>
<path d="M934.523 1043.18C1011.66 1095.63 1064.11 1040.09 1064.11 1040.09M929.238 949.592L884.52 920.972C884.52 920.972 825.491 511.794 882.731 375.402C939.971 239.01 1055.79 238.115 1113.48 375.402C1171.17 512.689 1113.48 924.549 1113.48 924.549L1061.61 953.169L1063.39 1037.24C1063.39 1037.24 1168.93 1103.42 1342.44 1099.85C1392.53 1645.42 991.845 1729.49 991.845 1729.49C991.845 1729.49 623.362 1645.42 651.982 1094.48C812.97 1087.33 932.816 1035.45 932.816 1035.45L929.238 949.592ZM934.523 954.26C1011.66 1006.71 1064.11 951.175 1064.11 951.175" fill="none" opacity="1" stroke="#463727" stroke-linecap="round" stroke-linejoin="round" stroke-width="10" vectornator:layerName="Curve 29"/>
<path d="M704.278 1157.56C982.482 1088.6 943.825 1120.7 976.432 1657.33M1285.94 1160.76C976.941 1095.61 1052.24 1122.85 1005.61 1658.16" fill="none" opacity="1" stroke="#463727" stroke-linecap="round" stroke-linejoin="round" stroke-width="3.82151" vectornator:layerName="Curve 30"/>
</g>
</svg>
