<?xml version="1.0" encoding="UTF-8" standalone="no"?>
<!DOCTYPE svg PUBLIC "-//W3C//DTD SVG 1.1//EN" "http://www.w3.org/Graphics/SVG/1.1/DTD/svg11.dtd">
<!-- Created with Vectornator (http://vectornator.io/) -->
<svg height="100%" stroke-miterlimit="10" style="fill-rule:nonzero;clip-rule:evenodd;stroke-linecap:round;stroke-linejoin:round;" version="1.1" viewBox="0 0 2000 2000" width="100%" xml:space="preserve" xmlns="http://www.w3.org/2000/svg" xmlns:vectornator="http://vectornator.io" xmlns:xlink="http://www.w3.org/1999/xlink">
<defs>
<path d="M1750 1303.52C1664.57 1615.7 1301.47 1679.54 1168.27 1651.62C1144.53 1643.44 1087.29 1639.11 1066.52 1618.05C981.901 1615.58 659.962 1591.87 571.852 1584.05C561.195 1611.32 537.225 1791.97 370.005 1758.53C290.637 1742.65 240.687 1596.57 251.11 1523.62C273.652 1365.82 373.126 1290.29 457.223 1333.82C544.684 1379.09 531.805 1412.49 566.974 1482.92C684.06 1491.79 812.985 1484.34 896.533 1485.68C937.073 1486.33 945.067 1489.98 974.307 1491.76C1003.12 1493.51 981.777 1468.78 974.12 1455.21C962.057 1433.82 945.153 1409.77 929.532 1383.62C909.851 1396.33 877.997 1448.19 841.75 1478.78C818.35 1498.52 773.799 1516.77 771.691 1478.81C770.466 1456.77 873.147 1366.96 892.386 1318.07C895.283 1310.71 889.099 1303.27 885.293 1297.88C850.211 1248.17 817.7 1171.9 778.903 1112.66C716.989 1018.14 680.479 916.139 701.997 787.03C703.677 776.95 712.255 757.847 712.255 757.847C712.255 757.847 660.184 704.593 638.946 674.949C610.103 634.689 584.139 581.757 584.139 528.767C584.139 485.445 616.274 390.506 637.973 392.387C614.121 458.67 618.025 529.097 626.012 554.138C633.546 577.755 647.742 607.538 659.941 633.198C667.568 649.244 678.454 660.698 689.569 672.575C713.872 698.543 717.807 706.456 731.714 718.754C732.033 719.036 789.175 653.102 789.175 653.102L881.429 581.978C881.429 581.978 994.888 528.506 1010.61 522.217C1059.19 502.784 1148.67 495.081 1208.79 489.169C1255.52 484.574 1287.71 506.445 1266.01 475.958C1227.06 421.226 1181.34 400.445 1121.62 358.433C1017.73 285.351 907.55 285.894 838.585 285.894C795.355 285.894 652.766 364.339 682.391 332.855C740.613 270.978 854.594 243.911 883.966 238.037C968.986 221.033 1100.95 262.969 1100.95 262.969L1250.59 354.558C1250.59 354.558 1338.79 440.939 1367.97 474.424C1381.42 489.856 1388.91 514.472 1402.94 534.609C1420.65 560.032 1431.74 594.62 1433.03 571.077C1434.29 548.184 1436.91 548.706 1433.4 524.795C1428.53 491.57 1411.19 439.813 1398.95 426.341C1391.79 418.465 1380.58 412.889 1371.84 415.862C1355.36 421.471 1342.09 444.004 1342.09 444.004C1342.09 444.004 1311.74 430.975 1316.94 409.502C1321.83 389.335 1363.81 363.032 1381.16 358.694C1410.09 351.463 1484.78 430.415 1492.68 658.294C1583.68 841.517 1744.01 1248.09 1744.01 1267.59" id="Fill"/>
<filter color-interpolation-filters="sRGB" filterUnits="userSpaceOnUse" height="846.234" id="Filter" width="605.022" x="984.566" y="805.791">
<feGaussianBlur in="SourceGraphic" result="Blur" stdDeviation="3.19767"/>
</filter>
</defs>
<g id="Layer-1" vectornator:layerName="Layer 1">
<g opacity="1" vectornator:layerName="Group 1">
<use fill="#a0d4ed" fill-rule="nonzero" opacity="1" stroke="none" vectornator:layerName="Curve 25" xlink:href="#Fill"/>
<clipPath clip-rule="nonzero" id="ClipPath">
<use xlink:href="#Fill"/>
</clipPath>
<g clip-path="url(#ClipPath)">
<path d="M1381.08 689.167C1381.08 689.167 1362.6 715.782 1347.17 731.215C1317.53 760.848 1294.07 763.139 1268.26 797.55C1263.05 804.497 1213.53 829.321 1215.95 839.005C1219.51 853.213 1521.62 1458.97 1556.36 1493.71C1560.54 1497.89 1585.4 1536.52 1590.83 1534.71C1605.13 1529.94 1628.73 1508.75 1641.12 1499.46C1699.09 1455.98 1728.02 1385.75 1742.76 1312.06C1754.89 1251.42 1711.89 1184.33 1689.81 1132.8C1661.06 1065.72 1643.12 1006.15 1617.55 937.974C1596.57 882.03 1588.11 869.523 1557.48 806.481C1551.84 794.866 1517.67 708.527 1509.82 698.059C1506.14 693.154 1502.41 688.554 1499.62 682.972C1498.97 681.685 1444.97 581.637 1443.95 582.654C1441.25 585.352 1487.97 699.185 1487.44 702.916C1485.81 714.328 1484.8 746.668 1474.53 754.371C1469.42 758.2 1466.07 755.634 1461.02 754.371C1445.64 750.526 1416.24 747.166 1412.39 727.905C1411.24 722.137 1398.24 678.941 1389.32 678.941C1382.76 678.941 1381.08 689.167 1381.08 689.167Z" fill="#84a9d1" fill-rule="nonzero" opacity="1" stroke="#84a9d1" stroke-linecap="butt" stroke-linejoin="round" stroke-width="10" vectornator:layerName="Curve 26"/>
<path d="M997.592 915.922C995.025 916.262 1148.82 1193.5 1164.32 1223.46C1233.12 1356.44 1371.11 1639.9 1377.99 1639.03C1419.34 1633.77 1591.79 1581.76 1575.51 1540.98C1524.86 1414.06 1235.3 812.19 1223.23 818.84C1099.42 887.028 1060.24 907.629 997.592 915.922Z" fill="#a2c5eb" fill-rule="nonzero" filter="url(#Filter)" opacity="1" stroke="#a2c5eb" stroke-linecap="butt" stroke-linejoin="round" stroke-width="10" vectornator:blur="6.39535" vectornator:layerName="Curve 40"/>
</g>
</g>
<path d="M763.382 917.732C769.077 903.495 772.697 874.374 787.652 854.55C796.918 842.266 804.607 832.561 830.919 824.935C842.433 821.598 847.183 814.211 860.049 785.322C869.208 764.758 882.232 731.948 899.056 715.315C913.039 701.491 930.497 691.899 956.057 688.704C981.801 685.486 1017.21 686.065 1040.44 672.788C1064 659.328 1080.76 633.07 1109.56 620.14C1165.39 595.071 1175.2 616.955 1239.91 594.548C1264.45 586.053 1322.36 570.356 1335.64 592.242C1362.15 635.956 1358.28 599.168 1369.66 642.875C1372.27 652.916 1386.55 674.242 1386.55 674.242C1386.55 674.242 1330.47 742.803 1296.14 765.689C1246.4 798.852 1195.15 839.012 1138.68 861.598C1099.03 877.459 1068.23 896.348 1027.44 906.546C1002.46 912.79 969.523 920.086 941.949 924.025C898.868 930.18 757.965 931.274 763.382 917.732ZM951.34 813.453C951.437 812.748 951.535 812.043 951.632 811.338M844.402 857.078C845.021 855.839 844.608 856.436 845.709 855.335" fill="#4ab6df" fill-rule="nonzero" opacity="1" stroke="#4ab6df" stroke-linecap="butt" stroke-linejoin="round" stroke-width="17.1009" vectornator:layerName="Curve 84"/>
<path d="M1317.63 409.71C1335.5 377.956 1357.15 359.367 1380.49 359.367C1441.79 359.367 1491.48 487.597 1491.48 645.778C1491.48 646.898 1491.47 648.017 1491.47 649.134M1345.02 440.234C1358.16 416.883 1418.97 357.897 1442.02 590.375M933.037 1386.63C955.836 1425.86 978.042 1463.38 998.307 1496.86M1270.7 490.689C1001.57 454.496 590.61 674.71 714.073 975.454C728.39 1019.43 809.937 1171.38 893.778 1318.42M1077.51 1620.09C1081.72 1625.72 1085.18 1629.94 1087.8 1632.55C1463.57 1731.11 1726.41 1486.76 1746.94 1287.57C1634.01 934.385 1498.48 661.281 1455.36 595.571C1445.15 578.907 1432.66 564.298 1418.26 551.651M706.231 753.183C286.161 349.82 1090.5-46.3832 1417.49 726.928M732.485 719.768C312.415 316.405 1147.78-103.666 1474.77 669.646C1510.73 786.878 1426.66 760.156 1413.86 718.404M252.053 1550.41C252.053 1431.33 312.73 1334.8 387.579 1334.8C462.428 1334.8 523.105 1431.33 523.105 1550.41C523.105 1669.49 462.428 1766.02 387.579 1766.02C312.73 1766.02 252.053 1669.49 252.053 1550.41ZM250 1545.28C250 1423.37 321.709 1324.54 410.167 1324.54C498.624 1324.54 570.334 1423.37 570.334 1545.28C570.334 1667.19 498.624 1766.02 410.167 1766.02C321.709 1766.02 250 1667.19 250 1545.28ZM562.12 1486.76C562.12 1486.76 943.029 1473.92 1093.96 1505.24C1163.06 1511.47 1193.64 1587.27 1165.83 1612.01C1036.46 1632.04 576.494 1585.32 576.494 1585.32M696.684 905.935C913.742 1006.88 1289.22 838.562 1393.12 670.647M770.946 1477.51C770.946 1477.51 906.921 1298.51 961.425 1254.9C992.435 1229.68 1008.93 1275.22 988.964 1303.1C959.13 1358.18 834.814 1486.74 834.814 1486.74" fill="none" opacity="1" stroke="#396698" stroke-linecap="round" stroke-linejoin="round" stroke-width="10" vectornator:layerName="Curve 85"/>
<path d="M388.279 1423.79C391.767 1425.48 392.113 1408.01 385.513 1405.81C375.927 1402.62 373.159 1427.61 385.513 1430.7C396.44 1433.43 396.358 1413.89 391.044 1408.58C385.495 1403.03 374.982 1417.32 388.279 1423.79Z" fill="none" opacity="1" stroke="#749dcb" stroke-linecap="butt" stroke-linejoin="round" stroke-width="23.426" vectornator:layerName="Curve 86"/>
<path d="M443.591 1521.97C441.872 1520.98 444.003 1513.67 440.825 1513.67C436.216 1513.67 436.703 1525.44 440.825 1527.5C449.399 1531.79 437.458 1507.54 443.591 1513.67C446.279 1516.36 445.377 1523 443.591 1521.97Z" fill="none" opacity="1" stroke="#658db9" stroke-linecap="butt" stroke-linejoin="round" stroke-width="23.426" vectornator:layerName="Curve 87"/>
<path d="M434.766 1629.45C430.993 1669.91 425.607 1604.92 438.06 1629.83C442.633 1638.97 435.453 1642.13 429.522 1645.69C418.348 1652.39 436.613 1609.64 434.766 1629.45Z" fill="none" opacity="1" stroke="#396698" stroke-linecap="butt" stroke-linejoin="round" stroke-width="23.426" vectornator:layerName="Curve 88"/>
<path d="M360.622 1530.26C358.536 1531.98 352.776 1554.06 346.794 1544.09C327.098 1511.27 380.528 1513.87 360.622 1530.26Z" fill="none" opacity="1" stroke="#7aa6d6" stroke-linecap="butt" stroke-linejoin="round" stroke-width="23.426" vectornator:layerName="Curve 89"/>
<path d="M429.763 1649.19L426.997 1643.65M363.388 1696.2L366.154 1701.73" fill="none" opacity="1" stroke="#396698" stroke-linecap="butt" stroke-linejoin="round" stroke-width="23.426" vectornator:layerName="Curve 90"/>
<path d="M371.685 1693.44C349.267 1715.85 365.896 1666.78 374.451 1679.61C378.602 1685.83 371.493 1708.98 360.622 1701.73C351.247 1695.48 363.117 1677.06 366.154 1682.37C369.483 1688.2 373.529 1691.59 371.685 1693.44ZM328.818 1611.85C331.316 1619.13 307.736 1619.44 313.607 1607.7C316.115 1602.69 331.3 1599.44 330.201 1604.94C329.146 1610.21 327.278 1607.36 328.818 1611.85Z" fill="none" opacity="1" stroke="#5585ba" stroke-linecap="butt" stroke-linejoin="round" stroke-width="23.426" vectornator:layerName="Curve 91"/>
<path d="M327.435 1452.83C323.472 1443.44 327.172 1471.92 319.138 1463.89C316.788 1461.54 329.09 1456.75 327.435 1452.83Z" fill="none" opacity="1" stroke="#99c5f5" stroke-linecap="butt" stroke-linejoin="round" stroke-width="23.426" vectornator:layerName="Curve 92"/>
</g>
</svg>
