<?xml version="1.0" encoding="UTF-8" standalone="no"?>
<!DOCTYPE svg PUBLIC "-//W3C//DTD SVG 1.1//EN" "http://www.w3.org/Graphics/SVG/1.1/DTD/svg11.dtd">
<!-- Created with Vectornator (http://vectornator.io/) -->
<svg height="100%" stroke-miterlimit="10" style="fill-rule:nonzero;clip-rule:evenodd;stroke-linecap:round;stroke-linejoin:round;" version="1.1" viewBox="0 0 2000 2000" width="100%" xml:space="preserve" xmlns="http://www.w3.org/2000/svg" xmlns:vectornator="http://vectornator.io" xmlns:xlink="http://www.w3.org/1999/xlink">
<defs>
<path d="M385.15 1231.39C350.765 1073.29 686.021 467.807 864.825 365.397C991.801 292.671 1415.61 375.11 1604.11 640.287C1738.21 828.938 1322.15 1547.61 1162.26 1633.85C1015.81 1712.83 449.953 1529.36 385.15 1231.39Z" id="Fill"/>
</defs>
<g id="Layer-1" vectornator:layerName="Layer 1">
<g opacity="1" vectornator:layerName="Group 4">
<use fill="#c9a27a" fill-rule="nonzero" opacity="1" stroke="#735c43" stroke-linecap="round" stroke-linejoin="round" stroke-width="10" vectornator:layerName="Curve 1" xlink:href="#Fill"/>
<clipPath clip-rule="nonzero" id="ClipPath">
<use xlink:href="#Fill"/>
</clipPath>
<g clip-path="url(#ClipPath)">
<path d="M539.301 1119.91C513.691 1012.96 763.389 603.398 896.561 534.125C991.132 484.931 1306.78 540.695 1447.18 720.07C1547.06 847.679 1237.17 1333.81 1118.09 1392.15C1009.02 1445.57 587.566 1321.47 539.301 1119.91Z" fill="#dbc6b1" fill-rule="nonzero" opacity="1" stroke="none" vectornator:layerName="Curve 40"/>
</g>
</g>
<path d="M891.646 344.85C880.718 352.354 893.922 312.349 900.388 316.44C907.638 321.027 903.628 359.292 910.996 358.839C926.344 357.896 933.897 294.756 953.251 305.465C969.865 314.658 959.572 364.965 983.703 365.411C1000.27 365.717 1033.11 314.812 1042.79 320.938C1055.85 329.203 1038.49 363.197 1064.77 364.294C1085.99 365.18 1104.59 319.967 1122.61 326.52C1137.89 332.077 1118.94 369.888 1137.56 376.656C1156.42 383.516 1193.01 321.164 1209.13 333.347C1228.85 348.252 1195.24 396.778 1228.86 407.474C1249.59 414.069 1278.52 386.038 1293.69 375.619C1294.22 375.252 1298.29 372.903 1299.69 374.422C1312.25 388.077 1278.82 424.224 1298.12 438.819C1320.7 455.885 1355.04 427.083 1373.78 417.061C1374.69 416.574 1382.8 410.334 1383.96 412.02C1393.78 426.314 1353.22 470.981 1382.89 479.973C1414.7 489.613 1460.02 448.248 1470.05 452.265C1473.92 453.814 1468.93 460.55 1467.77 464.548C1463.05 480.768 1438.72 525.842 1458.55 539.074C1477.88 551.976 1506.69 531.343 1522 520.825C1522.01 520.823 1531.64 512.623 1532.6 513.551C1536.51 517.355 1499.84 572.24 1512.5 590.677C1524.37 607.967 1553.87 594.49 1567.47 587.024C1576.03 582.322 1595.81 565.024 1594.03 574.629C1590.16 595.46 1558.89 615.479 1567.07 638.93C1574.08 659.033 1607 636.986 1615.75 631.799C1619.67 629.474 1626.2 620.352 1627.46 624.733C1630.76 636.199 1595.12 668.017 1594.01 686.673C1593.7 691.884 1642.39 702.873 1650 708.622M402.776 1271.34C408.294 1262.79 351.181 1308.46 350.002 1319.17C349.573 1323.06 421.082 1307.63 428.724 1314.04C443.283 1326.25 376.373 1381.64 397.009 1393.3C410.318 1400.83 465.989 1363.48 467.466 1365.81C478.121 1382.62 421.417 1443.57 456.615 1450.44C476.351 1454.29 518.789 1404.63 528.406 1410.84C544.637 1421.32 491.395 1495.79 519.917 1501.85C544.689 1507.12 593.978 1448.09 600.279 1454C619.807 1472.31 566.884 1532.48 604.07 1544.83C623.636 1551.33 642.388 1532.97 655.69 1521.4C661.975 1515.94 671.246 1495.24 672.999 1503.38C675.388 1514.48 667.869 1539.78 666.483 1548.64C651.859 1642.18 734.259 1529.61 741.83 1532.42C757.215 1538.11 729.894 1594.23 745.94 1606.43C771.884 1626.16 805.97 1562.71 825.969 1561.6C843.112 1560.65 817.167 1641.85 838.664 1641.16C868.416 1640.2 881.775 1574.46 907.399 1573.64C928.781 1572.95 902.054 1661.13 915.065 1671.03C937.143 1687.81 960.504 1611.69 972.048 1612.96C976.505 1613.45 971.039 1680.31 985.564 1684.92C1003.91 1690.74 1025.59 1646.79 1032.28 1636.43C1035.12 1632.03 1038.08 1619.55 1041.35 1623.63C1053.35 1638.6 1026.25 1687.17 1051.85 1695.28C1072.13 1701.71 1088.03 1640.64 1098.39 1634.51C1098.4 1634.5 1094.03 1683.39 1103.61 1683.08C1129.3 1682.25 1122.29 1663.77 1136.6 1643.52" fill="none" opacity="1" stroke="#735c43" stroke-linecap="round" stroke-linejoin="round" stroke-width="67.1786" vectornator:layerName="Curve 22"/>
<path d="M813.631 1100.69C825.082 1146.23 767.493 1125.75 766.094 1118.75C762.334 1099.96 804.13 1062.9 813.631 1100.69ZM960.997 1208.12C933.766 1199.18 1019.37 1204.02 990.47 1227.14C897.207 1301.75 962.138 1123.51 977.159 1198.61C980.139 1213.51 964.462 1209.26 960.997 1208.12ZM1040.86 1183.4C1029.53 1164.85 1100.19 1202.98 1076.04 1227.14C1033.49 1269.68 1044.84 1189.92 1040.86 1183.4ZM868.774 1135.86C908.924 1145.68 928.975 1177.95 880.183 1168.19C858.97 1163.95 841.754 1129.26 868.774 1135.86ZM757.537 1059.81C760.935 1088.26 704.395 1103.94 695.738 1069.31C684.656 1024.98 751.682 1010.77 757.537 1059.81ZM869.725 1075.97C855.736 1097.87 800.837 1061.19 811.729 1050.3C841.531 1020.5 888.061 1047.26 869.725 1075.97ZM1051.32 1144.42C1043.53 1144.49 988.049 1154.3 1007.58 1128.26C1032.68 1094.8 1056.28 1144.38 1051.32 1144.42ZM1104.56 1185.3C1100.48 1173.21 1091.74 1146.42 1117.87 1168.19C1141.16 1187.6 1116.02 1219.29 1104.56 1185.3ZM978.11 1148.22C978.827 1148.88 923.416 1138.27 939.129 1122.55C951.197 1110.49 968.695 1139.67 978.11 1148.22ZM939.129 1092.13L935.326 1094.03L925.819 1097.83L918.213 1097.83L914.41 1097.83L908.705 1097.83L904.902 1095.93L901.099 1094.03L897.297 1090.23L893.494 1086.43L889.691 1082.62L885.888 1076.92L883.986 1073.12L883.986 1069.31L883.986 1065.51L885.888 1061.71L889.691 1059.81L893.494 1059.81L901.099 1059.81L906.804 1059.81L912.508 1061.71L916.311 1063.61L922.016 1065.51L925.819 1067.41L929.622 1069.31L933.425 1075.02L933.425 1080.72L935.326 1088.33M954.341 1071.21L958.144 1065.51L961.947 1063.61L967.652 1061.71L971.455 1063.61L977.159 1067.41L979.061 1071.21L982.864 1076.92L984.765 1080.72L984.765 1084.52L986.667 1088.33L986.667 1094.03L986.667 1097.83L982.864 1099.74L979.061 1099.74L973.356 1099.74L967.652 1097.83L963.849 1095.93L960.046 1094.03L958.144 1090.23L954.341 1084.52L954.341 1080.72M856.414 1035.09C853.527 1029.42 803.782 1028.16 811.729 1012.27C833.065 969.597 863.873 1049.71 856.414 1035.09ZM914.41 1028.43C905.189 1027.14 871.689 1032.93 876.38 1014.17C887.163 971.039 935.22 1031.35 914.41 1028.43ZM1095.05 1118.75L1100.76 1118.75L1104.56 1120.65L1108.36 1122.55L1112.17 1124.46L1114.07 1130.16L1114.07 1133.96L1112.17 1137.77L1106.46 1139.67L1102.66 1139.67L1098.85 1139.67L1091.25 1139.67L1085.54 1139.67L1079.84 1137.77L1074.14 1135.86L1070.33 1132.06L1060.82 1126.36L1057.02 1120.65L1055.12 1116.85L1062.73 1116.85L1070.33 1116.85L1076.04 1116.85M1020.89 1184.35C1030.96 1180.1 986.749 1177.56 992.371 1168.19C998.066 1158.7 1013.13 1187.64 1020.89 1184.35ZM1074.14 1139.67C1050.16 1145.66 935.549 1132.9 998.076 1101.64C1026.03 1087.66 1061.41 1129.87 1034.2 1143.47M979.061 1077.87C986.012 1081.07 902.102 1064.06 948.637 1040.79C970.057 1030.08 971.896 1074.57 979.061 1077.87ZM971.455 1029.38L967.652 1029.38L960.046 1031.28L952.44 1033.18L948.637 1033.18L942.932 1033.18L939.129 1029.38L935.326 1021.78L935.326 1017.97L935.326 1014.17L935.326 1008.46L935.326 1004.66L935.326 1000.86L937.228 997.056L941.031 995.154L946.735 995.154L950.538 997.056L954.341 1000.86L958.144 1008.46L967.652 1023.68M1016.14 1091.18C1019.09 1075.65 1033.91 1061.41 1049.42 1076.92C1083.9 1111.4 1008.81 1129.73 1016.14 1091.18ZM987.617 1051.25C961.611 1029.64 978.227 1003.09 998.076 1017.97C1015.93 1031.36 1032.48 1088.53 987.617 1051.25ZM1091.25 1139.67L1096.95 1137.77L1102.66 1133.96L1104.56 1130.16L1106.46 1126.36L1106.46 1120.65L1106.46 1116.85L1106.46 1113.05L1104.56 1107.34L1100.76 1101.64L1096.95 1099.74L1095.05 1095.93L1089.35 1092.13L1083.64 1088.33L1079.84 1090.23L1079.84 1094.03L1077.94 1101.64L1076.04 1109.24L1074.14 1114.95M1083.64 1130.16L1079.84 1128.26L1077.94 1124.46L1083.64 1124.46L1087.45 1126.36L1089.35 1130.16L1089.35 1133.96L1089.35 1137.77L1085.54 1141.57L1079.84 1141.57L1074.14 1139.67M928.671 1202.42C952.981 1231.31 843.788 1218.12 897.297 1196.71C916.786 1188.92 921.966 1194.45 928.671 1202.42ZM841.202 1146.32C851.487 1189.05 796.517 1162.37 796.517 1152.98C796.517 1119.04 838.556 1135.33 841.202 1146.32ZM1095.05 1217.63L1100.76 1217.63L1106.46 1217.63L1110.26 1219.53L1114.07 1221.43L1119.77 1225.23L1123.57 1230.94L1125.48 1234.74L1127.38 1240.45L1129.28 1244.25L1123.57 1244.25L1117.87 1244.25L1110.26 1244.25L1106.46 1246.15L1098.85 1246.15M810.779 1021.78C797.664 1017.34 738.14 1016.84 750.882 991.351C766.271 960.573 845.939 1033.66 810.779 1021.78ZM724.261 1019.87L714.753 1019.87L701.443 1017.97L697.64 1016.07L693.837 1014.17L690.034 1012.27L686.231 1010.37L680.526 1008.46L674.822 1006.56L671.019 1006.56L672.92 1002.76L676.723 1002.76L682.428 1002.76L690.034 1002.76L693.837 1002.76L701.443 1002.76L712.852 1004.66L718.556 1008.46" fill="#dbc6b1" fill-rule="nonzero" opacity="1" stroke="#b2875a" stroke-linecap="round" stroke-linejoin="round" stroke-width="58.1509" vectornator:layerName="Curve 23"/>
<path d="M916.311 1076.92L910.607 1080.72L906.804 1082.62L899.198 1084.52L893.494 1084.52L887.789 1084.52L883.986 1084.52L882.085 1080.72L882.085 1076.92L885.888 1075.02L889.691 1075.02L895.395 1075.02L901.099 1075.02L908.705 1076.92M1034.2 1164.39L1030.4 1166.29L1026.6 1168.19L1022.8 1168.19L1017.09 1168.19L1015.19 1164.39L1018.99 1162.49L1026.6 1166.29L1030.4 1170.09M1043.71 1101.64L1039.91 1101.64L1034.2 1101.64L1030.4 1103.54L1026.6 1105.44L1026.6 1101.64L1026.6 1097.83L1032.3 1097.83L1038.01 1099.74M798.419 1010.37L787.01 1008.46M844.055 968.533L851.661 968.533M986.667 1036.99C984.765 1036.99 982.864 1036.99 980.962 1036.99M1127.38 1151.08L1125.48 1154.88" fill="#dbc6b1" fill-rule="nonzero" opacity="1" stroke="#c0a181" stroke-linecap="round" stroke-linejoin="round" stroke-width="68.8393" vectornator:layerName="Curve 24"/>
<path d="M929.03 1051.6C936.614 1020.97 963.754 996.721 966.225 964.957C970.055 915.733 946.712 876.234 959.518 824.527C969.916 782.546 1002.7 702.175 1002.7 702.175C1002.7 702.175 1003.62 713.848 1004.08 719.685C1005.16 733.259 1028.21 941.395 972.259 952.145C971.251 952.339 984.576 885.86 984.562 879.37C984.523 861.764 975.63 781.56 991.063 772.254C1021.94 753.638 941.88 886.956 977.819 884.112C1002.55 882.155 1011.45 793.308 987.241 798.743C979.437 800.495 972.232 885.177 976.499 888.818M941.441 1030.57C1071.72 940.794 1050.91 843.412 1224.03 819.065C1234.07 817.653 1265.87 800.944 1272.82 802.223C1285.56 804.568 1254.87 820.978 1246.95 831.23C1207.88 881.812 1156.28 899.122 1096.22 912.733C1092.98 913.467 1066.17 919.02 1066.05 911.153C1065.81 895.839 1212.25 837.673 1213.62 839.661C1223.8 854.438 1180.02 852.349 1163.6 859.587C1158.33 861.91 1105.23 890.107 1100.36 883.038C1097.2 878.454 1177.78 848.699 1183.55 844.72C1192.03 838.881 1163.7 850.249 1154.06 853.859C1144.88 857.3 1096.65 870.783 1094.71 881.337C1092.21 894.922 1136.67 869.197 1128.84 857.823C1126.27 854.096 1056.55 912.105 1092.25 887.505M1247.19 829.949C1234.28 831.764 1070.91 978.251 1046.35 942.62C1045.52 941.407 1053.19 937.742 1053.94 937.394C1084.33 923.152 1114.55 908.854 1144.72 893.851" fill="none" opacity="1" stroke="#96bd60" stroke-linecap="round" stroke-linejoin="round" stroke-width="29.2742" vectornator:layerName="Curve 25"/>
</g>
</svg>
