<?xml version="1.0" encoding="UTF-8" standalone="no"?>
<!DOCTYPE svg PUBLIC "-//W3C//DTD SVG 1.1//EN" "http://www.w3.org/Graphics/SVG/1.1/DTD/svg11.dtd">
<!-- Created with Vectornator (http://vectornator.io/) -->
<svg height="100%" stroke-miterlimit="10" style="fill-rule:nonzero;clip-rule:evenodd;stroke-linecap:round;stroke-linejoin:round;" version="1.1" viewBox="0 0 2000 2000" width="100%" xml:space="preserve" xmlns="http://www.w3.org/2000/svg" xmlns:vectornator="http://vectornator.io" xmlns:xlink="http://www.w3.org/1999/xlink">
<defs/>
<g id="Layer-2" vectornator:layerName="Layer 2">
<path d="M1015.84 450.75C978.617 452.446 953.502 484.901 947.812 512.812C938.404 558.972 975.089 604.299 1015.31 614.781C1035.53 620.051 1082.51 611.202 1102.94 576.156C1120.46 546.089 1119.15 492.475 1056.84 460.625C1042.01 453.041 1028.25 450.185 1015.84 450.75ZM1810.91 600.25C1762.39 598.259 1734.33 635.419 1726.19 672.594C1721.02 696.174 1747.71 741.14 1790 753.875C1835.14 767.468 1869.84 734.069 1883.22 705.062C1897.74 673.58 1871.54 602.739 1810.91 600.25ZM1023.84 664.438C958.682 670.176 768.826 1006.93 700.688 1028.88C624.29 1055.8 232.08 796.865 245.688 889.125C259.126 1048.84 356.552 1385.07 415.906 1540.28C819.068 1553.78 1229.96 1552.65 1618.56 1533.53C1648.85 1488.26 1806.39 834.061 1772.66 810.906C1699.43 743.16 1377.18 1058.55 1312.97 1043.22C1211.24 1017.24 1099.96 650.877 1029.75 664.938C1027.92 664.412 1025.95 664.252 1023.84 664.438ZM183.594 666.312C177.927 666.128 172.302 666.813 166.812 668.562C120.136 683.439 111.834 729.339 112.969 748.469C115.287 787.554 140.825 834.216 185.406 833.25C254.267 831.757 281.742 779.3 272.625 743.344C264.734 712.226 223.261 667.607 183.594 666.312Z" fill="#ffed82" fill-rule="nonzero" opacity="1" stroke="#e4aa20" stroke-linecap="round" stroke-linejoin="round" stroke-width="17.1009" vectornator:layerName="Crown"/>
</g>
</svg>
