<?xml version="1.0" encoding="UTF-8" standalone="no"?>
<!DOCTYPE svg PUBLIC "-//W3C//DTD SVG 1.1//EN" "http://www.w3.org/Graphics/SVG/1.1/DTD/svg11.dtd">
<svg width="480.00" height="840.00" viewBox="0.00 0.00 2000.00 3500.00" xmlns="http://www.w3.org/2000/svg" xmlns:xlink="http://www.w3.org/1999/xlink">
<g stroke-linecap="round" id="เลเยอร์_2">
<path d="M1007.34,2156.89 C998.07,2159.45 988.41,2161.30 980.57,2161.03 C975.86,2160.85 969.52,2159.91 965.92,2158.78 C960.93,2157.19 946.73,2150.50 939.72,2146.52 C927.69,2139.51 902.18,2123.57 890.12,2115.59 C877.44,2106.81 852.06,2088.83 839.37,2079.63 C824.46,2068.37 804.50,2051.91 793.72,2042.61 C782.97,2033.07 760.91,2012.58 749.96,2001.92 C739.77,1991.62 719.46,1969.97 709.26,1958.44 C699.20,1946.65 677.23,1919.11 670.24,1909.47 C661.62,1897.13 645.27,1871.66 637.44,1858.32 C631.47,1847.73 614.35,1813.40 609.82,1802.95 C603.93,1788.57 594.24,1762.36 589.09,1744.99 C585.00,1730.40 578.30,1698.46 576.71,1686.53 C575.77,1678.68 574.38,1662.98 573.94,1655.28 C573.72,1650.57 573.86,1632.66 574.18,1625.22 C574.83,1615.17 576.32,1602.69 577.48,1595.02 C578.85,1586.86 582.24,1572.94 584.83,1564.81 C587.04,1558.17 591.91,1543.76 594.53,1538.63 C596.20,1535.38 607.10,1516.52 609.43,1513.18 C612.45,1508.88 622.77,1497.31 626.36,1494.00 C631.41,1489.38 641.58,1481.94 647.03,1478.88 C653.91,1475.03 668.55,1469.46 676.20,1467.85 C684.19,1466.20 702.65,1465.61 706.26,1465.97 C710.29,1466.38 728.77,1470.25 734.81,1472.23 C741.21,1474.35 755.40,1481.02 761.38,1484.47 C767.09,1487.79 780.79,1496.96 786.62,1501.41 C792.24,1505.87 803.28,1515.18 808.69,1520.22 C814.09,1525.40 824.70,1536.12 829.87,1541.84 C843.03,1557.04 857.70,1575.30 867.06,1588.96 C876.14,1602.62 893.90,1629.93 901.78,1642.91 C910.74,1658.30 938.09,1712.68 945.85,1728.45 C950.72,1738.27 953.70,1743.71 955.32,1744.78 C956.02,1745.24 957.81,1745.60 959.17,1745.79 C961.79,1743.77 964.80,1739.01 966.00,1736.81 C973.57,1722.23 988.96,1692.71 996.80,1677.77 C1003.21,1666.16 1019.71,1639.39 1028.37,1626.01 C1034.57,1616.73 1055.26,1588.21 1064.98,1575.98 C1077.68,1560.82 1096.30,1540.73 1107.18,1530.16 C1112.63,1525.08 1123.71,1515.25 1129.38,1510.55 C1135.27,1505.84 1148.48,1496.49 1155.10,1492.11 C1163.57,1486.59 1171.97,1481.60 1179.41,1478.44 C1186.29,1475.54 1199.74,1470.19 1206.07,1468.73 C1211.71,1467.45 1225.26,1465.54 1232.73,1465.79 C1236.06,1465.91 1243.74,1466.89 1247.20,1467.71 C1251.26,1468.69 1256.11,1470.41 1260.55,1472.44 C1263.71,1473.90 1268.99,1476.78 1272.23,1479.35 C1276.56,1482.81 1287.66,1493.98 1291.80,1500.00 C1295.79,1505.86 1302.01,1518.20 1304.71,1525.22 C1307.40,1532.26 1311.00,1545.56 1312.44,1552.95 C1313.80,1560.29 1315.40,1574.17 1316.10,1583.84 C1316.38,1588.52 1316.50,1605.79 1316.33,1613.05 C1315.88,1625.09 1312.65,1654.65 1309.55,1671.88 C1307.20,1684.10 1300.54,1709.83 1293.94,1730.65 C1289.35,1744.89 1278.46,1770.91 1272.38,1784.48 C1265.38,1799.63 1252.70,1825.09 1243.64,1841.40 C1236.06,1854.14 1220.31,1879.92 1211.80,1893.06 C1203.19,1905.92 1185.42,1930.90 1176.12,1943.22 C1166.69,1955.30 1147.14,1979.85 1137.01,1992.32 C1128.72,2002.18 1113.14,2020.25 1099.74,2034.58 C1088.79,2046.08 1066.46,2069.30 1055.10,2081.01 C1042.56,2093.54 1013.98,2121.77 1012.45,2123.39 C1010.81,2125.11 999.09,2137.43 993.59,2142.59 C985.03,2150.35 983.09,2151.61 981.35,2152.52" fill="none" stroke="rgb(255, 0, 97)" stroke-width="60.00" stroke-opacity="1.00" stroke-linejoin="round"/>
<path d="M955.49,1971.72 C954.86,1972.96 953.80,1974.73 953.08,1975.48 C952.06,1976.51 949.32,1977.48 947.45,1977.48 C945.68,1977.44 936.74,1974.70 934.42,1973.59 C931.06,1971.93 917.27,1962.40 911.17,1956.77 C900.79,1947.00 883.52,1928.36 870.27,1912.24 C860.17,1899.45 842.25,1875.62 833.49,1863.32 C826.61,1853.22 808.94,1824.14 801.71,1811.77 C796.84,1802.86 792.37,1792.81 789.52,1785.55 C785.17,1774.25 783.16,1767.36 781.97,1759.06 C781.48,1755.51 781.93,1749.00 782.79,1746.72 C783.51,1744.91 785.57,1741.77 786.84,1740.71 C789.32,1738.72 795.36,1737.56 799.00,1737.83 C802.06,1738.11 809.25,1740.43 812.67,1741.77 C818.40,1744.05 826.86,1749.58 835.68,1755.94 C843.25,1761.52 853.75,1770.28 860.70,1776.89 C870.28,1786.31 891.17,1809.77 899.96,1820.98 C909.91,1834.30 929.45,1860.74 939.06,1873.86 C940.56,1875.87 945.57,1881.94 947.82,1883.03 C948.72,1883.43 951.86,1883.77 952.66,1883.51 C954.60,1882.81 957.75,1878.38 959.96,1874.33 C963.21,1868.18 978.81,1831.49 986.64,1816.18 C994.41,1801.81 1009.27,1775.88 1016.69,1765.74 C1018.79,1762.90 1031.59,1746.91 1035.58,1742.74 C1040.98,1737.13 1050.34,1729.20 1057.56,1724.92 C1062.03,1722.29 1066.24,1720.02 1069.33,1719.58 C1071.24,1719.32 1079.17,1718.97 1081.35,1719.54 C1083.18,1720.05 1086.39,1721.78 1088.00,1723.13 C1090.73,1725.50 1094.45,1731.42 1095.78,1734.56 C1098.02,1739.96 1100.17,1754.28 1100.14,1761.70 C1100.08,1769.00 1098.77,1781.00 1097.27,1789.53 C1095.37,1799.10 1092.30,1811.09 1090.15,1818.65 C1086.15,1831.82 1075.76,1859.67 1069.26,1874.45 C1064.54,1884.77 1050.90,1911.03 1041.46,1927.09 C1033.94,1939.62 1017.56,1963.54 1007.85,1976.97 C1002.75,1983.75 991.96,1997.33 986.24,2004.13 C980.97,2010.14 969.39,2023.16 965.33,2026.65 C963.07,2028.58 960.59,2029.96 959.61,2030.46 C957.39,2029.08 955.30,2027.12 952.46,2023.83 C947.20,2017.62 924.15,1984.07 914.60,1969.97 C897.20,1943.71 874.64,1909.29 870.22,1901.82" fill="none" stroke="rgb(172, 209, 241)" stroke-width="60.00" stroke-opacity="1.00" stroke-linejoin="round"/>
<path d="M709.58,1671.00 C709.48,1673.60 709.14,1675.25 708.32,1676.50 C707.42,1677.77 706.09,1678.38 704.90,1677.91 C701.50,1676.47 692.11,1666.84 686.38,1659.65 C681.84,1653.72 673.16,1641.41 669.03,1635.04 C661.58,1623.17 654.16,1606.36 653.34,1603.13 C652.93,1601.50 653.33,1599.74 654.39,1597.04 C657.26,1596.84 658.64,1597.00 660.27,1597.93 C667.72,1602.18 682.80,1611.59 685.58,1612.56 C687.15,1613.09 693.62,1613.43 695.89,1612.61 C698.13,1611.76 702.42,1607.63 703.32,1606.13 C704.67,1603.83 712.22,1582.47 713.44,1580.38 C714.65,1578.43 716.99,1576.77 718.15,1577.46 C720.23,1578.80 722.61,1584.88 723.32,1588.22 C725.25,1597.67 725.92,1611.54 725.53,1620.46 C725.34,1624.66 723.59,1641.95 722.51,1648.11 C721.09,1656.10 717.67,1668.57 715.07,1675.03 C714.18,1677.23 713.07,1678.80 711.21,1680.83 C709.28,1680.31 708.27,1679.73 707.21,1678.30 C703.30,1673.03 699.77,1666.20 699.29,1665.26" fill="none" stroke="rgb(255, 111, 0)" stroke-width="60.00" stroke-opacity="1.00" stroke-linejoin="round"/>
<path d="M668.50,1612.73 C668.50,1612.73 664.40,1608.25 664.40,1608.25 C664.40,1608.25 695.93,1652.94 695.93,1652.94 C695.93,1652.94 672.50,1619.95 672.50,1619.95 C672.50,1619.95 702.45,1665.72 702.45,1665.72 C702.45,1665.72 688.38,1634.65 688.38,1634.65 C688.38,1634.65 701.93,1655.72 701.93,1655.72 C701.93,1655.72 695.91,1631.35 695.91,1631.35 C697.61,1633.39 700.33,1639.46 701.92,1642.98 C702.83,1645.02 703.49,1645.88 704.77,1646.87 C704.77,1646.87 704.22,1636.22 704.22,1636.22 C704.22,1636.22 704.79,1646.16 704.79,1646.16 C705.50,1646.09 705.81,1645.46 706.17,1642.93 C707.48,1634.18 709.24,1622.32 710.00,1620.17 C710.00,1620.17 709.19,1631.98 709.19,1631.98 C709.19,1631.98 713.18,1612.35 713.18,1612.35 C713.18,1612.35 708.84,1629.02 708.84,1629.02 C708.00,1623.06 710.11,1618.45 710.93,1617.33 C710.93,1617.33 707.97,1650.49 707.97,1650.49 C708.73,1645.97 716.31,1612.48 717.49,1609.25 C718.28,1607.15 718.97,1606.16 719.57,1606.13 C720.39,1609.48 719.03,1626.03 718.32,1633.70 C717.19,1644.96 716.56,1649.72 716.36,1651.05 C716.33,1647.50 718.16,1630.09 718.97,1622.52 C719.38,1618.46 719.42,1612.38 718.65,1611.77 C717.79,1613.24 711.10,1636.43 710.08,1637.49 C709.98,1637.59 709.78,1637.66 709.50,1637.69 C709.26,1636.43 709.92,1628.99 710.30,1624.67 C710.64,1620.35 710.38,1616.01 709.34,1615.33 C708.08,1615.88 703.61,1620.67 701.84,1622.35 C696.03,1627.79 692.59,1627.63 691.85,1627.31 C692.41,1624.72 693.36,1623.14 695.55,1621.52 C697.74,1619.90 698.48,1619.28 698.58,1618.97 C698.73,1618.59 691.59,1618.14 690.82,1618.25 C690.34,1618.33 689.30,1618.57 687.68,1618.97 C687.68,1618.97 687.32,1620.59 687.32,1620.59 C690.23,1623.10 693.43,1623.80 694.28,1623.59 C694.28,1623.59 676.38,1610.86 676.38,1610.86 C676.38,1610.86 685.05,1614.14 685.05,1614.14 C682.75,1612.34 670.10,1605.47 669.79,1605.56 C669.58,1605.63 669.84,1606.31 670.54,1607.61" fill="none" stroke="rgb(255, 111, 0)" stroke-width="60.00" stroke-opacity="1.00" stroke-linejoin="round"/>
</g>
</svg>
