<?xml version="1.0" encoding="UTF-8" standalone="no"?>
<!DOCTYPE svg PUBLIC "-//W3C//DTD SVG 1.1//EN" "http://www.w3.org/Graphics/SVG/1.1/DTD/svg11.dtd">
<svg width="480.00" height="480.00" viewBox="0.00 0.00 2000.00 2000.00" xmlns="http://www.w3.org/2000/svg" xmlns:xlink="http://www.w3.org/1999/xlink">
<g stroke-linecap="round" id="Egg_stroke">
<path d="M1000.00,200.00 C713.71,210.15 419.48,595.25 405.88,1013.96 C386.82,1512.61 663.97,1780.41 1000.00,1800.00" fill="none" stroke="rgb(255, 111, 0)" stroke-width="23.40" stroke-opacity="1.00" stroke-linejoin="miter"/>
<path d="M1003.00,200.00 C1302.32,202.37 1594.66,627.50 1604.69,1015.85 C1633.21,1533.43 1346.17,1791.65 1003.00,1800.00" fill="none" stroke="rgb(255, 111, 0)" stroke-width="23.40" stroke-opacity="1.00" stroke-linejoin="miter"/>
<path d="M577.26,503.14 Q1009.88,544.91 1425.48,497.96" fill="none" stroke="rgb(255, 111, 0)" stroke-width="19.20" stroke-opacity="1.00" stroke-linejoin="round"/>
<path d="M493.38,661.24 Q1014.38,721.64 1510.89,654.38" fill="none" stroke="rgb(255, 111, 0)" stroke-width="19.20" stroke-opacity="1.00" stroke-linejoin="round"/>
<path d="M421.56,928.99 Q1021.38,1013.69 1589.06,930.87" fill="none" stroke="rgb(255, 111, 0)" stroke-width="19.20" stroke-opacity="1.00" stroke-linejoin="round"/>
<path d="M414.43,1094.98 Q1022.51,1181.83 1597.57,1096.62" fill="none" stroke="rgb(255, 111, 0)" stroke-width="19.20" stroke-opacity="1.00" stroke-linejoin="round"/>
<path d="M459.26,1364.65 Q1021.54,1443.45 1555.58,1374.98" fill="none" stroke="rgb(255, 111, 0)" stroke-width="19.20" stroke-opacity="1.00" stroke-linejoin="round"/>
<path d="M547.94,1543.19 Q1018.00,1599.56 1468.15,1552.19" fill="none" stroke="rgb(255, 111, 0)" stroke-width="19.20" stroke-opacity="1.00" stroke-linejoin="round"/>
</g>
</svg>
