<?xml version="1.0" encoding="UTF-8" standalone="no"?>
<!DOCTYPE svg PUBLIC "-//W3C//DTD SVG 1.1//EN" "http://www.w3.org/Graphics/SVG/1.1/DTD/svg11.dtd">
<svg width="480.00" height="480.00" viewBox="0.00 0.00 2000.00 2000.00" xmlns="http://www.w3.org/2000/svg" xmlns:xlink="http://www.w3.org/1999/xlink">
<g stroke-linecap="round" id="Egg_stroke">
<path d="M1000.00,1800.00 C1346.17,1791.65 1633.21,1533.43 1604.69,1015.85 C1594.66,627.50 1302.32,202.37 1003.00,200.00 C713.71,210.15 419.48,595.25 405.88,1013.96 C386.82,1512.61 663.97,1780.41 1000.00,1800.00 Z" fill="none" stroke="rgb(154, 219, 254)" stroke-width="23.40" stroke-opacity="1.00" stroke-linejoin="miter"/>
<path d="M715.23,467.00 C715.12,465.81 715.08,463.48 714.81,462.98 C714.01,461.62 711.43,460.04 709.43,459.74 C705.43,459.20 698.89,459.46 697.50,459.66 C692.80,460.38 673.41,467.00 664.55,470.31 C652.44,474.97 649.60,476.47 646.91,478.61 C649.18,478.24 653.11,476.40 657.29,473.72 C662.53,470.32 678.58,458.27 682.16,455.93 C686.55,453.08 687.65,452.84 688.24,453.20 C688.24,453.20 686.87,453.79 686.87,453.79 C686.87,453.79 687.39,451.91 687.39,451.91 C682.81,458.12 671.49,473.58 671.53,475.19 C671.56,475.80 672.66,481.33 672.12,483.20 C671.05,486.74 663.20,502.12 660.82,506.73 C663.62,507.33 668.65,505.62 673.48,502.92 C675.49,501.75 682.96,497.12 687.06,494.72 C691.33,492.25 694.94,490.75 698.77,489.74 C699.27,490.80 699.48,492.89 699.04,494.50 C698.72,495.63 693.85,503.77 691.98,507.03 C689.83,510.81 688.86,515.46 688.99,516.78 C689.99,517.71 692.20,518.75 694.03,518.92 C695.81,519.07 720.14,514.25 723.39,514.22 C724.79,514.22 727.79,514.55 728.88,514.68 C730.95,514.97 734.01,516.30 734.75,517.45 C735.09,518.02 734.76,520.99 734.67,522.45 C735.78,522.59 738.68,519.95 740.55,517.35 C743.29,513.49 746.60,508.55 748.55,505.24 C750.21,502.42 754.45,494.40 756.50,492.47 C758.81,490.37 765.53,488.11 768.10,488.30 C770.82,488.56 777.84,492.29 781.80,494.26 C783.48,495.09 789.34,497.83 790.36,498.30" fill="none" stroke="rgb(255, 255, 255)" stroke-width="80.00" stroke-opacity="0.48" stroke-linejoin="round"/>
<path d="M1201.17,1196.96 C1201.17,1196.96 1208.88,1195.19 1208.88,1195.19 C1202.30,1197.40 1187.96,1202.09 1180.85,1204.21 C1174.35,1206.00 1157.29,1210.06 1153.50,1210.63 C1149.63,1211.18 1146.04,1210.89 1141.59,1210.03 C1141.53,1206.54 1142.78,1202.31 1144.62,1199.88 C1146.96,1196.89 1161.26,1185.77 1168.16,1180.70 C1181.72,1171.05 1199.63,1158.93 1201.87,1156.64 C1193.73,1160.00 1181.82,1164.18 1175.34,1166.39 C1167.60,1168.91 1153.38,1172.47 1144.44,1174.11 C1129.31,1176.59 1106.05,1179.79 1103.46,1180.70 C1111.25,1179.94 1131.70,1178.14 1135.35,1178.26 C1137.68,1178.36 1170.75,1191.04 1173.87,1192.79 C1175.37,1193.68 1176.93,1195.68 1177.18,1197.13 C1177.52,1199.67 1173.24,1209.89 1172.75,1211.29 C1172.03,1213.36 1171.74,1214.93 1171.83,1215.85 C1173.71,1217.16 1176.13,1217.45 1182.13,1216.99 C1194.78,1215.65 1204.31,1214.09 1211.15,1211.81 C1217.16,1209.78 1228.92,1202.71 1234.25,1197.82 C1237.01,1195.25 1241.21,1189.96 1242.00,1187.51 C1242.43,1186.12 1242.81,1183.01 1242.82,1181.45 C1242.85,1179.62 1243.63,1178.51 1245.19,1178.05 C1246.83,1177.62 1253.00,1177.82 1257.03,1178.87 C1261.36,1180.06 1267.15,1183.59 1269.29,1186.46 C1270.11,1187.60 1271.42,1190.55 1271.77,1191.93 C1272.10,1193.43 1271.33,1195.51 1269.95,1197.15 C1269.38,1197.78 1262.43,1203.35 1259.50,1205.64 C1256.25,1208.26 1253.11,1211.54 1251.39,1214.09 C1250.18,1215.95 1248.86,1218.83 1248.46,1220.63 C1248.30,1221.44 1248.40,1225.24 1248.81,1225.96 C1249.55,1227.13 1252.52,1229.02 1254.39,1229.68 C1257.45,1230.70 1265.49,1232.45 1268.48,1233.10 C1268.48,1233.10 1266.38,1234.82 1266.38,1234.82" fill="none" stroke="rgb(255, 255, 255)" stroke-width="80.00" stroke-opacity="0.48" stroke-linejoin="round"/>
<path d="M719.44,1630.31 C716.27,1628.19 711.72,1626.73 706.55,1626.36 C703.57,1626.16 676.33,1625.77 675.04,1625.57 C675.94,1623.26 677.55,1621.61 681.69,1618.60 C688.42,1613.92 701.96,1604.24 708.59,1599.11 C717.63,1591.85 720.53,1588.57 721.89,1585.80 C721.89,1585.80 718.78,1582.89 718.78,1582.89 C720.63,1582.05 722.12,1581.77 723.94,1582.08 C725.58,1582.40 728.19,1583.29 728.99,1584.06 C730.86,1585.91 735.69,1595.59 736.36,1596.91 C738.15,1600.34 743.57,1606.42 744.31,1608.73 C744.87,1610.61 745.13,1613.59 744.88,1615.19 C744.34,1618.05 739.76,1623.92 736.28,1627.45 C734.81,1628.92 725.63,1637.82 724.97,1638.50 C723.12,1640.45 721.64,1642.46 721.37,1643.55 C721.17,1644.56 721.50,1647.01 721.98,1647.93 C723.24,1650.14 728.42,1653.64 732.74,1655.24 C737.01,1656.76 753.44,1657.41 761.39,1657.71 C770.71,1658.01 789.46,1658.63 791.32,1658.87 C785.27,1661.24 769.90,1667.32 765.29,1670.20 C762.26,1672.12 759.13,1674.70 757.65,1676.59 C754.71,1680.46 754.39,1682.23 754.62,1684.68 C757.05,1683.71 758.64,1682.73 759.59,1681.26 C761.46,1678.36 776.60,1639.98 778.63,1635.68 C780.38,1632.01 783.49,1627.98 784.97,1626.87 C786.60,1625.68 788.48,1624.74 791.40,1623.67 C793.39,1622.95 794.85,1623.02 797.50,1623.75 C795.05,1622.88 790.00,1620.35 784.33,1617.14 C778.84,1613.91 774.43,1610.81 773.66,1609.04 C773.24,1607.96 772.95,1605.70 773.23,1604.84 C773.89,1602.97 778.35,1599.45 781.71,1597.70 C787.06,1594.97 795.97,1592.91 806.89,1591.26 C818.30,1589.67 824.98,1588.57 828.90,1587.56 C828.90,1587.56 815.35,1584.30 815.35,1584.30" fill="none" stroke="rgb(255, 255, 255)" stroke-width="80.00" stroke-opacity="0.48" stroke-linejoin="round"/>
<path d="M955.04,1573.51 C955.04,1573.51 952.03,1571.57 952.03,1571.57" fill="none" stroke="rgb(255, 255, 255)" stroke-width="80.00" stroke-opacity="0.48" stroke-linejoin="round"/>
<path d="M1520.92,765.72 C1519.71,767.90 1518.52,774.50 1517.80,778.38 C1517.08,782.53 1515.67,790.80 1514.98,794.92 C1514.36,799.06 1513.27,802.13 1511.93,804.03 C1510.08,803.37 1507.75,800.26 1504.70,794.32 C1503.69,792.36 1501.56,788.29 1501.00,787.59 C1499.89,786.27 1498.08,785.52 1496.76,785.77 C1493.79,786.47 1485.76,794.77 1484.16,795.14 C1481.69,795.48 1475.71,797.89 1474.08,798.41 C1471.26,799.32 1463.14,800.97 1460.56,800.79 C1457.28,800.53 1449.86,797.35 1447.93,797.19 C1444.63,796.97 1436.68,799.12 1432.23,800.93 C1428.66,802.42 1423.96,804.39 1422.82,804.87 C1422.82,804.87 1425.81,803.33 1425.81,803.33 C1422.23,803.30 1410.20,799.29 1401.35,798.51 C1397.71,798.20 1380.93,797.32 1377.80,797.16 C1382.07,796.32 1385.59,795.38 1388.28,794.14 C1395.13,790.74 1405.77,787.10 1416.28,783.90 C1424.80,781.37 1444.26,775.28 1449.03,773.32 C1452.78,771.76 1459.46,767.41 1459.57,767.22 C1459.71,766.97 1459.84,766.39 1459.95,765.45 C1458.35,764.75 1455.11,763.58 1454.84,763.35 C1453.93,762.50 1454.35,760.71 1455.71,758.73 C1457.92,755.49 1462.69,748.70 1464.41,746.77 C1466.63,744.31 1472.64,740.11 1476.22,738.37 C1478.61,737.22 1486.41,734.31 1488.59,733.90 C1486.44,731.08 1484.65,728.28 1481.82,725.88 C1480.04,724.32 1478.75,721.85 1479.49,720.65 C1480.26,719.51 1483.25,717.76 1485.07,717.22 C1490.08,715.84 1504.20,713.14 1508.41,712.36 C1508.70,712.23 1499.98,711.63 1499.43,711.47 C1498.48,711.21 1497.22,710.41 1497.25,710.42 C1497.25,710.42 1520.17,685.19 1520.17,685.19" fill="none" stroke="rgb(255, 255, 255)" stroke-width="80.00" stroke-opacity="0.48" stroke-linejoin="round"/>
<path d="M1488.83,870.84 C1493.32,855.08 1501.44,826.65 1504.57,820.47 C1506.35,817.03 1510.06,812.68 1512.02,811.73 C1514.01,810.83 1518.27,811.70 1520.54,813.56 C1522.80,815.49 1527.56,822.24 1529.95,826.90 C1531.89,830.73 1545.86,863.19 1545.79,863.56 C1545.48,864.96 1543.08,865.91 1541.45,865.69 C1541.45,865.69 1542.70,866.09 1542.70,866.09" fill="none" stroke="rgb(255, 255, 255)" stroke-width="80.00" stroke-opacity="0.48" stroke-linejoin="round"/>
<path d="M1257.96,750.99 C1260.08,751.09 1265.23,749.19 1271.01,746.23 C1272.81,745.27 1275.81,743.67 1276.99,743.04 C1276.99,743.04 1259.74,741.04 1259.74,741.04" fill="none" stroke="rgb(255, 255, 255)" stroke-width="80.00" stroke-opacity="0.48" stroke-linejoin="round"/>
<path d="M700.51,973.98 C700.51,973.98 688.95,979.60 688.95,979.60 C692.37,980.69 698.21,981.73 702.27,981.84 C705.91,981.91 710.46,981.37 715.28,980.64 C707.06,981.45 662.87,983.64 655.42,983.20 C652.62,983.03 647.61,982.06 646.37,981.84 C646.37,981.84 646.25,979.22 646.25,979.22 C646.25,979.22 634.11,982.18 634.11,982.18 C636.63,980.85 656.81,974.73 660.62,972.81 C663.22,971.48 668.53,968.04 670.01,966.51 C671.33,965.12 674.62,959.70 676.03,957.08 C677.33,954.57 677.16,948.89 676.30,944.81 C675.12,939.69 673.92,933.80 673.77,931.39 C673.62,928.12 680.07,917.88 680.88,916.60 C668.64,926.13 644.44,942.08 629.87,951.06 C622.64,955.35 608.23,963.84 601.04,968.04 C592.01,973.49 588.58,976.11 584.81,979.40 C586.90,980.76 589.11,981.00 593.57,980.52 C624.07,977.01 634.17,976.35 653.18,975.68 C669.19,975.00 699.68,973.68 714.15,973.03 C717.98,972.88 723.03,973.06 725.35,974.59 C725.71,974.83 726.22,975.27 726.88,975.89 C726.47,977.59 725.37,982.09 724.96,983.27 C724.14,985.58 718.56,990.32 715.75,992.17 C711.67,994.84 695.48,1003.15 691.38,1006.82 C686.68,1011.10 680.87,1021.94 680.48,1024.31 C680.09,1027.01 682.35,1033.09 681.94,1034.83 C681.77,1035.48 680.63,1036.97 679.55,1038.13 C678.48,1039.20 675.62,1040.01 674.21,1039.45 C673.74,1039.25 673.17,1038.64 672.52,1037.59 C673.41,1035.59 674.28,1034.49 675.84,1033.82 C678.50,1032.68 693.93,1028.64 701.84,1026.78 C710.12,1025.05 726.06,1022.25 734.35,1021.02 C744.72,1019.71 756.56,1018.81 764.38,1019.31 C770.47,1019.72 777.45,1020.18 778.34,1020.24 C777.84,1018.24 777.90,1013.27 778.22,1008.85 C778.64,1003.38 779.75,996.87 781.31,994.47 C781.91,993.56 784.24,991.47 784.46,991.01 C785.17,989.50 784.83,987.47 783.65,985.68 C782.50,983.90 782.56,982.66 783.92,980.74 C785.23,978.96 786.98,975.76 787.66,974.82 C788.80,973.28 790.25,972.63 792.17,972.71 C797.54,973.06 808.41,972.64 814.21,972.30 C810.64,971.56 800.03,969.20 799.68,968.92 C799.33,968.64 798.84,967.87 798.21,966.61 C799.47,964.68 800.45,963.56 801.53,963.10 C804.20,962.00 819.61,961.96 831.28,962.41 C856.31,963.69 863.63,965.94 864.78,966.28 C860.04,967.08 856.88,967.30 853.59,966.67 C852.86,966.52 804.14,953.30 792.31,950.54 C773.33,946.49 752.17,944.05 746.67,943.30 C743.42,942.84 738.59,941.12 737.00,939.75 C736.13,938.99 732.66,934.49 731.68,934.16 C731.13,933.98 729.92,933.93 728.06,934.01" fill="none" stroke="rgb(255, 255, 255)" stroke-width="80.00" stroke-opacity="0.48" stroke-linejoin="round"/>
<path d="M959.96,1325.14 C959.65,1321.74 958.61,1311.72 958.29,1311.30 C958.02,1310.96 957.20,1310.45 955.85,1309.78 C953.29,1310.83 950.92,1312.74 947.55,1316.28 C934.36,1330.59 911.04,1352.99 901.54,1361.35 C890.45,1370.80 869.53,1386.63 852.56,1398.28 C845.05,1403.22 827.65,1414.54 827.47,1414.60 C827.13,1414.71 826.45,1414.77 825.42,1414.78 C829.11,1409.25 838.87,1400.04 844.32,1394.93 C851.29,1388.52 864.96,1375.15 869.28,1370.12 C873.45,1365.21 879.10,1355.69 880.13,1353.93 C879.76,1352.90 878.81,1350.02 878.36,1349.45 C877.43,1348.30 874.66,1347.09 872.74,1346.85 C869.08,1346.48 850.47,1347.52 844.76,1348.18 C837.08,1349.09 795.34,1358.07 778.31,1361.87 C762.75,1365.53 735.14,1372.70 720.07,1377.25 C736.69,1376.59 765.13,1373.34 779.71,1371.53 C814.04,1367.18 855.18,1362.13 862.00,1361.41 C866.72,1361.01 869.97,1361.12 873.17,1361.99 C873.04,1364.25 873.07,1367.34 873.46,1368.47 C873.94,1369.79 876.55,1371.20 880.02,1372.43 C883.04,1373.43 904.73,1380.07 908.52,1381.56 C913.92,1383.72 918.97,1388.30 922.44,1391.75 C922.14,1393.63 921.18,1396.44 920.15,1397.98 C918.45,1400.45 905.33,1405.65 894.32,1409.67 C867.46,1419.27 858.57,1422.88 853.31,1425.91 C858.15,1426.14 871.47,1424.34 877.25,1423.54 C911.08,1418.79 981.18,1408.96 1017.45,1403.88 C1040.56,1400.73 1047.27,1400.02 1059.09,1399.83 C1053.38,1401.63 1039.09,1406.16 1030.50,1408.90 C1019.70,1412.63 1009.78,1416.76 1007.04,1418.58 C1005.71,1419.48 1003.94,1421.49 1003.34,1422.67 C1002.78,1423.91 1002.51,1426.78 1002.88,1428.49 C1003.61,1431.66 1008.43,1439.38 1011.07,1441.47 C1014.94,1444.43 1026.93,1448.64 1029.10,1449.52 C1032.36,1450.89 1035.49,1454.73 1036.34,1456.42 C1033.84,1460.21 1031.56,1462.61 1027.96,1464.53 C1019.14,1469.28 991.45,1483.14 984.94,1486.46 C981.31,1488.33 976.80,1492.07 976.07,1494.21 C975.58,1495.86 976.02,1499.05 976.98,1500.58 C978.04,1502.17 984.55,1506.31 987.71,1507.72 C996.47,1511.42 1002.83,1515.29 1003.86,1516.74 C1004.81,1518.16 1005.26,1520.93 1004.84,1522.44 C1004.28,1524.20 1000.25,1527.11 996.03,1529.26 C984.16,1535.08 976.64,1539.04 974.90,1541.55 C974.11,1542.77 974.58,1545.90 975.51,1547.63 C976.53,1549.41 978.39,1551.49 980.02,1552.74 C982.92,1554.88 987.94,1556.91 993.29,1558.76 C1010.13,1564.27 1052.90,1578.21 1055.05,1579.27 C1056.73,1580.12 1058.41,1581.92 1059.34,1583.64 C1060.38,1585.56 1061.45,1586.64 1062.62,1586.67 C1062.95,1586.67 1063.61,1586.54 1064.59,1586.27 C1063.15,1583.69 1058.87,1576.40 1058.77,1575.96 C1058.38,1574.00 1062.04,1567.19 1064.86,1562.47 C1065.78,1560.96 1067.89,1557.48 1068.50,1556.55 C1069.76,1554.55 1069.97,1548.66 1069.54,1544.29 C1069.10,1540.34 1068.14,1531.25 1068.31,1529.69 C1068.38,1529.10 1071.34,1518.36 1071.97,1515.79 C1072.90,1511.91 1072.89,1505.90 1073.43,1504.66 C1073.97,1503.56 1075.47,1501.82 1076.55,1501.41 C1079.54,1500.35 1100.06,1498.45 1103.21,1499.07" fill="none" stroke="rgb(255, 255, 255)" stroke-width="80.00" stroke-opacity="0.48" stroke-linejoin="round"/>
<path d="M1148.58,393.38 C1146.62,392.84 1144.24,391.29 1143.29,390.89 C1141.42,390.11 1138.13,389.67 1136.43,389.90 C1129.45,390.99 1116.32,396.00 1104.78,401.04 C1097.38,404.39 1088.86,408.24 1087.75,408.75 C1089.67,406.69 1091.25,405.30 1093.68,403.55 C1096.10,401.82 1097.14,400.29 1097.76,397.88 C1091.68,398.12 1087.08,398.47 1083.82,399.22 C1080.88,399.92 1062.42,406.73 1055.24,409.45 C1045.18,413.12 1031.67,417.20 1028.78,416.38 C1028.47,416.29 1027.85,415.97 1026.91,415.41 C1027.44,414.30 1027.95,413.83 1029.41,413.23 C1045.36,406.57 1103.42,385.26 1103.83,384.91 C1105.23,383.66 1106.73,380.18 1106.61,378.48 C1106.39,376.29 1103.06,373.54 1100.46,372.61 C1097.69,371.65 1078.35,365.95 1077.57,365.55 C1075.75,364.59 1074.16,362.74 1074.01,361.37 C1073.86,359.15 1076.64,354.53 1079.46,351.16 C1080.70,349.64 1081.66,347.10 1081.39,345.67 C1081.22,344.81 1080.01,342.77 1080.28,340.99 C1080.38,340.32 1080.48,339.64 1080.58,338.96 C1080.99,340.03 1084.99,340.91 1088.18,340.20 C1103.76,336.49 1124.44,331.67 1132.31,330.91 C1136.77,330.47 1142.60,329.37 1144.45,327.95 C1145.67,326.96 1149.21,319.07 1149.10,316.78 C1149.02,315.79 1147.46,313.27 1146.53,312.73 C1144.28,311.53 1141.02,311.74 1139.81,313.25 C1139.58,313.55 1138.02,320.81 1137.02,326.31 C1136.31,330.23 1136.13,334.05 1136.94,337.26 C1137.34,338.73 1138.20,341.18 1138.73,341.90 C1140.74,344.56 1161.04,355.76 1163.74,358.03 C1166.14,360.09 1169.60,364.26 1171.96,367.73 C1173.57,370.04 1177.70,374.63 1180.34,375.67 C1182.71,376.57 1189.69,377.49 1191.10,377.67 C1188.13,380.64 1185.05,383.07 1180.80,385.18 C1179.29,385.92 1173.36,388.65 1172.67,388.94 C1170.36,389.96 1168.19,391.63 1167.77,393.06 C1167.45,394.20 1167.84,395.45 1167.58,396.61 C1167.44,397.28 1164.44,400.76 1163.61,401.66 C1162.11,403.30 1161.68,405.55 1162.63,406.84 C1162.93,407.23 1167.38,408.61 1169.12,409.38 C1158.94,417.95 1153.29,423.28 1152.41,425.25 C1151.91,426.48 1151.92,428.57 1152.56,429.31 C1152.70,429.47 1156.28,432.11 1156.63,432.91 C1157.02,433.80 1156.61,436.11 1156.11,437.67 C1158.29,438.63 1159.74,439.00 1161.31,438.74 C1164.43,438.20 1171.72,436.05 1175.02,435.05 C1175.02,435.05 1176.11,436.67 1176.11,436.67 C1178.93,435.97 1191.94,427.87 1197.80,423.41 C1200.12,421.66 1211.95,415.40 1214.03,413.76 C1215.88,412.21 1215.62,408.10 1214.86,406.37 C1215.69,405.05 1216.46,404.55 1218.60,404.18 C1222.34,403.45 1230.53,401.93 1234.31,401.47 C1239.50,400.87 1258.28,402.84 1262.15,399.76 C1262.42,399.54 1262.70,398.98 1262.98,398.07 C1257.75,395.17 1256.61,394.01 1255.77,392.25 C1255.77,392.25 1267.62,383.12 1267.62,383.12 C1262.74,382.16 1246.43,379.29 1238.95,378.04 C1222.68,375.08 1202.43,369.49 1200.67,368.73 C1199.12,368.03 1198.51,366.64 1199.12,365.47 C1200.25,363.53 1203.50,363.71 1204.87,363.93" fill="none" stroke="rgb(255, 255, 255)" stroke-width="80.00" stroke-opacity="1.00" stroke-linejoin="round"/>
<path d="M1604.82,1014.44 C1604.82,1014.44 1605.35,1013.55 1605.35,1013.55" fill="none" stroke="rgb(255, 255, 255)" stroke-width="80.00" stroke-opacity="1.00" stroke-linejoin="round"/>
<path d="M679.67,1168.11 C678.62,1167.05 675.97,1164.24 675.63,1163.92 C673.78,1162.25 670.66,1160.89 667.91,1160.52 C663.50,1159.99 646.73,1164.94 638.32,1167.15 C635.35,1167.88 626.61,1169.79 623.77,1170.40 C626.50,1169.22 635.34,1165.41 637.43,1164.46 C642.98,1161.85 647.98,1158.71 649.06,1156.75 C647.26,1154.38 643.42,1152.00 639.42,1151.14 C635.36,1150.31 614.61,1147.68 609.04,1146.08 C607.93,1145.76 604.06,1144.31 602.89,1143.88 C602.89,1143.88 613.53,1138.96 613.53,1138.96" fill="none" stroke="rgb(255, 255, 255)" stroke-width="80.00" stroke-opacity="1.00" stroke-linejoin="round"/>
<path d="M633.16,1119.01 C623.55,1120.69 615.09,1121.81 603.54,1122.99 C593.10,1123.83 580.27,1124.31 575.01,1123.92 C568.21,1123.40 553.89,1120.76 541.41,1118.01 C535.94,1116.73 535.54,1116.48 535.37,1115.65 C540.44,1114.93 552.25,1113.31 564.60,1112.76 C576.02,1112.44 607.15,1112.62 616.63,1112.71" fill="none" stroke="rgb(255, 255, 255)" stroke-width="80.00" stroke-opacity="1.00" stroke-linejoin="round"/>
<path d="M555.63,1124.17 C544.29,1125.31 536.15,1125.96 524.59,1126.38 C500.71,1126.83 493.23,1125.41 488.37,1123.85 C495.14,1120.91 503.90,1118.41 515.41,1115.71 C532.72,1111.97 554.12,1107.35 558.21,1106.48" fill="none" stroke="rgb(255, 255, 255)" stroke-width="80.00" stroke-opacity="1.00" stroke-linejoin="round"/>
<path d="M630.57,1111.25 C637.08,1111.19 652.97,1110.98 661.87,1110.64 C671.34,1110.15 687.70,1108.00 694.62,1107.16 C701.83,1106.38 712.88,1106.37 721.37,1104.88 C736.84,1101.75 779.68,1093.59 780.73,1093.29 C777.95,1093.35 769.86,1093.54 766.61,1094.00 C759.61,1095.03 745.34,1100.60 739.64,1103.63 C735.68,1105.75 729.58,1109.88 727.18,1112.14 C724.58,1114.66 722.11,1119.06 720.08,1124.14 C718.70,1127.44 715.97,1132.12 714.62,1134.33 C713.63,1136.20 713.51,1138.73 714.36,1141.04 C714.79,1142.16 721.02,1151.44 722.36,1154.66 C723.73,1158.05 724.58,1165.07 724.75,1167.65 C724.97,1170.43 725.33,1172.00 726.27,1172.76 C727.18,1173.48 730.20,1175.01 732.49,1176.06" fill="none" stroke="rgb(255, 255, 255)" stroke-width="80.00" stroke-opacity="1.00" stroke-linejoin="round"/>
<path d="M669.34,1077.66 C643.13,1077.74 638.98,1077.19 635.06,1076.43 C638.89,1072.20 648.61,1066.34 657.23,1061.61 C666.53,1056.71 672.48,1054.74 673.48,1054.40" fill="none" stroke="rgb(255, 255, 255)" stroke-width="80.00" stroke-opacity="1.00" stroke-linejoin="round"/>
<path d="M1344.23,1603.90 C1344.23,1603.90 1387.13,1617.26 1387.13,1617.26 C1385.96,1616.78 1383.46,1616.11 1381.37,1615.81 C1379.69,1615.57 1371.19,1615.25 1369.65,1615.19" fill="none" stroke="rgb(255, 255, 255)" stroke-width="80.00" stroke-opacity="1.00" stroke-linejoin="round"/>
<path d="M1333.50,1620.36 C1336.85,1614.79 1347.22,1603.39 1352.51,1597.62 C1358.10,1591.64 1365.44,1583.80 1367.18,1581.93" fill="none" stroke="rgb(255, 255, 255)" stroke-width="80.00" stroke-opacity="1.00" stroke-linejoin="round"/>
<path d="M1398.11,1558.34 C1398.11,1558.34 1412.67,1576.97 1412.67,1576.97" fill="none" stroke="rgb(255, 255, 255)" stroke-width="80.00" stroke-opacity="1.00" stroke-linejoin="round"/>
<path d="M1320.58,1579.01 C1312.88,1579.91 1298.84,1583.18 1294.98,1584.35 C1286.73,1586.85 1258.41,1597.81 1252.91,1599.97 C1255.00,1598.23 1260.68,1593.52 1262.91,1591.38 C1266.03,1588.33 1268.00,1584.93 1269.64,1580.61" fill="none" stroke="rgb(255, 255, 255)" stroke-width="80.00" stroke-opacity="1.00" stroke-linejoin="round"/>
<path d="M1271.48,1566.09 C1272.11,1564.44 1273.55,1561.20 1273.53,1560.71 C1273.43,1559.36 1271.65,1558.60 1269.58,1558.82 C1269.11,1558.88 1265.17,1559.21 1264.06,1559.31" fill="none" stroke="rgb(255, 255, 255)" stroke-width="80.00" stroke-opacity="1.00" stroke-linejoin="round"/>
<path d="M620.51,586.04 C618.74,580.04 616.76,573.90 614.87,571.63 C614.59,571.30 614.16,570.94 613.57,570.54 C612.21,571.06 609.94,572.35 608.88,573.37 C608.24,573.99 582.94,610.65 572.77,625.43 C557.29,647.13 548.79,656.77 548.75,656.83 C547.84,657.93 547.32,658.10 546.28,657.80 C551.34,643.92 560.63,618.84 560.62,618.79 C560.53,618.47 560.15,617.71 559.46,616.50 C550.39,624.31 544.09,630.68 543.64,630.90 C543.25,631.08 542.29,631.33 540.78,631.64 C540.78,631.64 540.60,629.21 540.60,629.21 C541.83,630.67 542.93,631.48 544.11,631.31 C546.22,630.97 562.87,622.23 567.95,621.60 C569.39,621.46 572.10,622.11 573.24,622.95 C575.24,624.49 577.82,630.28 578.93,634.90 C579.34,636.51 580.67,639.73 581.54,640.37 C583.16,641.49 591.95,641.06 594.52,640.83 C600.17,640.35 606.88,640.72 610.17,641.76 C614.26,643.13 618.51,646.53 622.29,650.75 C624.74,653.50 629.10,657.52 631.65,657.91 C633.09,658.12 635.26,658.26 637.06,658.31 C637.06,658.31 632.13,661.96 632.13,661.96 C632.37,664.14 633.01,665.36 634.68,666.06 C637.64,667.28 643.99,668.31 646.81,668.40 C650.06,668.49 657.10,667.78 660.66,666.92 C665.17,665.78 669.39,663.16 671.66,660.43 C671.54,659.03 670.42,656.66 668.86,654.94 C668.36,654.39 662.49,650.23 656.66,646.44 C651.92,643.25 646.48,638.87 646.40,636.80 C646.39,635.63 647.58,632.88 648.50,631.75 C650.03,629.98 656.22,627.85 661.81,626.39 C670.16,624.37 683.52,621.14 688.54,619.92 C686.69,625.30 684.66,630.14 682.67,633.18 C679.60,637.64 677.64,641.96 677.38,645.58 C677.21,648.79 678.32,656.76 679.02,658.53 C679.88,660.57 681.62,662.85 683.27,664.06 C685.79,665.82 691.71,667.49 696.87,667.74 C699.08,667.83 719.42,667.49 726.32,668.03 C734.59,668.71 744.42,670.98 748.45,672.31 C751.35,673.30 755.61,678.16 757.22,679.28 C761.99,682.55 763.88,683.35 765.52,683.72" fill="none" stroke="rgb(255, 255, 255)" stroke-width="80.00" stroke-opacity="1.00" stroke-linejoin="round"/>
<path d="M864.70,669.35 C864.70,669.35 855.40,669.35 855.40,669.35" fill="none" stroke="rgb(255, 255, 255)" stroke-width="80.00" stroke-opacity="1.00" stroke-linejoin="round"/>
<path d="M1314.16,1039.46 C1313.48,1038.67 1313.03,1036.78 1313.42,1035.20 C1313.87,1033.49 1323.25,1017.39 1324.92,1014.52 C1323.67,1013.12 1322.80,1012.94 1320.71,1013.98 C1319.68,1014.49 1293.59,1026.53 1290.87,1027.24 C1288.59,1027.80 1282.54,1026.28 1279.22,1024.77 C1272.93,1021.68 1259.88,1015.46 1253.76,1014.12 C1246.74,1012.63 1228.17,1011.97 1223.89,1013.59 C1222.30,1014.23 1220.67,1016.40 1220.25,1018.15 C1219.00,1023.81 1218.16,1025.73 1215.78,1027.80 C1215.37,1028.16 1214.49,1028.99 1213.15,1030.31 C1215.00,1031.90 1216.07,1032.53 1217.76,1032.82 C1223.64,1033.81 1250.10,1029.62 1251.25,1029.44 C1251.25,1029.44 1247.48,1031.13 1247.48,1031.13 C1247.75,1028.56 1250.48,1022.56 1252.06,1019.02 C1253.91,1015.03 1257.66,1007.31 1259.37,1004.71 C1260.66,1002.79 1264.80,999.90 1267.71,998.70 C1270.13,997.71 1276.63,995.79 1278.89,994.64 C1284.78,991.58 1290.71,985.35 1291.79,984.10 C1291.79,984.10 1267.88,1008.77 1267.88,1008.77 C1273.60,1011.31 1278.62,1013.87 1281.36,1016.37 C1282.23,1017.17 1288.55,1022.73 1291.28,1024.13 C1294.94,1025.96 1315.17,1032.55 1318.91,1033.92 C1322.67,1035.30 1329.21,1038.26 1332.29,1040.13 C1335.41,1042.05 1339.65,1045.56 1341.98,1048.63 C1343.09,1050.11 1343.63,1051.53 1344.35,1054.45 C1337.92,1056.58 1322.69,1058.85 1314.89,1059.95 C1311.31,1060.45 1301.93,1061.83 1298.94,1062.40 C1295.24,1063.12 1291.52,1065.11 1289.81,1066.92 C1292.46,1068.90 1295.06,1069.93 1300.32,1071.29 C1316.99,1075.29 1356.84,1084.70 1361.90,1085.69 C1363.54,1086.01 1364.91,1086.73 1367.38,1088.41 C1363.11,1090.89 1359.26,1092.77 1355.71,1093.64 C1352.77,1094.33 1331.02,1097.36 1327.89,1097.88 C1321.19,1099.02 1311.00,1101.86 1309.82,1102.19 C1313.17,1104.67 1316.11,1106.70 1319.05,1108.19 C1322.65,1109.99 1328.70,1112.02 1332.59,1112.79 C1336.58,1113.56 1344.13,1114.57 1348.06,1114.73 C1352.10,1114.88 1360.18,1114.20 1364.08,1113.47 C1367.79,1112.76 1374.84,1110.37 1377.52,1108.36 C1379.65,1106.71 1383.83,1100.11 1385.32,1097.15 C1386.78,1094.13 1389.85,1088.05 1391.69,1085.93 C1394.19,1083.14 1400.13,1080.12 1404.03,1079.59 C1407.39,1079.18 1434.09,1082.12 1435.22,1082.21 C1435.47,1080.86 1435.08,1080.18 1433.17,1079.09 C1421.25,1072.00 1411.86,1065.94 1407.59,1060.71 C1405.35,1057.91 1402.33,1052.68 1400.77,1049.15 C1399.47,1046.16 1397.81,1039.81 1397.83,1035.94 C1397.85,1033.75 1398.95,1024.02 1399.01,1021.65 C1399.03,1019.56 1398.73,1016.36 1398.29,1015.29 C1397.73,1014.03 1395.63,1012.10 1394.05,1011.37 C1393.21,1010.99 1387.45,1008.88 1385.95,1007.90 C1387.94,1006.81 1394.04,1005.23 1400.14,1004.06 C1404.63,1003.25 1412.29,1001.64 1414.56,1000.03 C1414.92,999.76 1415.35,999.32 1415.83,998.72 C1414.62,996.69 1411.52,994.37 1406.14,991.32 C1393.58,984.50 1386.26,979.90 1386.05,978.63 C1386.00,978.23 1386.06,977.21 1386.26,975.56 C1401.29,973.25 1427.33,969.32 1430.07,969.42 C1431.31,969.51 1433.93,970.25 1435.19,970.95 C1436.82,971.91 1438.13,974.13 1438.59,976.59 C1438.99,978.87 1439.40,984.88 1438.63,988.84 C1438.35,990.26 1435.31,1002.72 1434.91,1004.45 C1433.85,1009.13 1432.74,1016.97 1433.00,1020.10 C1433.30,1023.32 1435.26,1029.41 1437.47,1033.74 C1439.62,1037.90 1442.99,1043.57 1444.07,1044.96 C1446.29,1047.76 1461.94,1056.86 1468.68,1060.63 C1476.38,1065.05 1487.37,1072.93 1493.48,1078.96 C1494.74,1080.22 1495.65,1081.79 1495.35,1082.72 C1494.81,1084.18 1486.54,1089.56 1483.26,1091.93 C1481.38,1093.32 1479.75,1095.75 1479.66,1097.37 C1479.62,1098.27 1480.12,1099.15 1480.01,1100.03 C1479.90,1100.96 1478.34,1103.20 1477.19,1104.57 C1479.40,1106.21 1482.07,1107.02 1487.31,1107.74 C1510.48,1110.53 1523.80,1113.82 1526.56,1114.50 C1526.56,1114.50 1518.51,1117.14 1518.51,1117.14 C1524.93,1119.55 1537.11,1123.94 1545.21,1125.43 C1549.05,1126.11 1556.12,1127.60 1559.08,1129.26 C1559.57,1129.54 1560.13,1129.98 1560.75,1130.58" fill="none" stroke="rgb(255, 255, 255)" stroke-width="80.00" stroke-opacity="1.00" stroke-linejoin="round"/>
<path d="M1130.88,1499.07 C1130.88,1499.07 1118.34,1496.85 1118.34,1496.85" fill="none" stroke="rgb(255, 255, 255)" stroke-width="80.00" stroke-opacity="1.00" stroke-linejoin="round"/>
<path d="M1375.09,480.91 C1373.59,481.10 1372.50,480.70 1371.05,479.24 C1370.50,478.68 1369.94,478.13 1369.39,477.57" fill="none" stroke="rgb(255, 255, 255)" stroke-width="80.00" stroke-opacity="1.00" stroke-linejoin="round"/>
<path d="M1409.39,1238.35 C1409.39,1238.35 1389.87,1231.51 1389.87,1231.51 C1403.00,1231.68 1434.80,1232.16 1451.33,1232.68 C1473.21,1233.71 1492.57,1236.36 1498.74,1237.23 C1491.01,1232.09 1478.35,1221.09 1477.45,1219.25 C1476.67,1217.51 1476.97,1215.22 1478.23,1213.78 C1479.32,1212.61 1482.04,1210.54 1483.31,1209.99 C1486.23,1208.79 1492.97,1208.74 1496.51,1209.49 C1499.50,1210.16 1506.35,1213.05 1508.72,1214.59 C1511.39,1216.37 1516.18,1221.29 1517.32,1223.68 C1518.36,1226.00 1518.39,1232.07 1517.70,1237.98 C1517.45,1240.13 1516.97,1244.58 1517.01,1245.54 C1517.05,1246.45 1517.80,1251.17 1517.82,1251.96 C1517.84,1253.24 1515.84,1264.90 1515.70,1265.41 C1515.44,1266.41 1514.85,1269.35 1515.51,1270.61 C1515.52,1270.63 1521.54,1278.78 1522.08,1281.43 C1522.36,1283.14 1521.30,1285.07 1519.56,1286.12 C1517.12,1287.52 1498.25,1292.29 1490.41,1294.67 C1488.36,1295.27 1486.16,1296.93 1485.81,1298.54 C1485.61,1299.57 1486.74,1303.03 1487.53,1304.87 C1488.53,1307.01 1490.33,1308.90 1492.81,1310.43 C1495.58,1312.10 1516.26,1318.57 1520.43,1320.99 C1521.96,1321.90 1523.07,1323.61 1523.44,1324.18 C1524.51,1325.84 1528.69,1326.62 1533.31,1327.29 C1538.83,1295.74 1545.37,1257.57 1546.39,1250.96 C1547.10,1246.34 1547.16,1240.10 1546.00,1236.39 C1545.26,1234.12 1542.39,1221.98 1542.14,1220.86 C1542.14,1220.86 1546.11,1225.05 1546.11,1225.05" fill="none" stroke="rgb(255, 255, 255)" stroke-width="80.00" stroke-opacity="1.00" stroke-linejoin="round"/>
<path d="M527.66,677.58 C556.17,681.04 619.78,688.37 654.42,691.58 C670.61,692.74 700.51,694.72 714.23,695.53 C729.80,696.27 760.15,696.87 774.27,696.97 C789.61,696.80 821.33,696.21 837.72,695.80 C852.84,695.11 883.54,693.48 899.12,692.54 C914.34,691.39 945.20,688.88 960.84,687.52 C976.11,686.00 1006.90,682.78 1022.41,681.08 C1053.45,677.16 1113.04,669.12 1141.59,665.01 C1172.95,659.71 1234.29,648.92 1264.27,643.43 C1296.81,637.18 1365.04,623.45 1400.73,615.97 C1415.39,612.72 1438.37,607.64 1446.69,605.80" fill="none" stroke="rgb(255, 255, 255)" stroke-width="80.00" stroke-opacity="1.00" stroke-linejoin="round"/>
<path d="M471.88,1276.75 C483.50,1278.62 512.63,1283.16 530.15,1285.84 C547.83,1288.15 576.12,1290.97 590.34,1292.24 C605.14,1293.24 638.83,1294.47 656.12,1294.91 C670.81,1294.96 701.81,1294.86 718.12,1294.71 C735.26,1294.38 768.83,1293.59 785.27,1293.12 C801.29,1292.50 833.18,1291.05 849.05,1290.23 C879.44,1288.28 943.21,1282.83 975.45,1279.38 C1009.62,1275.22 1074.23,1267.00 1104.66,1262.94 C1121.95,1260.37 1155.36,1255.15 1168.42,1252.79 C1195.29,1247.71 1256.70,1234.85 1288.19,1228.12 C1300.78,1225.48 1327.05,1220.00 1340.57,1216.24 C1354.89,1211.95 1391.92,1199.34 1406.41,1194.23 C1423.40,1187.99 1464.31,1172.78 1477.01,1168.50 C1485.25,1165.92 1501.46,1161.47 1507.26,1160.29 C1513.91,1158.94 1527.32,1157.41 1530.29,1157.65 C1532.54,1157.86 1537.14,1158.86 1539.17,1159.65 C1541.11,1160.42 1544.47,1162.48 1545.90,1163.75 C1547.30,1165.06 1549.59,1168.16 1550.48,1169.97 C1552.24,1173.68 1555.17,1193.63 1556.15,1200.26 C1556.34,1201.49 1556.69,1203.77 1556.85,1204.82 C1556.85,1204.82 1547.95,1149.58 1547.95,1149.58" fill="none" stroke="rgb(255, 255, 255)" stroke-width="80.00" stroke-opacity="1.00" stroke-linejoin="round"/>
<path d="M691.82,1705.18 C718.99,1711.25 784.57,1725.89 822.98,1734.47 C836.56,1737.50 855.21,1741.67 860.27,1742.80 C870.25,1742.52 902.91,1742.47 917.70,1742.52 C934.87,1742.34 966.40,1740.14 981.72,1738.49 C997.31,1736.47 1028.50,1732.18 1044.11,1729.90 C1075.29,1724.75 1133.74,1714.62 1164.05,1708.62 C1198.20,1701.13 1262.20,1686.81 1292.05,1679.99 C1292.76,1679.83 1293.46,1679.67 1294.17,1679.50" fill="none" stroke="rgb(255, 255, 255)" stroke-width="80.00" stroke-opacity="1.00" stroke-linejoin="round"/>
<path d="M1425.02,1603.06 C1425.02,1603.06 1426.57,1600.56 1426.57,1600.56" fill="none" stroke="rgb(255, 255, 255)" stroke-width="80.00" stroke-opacity="1.00" stroke-linejoin="round"/>
<path d="M1000.00,1800.00 C1346.17,1791.65 1633.21,1533.43 1604.69,1015.85 C1594.66,627.50 1302.32,202.37 1003.00,200.00 C713.71,210.15 419.48,595.25 405.88,1013.96 C386.82,1512.61 663.97,1780.41 1000.00,1800.00 Z" fill="none" stroke="rgb(241, 162, 176)" stroke-width="23.40" stroke-opacity="1.00" stroke-linejoin="miter"/>
</g>
</svg>
