<?xml version="1.0" encoding="UTF-8" standalone="no"?>
<!DOCTYPE svg PUBLIC "-//W3C//DTD SVG 1.1//EN" "http://www.w3.org/Graphics/SVG/1.1/DTD/svg11.dtd">
<svg width="480.00" height="480.00" viewBox="0.00 0.00 2000.00 2000.00" xmlns="http://www.w3.org/2000/svg" xmlns:xlink="http://www.w3.org/1999/xlink">
<g stroke-linecap="round" id="Egg-object">
<path d="M1472.03,557.74 Q1517.39,658.02 1510.89,654.38 Q1014.38,721.64 481.45,661.24 Q486.95,665.01 540.19,547.01 Q569.49,506.89 577.26,503.14 Q1009.88,544.91 1425.48,497.96 Q1433.24,501.59 1472.03,557.74 Z" fill="none" stroke="rgb(255, 255, 255)" stroke-width="19.20" stroke-opacity="1.00" stroke-linejoin="round"/>
<path d="M1601.70,1011.94 Q1602.10,1091.41 1597.57,1096.62 Q1022.51,1181.83 414.43,1094.98 Q410.24,1090.27 406.05,1013.11 Q405.61,1005.07 405.87,1000.36 Q406.13,995.64 407.29,993.61 Q418.15,924.54 421.56,928.99 Q1021.38,1013.69 1589.06,930.87 Q1592.76,925.99 1601.70,1011.94 Z" fill="none" stroke="rgb(255, 255, 255)" stroke-width="19.20" stroke-opacity="1.00" stroke-linejoin="round"/>
<path d="M1532.56,1459.93 Q1530.50,1466.34 1528.41,1470.30 Q1526.32,1474.26 1526.25,1474.96 Q1476.56,1547.19 1468.15,1552.19 Q1018.00,1599.56 547.94,1543.19 Q539.18,1537.87 493.24,1464.10 Q490.33,1459.42 488.22,1456.28 Q486.12,1453.14 484.02,1448.95 Q453.41,1359.74 459.26,1364.65 Q1021.54,1443.45 1555.58,1374.98 Q1561.56,1369.97 1532.56,1459.93 Z" fill="none" stroke="rgb(255, 255, 255)" stroke-width="19.20" stroke-opacity="1.00" stroke-linejoin="round"/>
<path d="M-96.69,707.87 C-96.69,707.87 -99.08,707.87 -99.08,707.87" fill="none" stroke="rgb(255, 111, 0)" stroke-width="19.20" stroke-opacity="1.00" stroke-linejoin="round"/>
<path d="M-99.08,707.87 C-100.35,707.04 -103.85,704.76 -104.41,704.54 C-104.77,704.40 -105.26,704.37 -105.86,704.44 C-105.86,704.44 -105.05,709.06 -105.05,709.06" fill="none" stroke="rgb(255, 111, 0)" stroke-width="19.20" stroke-opacity="1.00" stroke-linejoin="round"/>
<path d="M1000.00,1800.00 C1346.17,1791.65 1633.21,1533.43 1604.69,1015.85 C1594.66,627.50 1302.32,202.37 1003.00,200.00 C713.71,210.15 419.48,595.25 405.88,1013.96 C386.82,1512.61 663.97,1780.41 1000.00,1800.00 Z" fill="none" stroke="rgb(241, 162, 176)" stroke-width="23.40" stroke-opacity="1.00" stroke-linejoin="miter"/>
<path d="M708.90,483.88 C711.71,484.30 717.46,487.71 719.48,490.42 C721.66,493.46 723.66,499.70 723.76,503.79 C723.80,507.50 721.53,514.96 719.74,517.71 C717.90,520.42 712.30,524.81 709.23,525.65 C705.83,526.51 700.20,525.73 697.17,523.97 C694.45,522.32 690.26,516.57 689.23,513.46 C688.25,510.33 688.11,502.53 689.16,498.98 C690.38,495.07 694.01,489.61 696.93,487.28 C699.61,485.23 706.08,483.52 708.90,483.88 Z" fill="none" stroke="rgb(255, 255, 255)" stroke-width="43.00" stroke-opacity="0.48" stroke-linejoin="round"/>
<path d="M827.72,307.99 C828.90,306.39 831.61,304.06 833.26,303.27 C836.32,301.90 844.21,302.06 848.33,302.68 C848.70,302.74 853.04,303.65 853.89,304.02 C856.41,305.14 858.07,306.88 858.97,309.22 C859.44,310.43 859.87,311.08 860.26,311.18 C861.08,311.34 863.87,309.65 865.15,308.41 C868.03,305.49 875.37,296.00 877.05,295.09 C878.34,294.44 880.11,295.62 880.66,297.17 C881.23,298.98 880.68,312.95 879.52,325.38 C878.26,336.36 875.24,357.26 873.59,363.90 C872.77,367.17 870.78,372.75 870.17,373.63 C869.06,375.14 867.05,376.29 865.86,375.84 C864.71,375.33 862.31,372.39 861.10,370.01 C858.73,364.83 854.51,355.85 852.76,353.24 C851.93,352.07 850.41,351.01 849.78,351.31 C849.08,351.73 848.78,353.60 848.52,357.85 C848.28,361.34 847.10,365.44 845.54,367.33 C844.12,368.98 840.92,371.20 839.38,371.79 C835.93,372.97 830.06,374.00 826.04,374.15 C818.27,374.39 800.12,372.41 792.97,370.24 C788.33,368.81 779.91,364.50 777.13,362.16 C775.82,361.01 774.08,358.70 773.68,357.56 C773.31,356.41 773.53,354.22 774.12,353.11 C774.76,352.03 776.99,349.86 778.47,348.91 C779.53,348.24 789.76,342.63 793.48,339.58 C797.01,336.63 803.49,329.32 806.06,325.29 C806.71,324.26 810.31,318.08 811.01,317.04 C812.04,315.55 814.01,313.72 814.83,313.48 C815.62,313.32 817.04,314.35 817.62,315.49 C819.30,319.05 820.41,339.22 820.76,340.92 C820.91,341.60 821.20,341.57 821.33,340.90 C821.62,339.29 822.27,330.28 822.62,325.06 C823.14,319.51 825.75,310.80 827.72,307.99 Z" fill="none" stroke="rgb(255, 255, 255)" stroke-width="52.00" stroke-opacity="0.48" stroke-linejoin="round"/>
<path d="M484.86,863.96 C487.61,860.57 492.86,856.41 495.90,855.19 C498.85,854.06 506.53,853.28 511.08,853.63 C517.69,854.18 535.26,858.86 543.84,861.99 C548.63,863.75 555.74,867.42 558.51,869.54 C561.15,871.61 564.99,876.52 565.92,879.53 C566.83,882.64 566.17,889.71 564.64,893.32 C564.07,894.62 558.99,904.58 557.83,908.47 C556.79,912.07 556.12,919.35 556.59,923.04 C557.12,926.91 560.26,933.97 563.19,937.85 C566.58,942.22 568.94,945.71 570.86,949.16 C571.61,950.59 572.06,953.16 571.52,954.27 C570.84,955.56 561.92,958.56 558.24,959.17 C552.24,960.12 548.72,960.08 545.88,959.09 C543.90,958.37 538.42,955.33 534.67,953.09 C531.69,951.27 524.55,946.83 522.38,944.30 C519.52,940.86 515.94,931.85 514.83,926.92 C513.01,918.45 511.82,895.99 512.51,886.61 C512.82,882.72 513.98,878.98 514.81,879.24 C516.24,879.83 519.98,889.98 522.75,900.40 C526.82,917.06 530.00,934.24 529.82,941.18 C529.71,944.59 528.39,949.33 527.16,950.74 C525.85,952.16 522.19,952.68 519.72,951.80 C517.22,950.87 510.96,946.68 507.27,943.49 C499.76,936.91 486.00,921.48 481.66,914.75 C479.29,911.02 475.50,903.20 474.45,899.04 C473.39,894.62 473.66,886.63 475.04,882.52 C477.49,875.43 482.98,866.33 484.86,863.96 Z" fill="none" stroke="rgb(255, 255, 255)" stroke-width="52.60" stroke-opacity="0.48" stroke-linejoin="round"/>
<path d="M705.09,754.03 C706.68,753.82 710.32,754.35 711.57,754.96 C712.78,755.60 714.58,757.85 714.76,758.95 C714.89,760.07 713.79,762.72 712.79,763.67 C711.76,764.61 708.41,766.11 706.82,766.35 C705.23,766.56 701.59,766.04 700.34,765.42 C699.13,764.78 697.33,762.54 697.15,761.43 C697.02,760.31 698.13,757.66 699.12,756.71 C700.15,755.78 703.50,754.27 705.09,754.03 Z" fill="none" stroke="rgb(255, 255, 255)" stroke-width="43.00" stroke-opacity="0.48" stroke-linejoin="round"/>
<path d="M796.21,1115.08 C798.60,1114.17 801.77,1114.58 803.47,1116.05 C804.26,1116.77 805.82,1120.51 806.28,1121.54 C807.23,1123.66 809.11,1125.76 811.09,1126.84 C812.59,1127.61 816.37,1128.55 818.36,1128.70 C819.87,1128.83 825.01,1129.48 826.43,1130.68 C827.72,1131.82 829.18,1134.91 829.43,1136.68 C829.98,1141.61 826.00,1163.68 826.72,1169.97 C826.96,1172.00 828.45,1175.13 828.75,1176.04 C829.57,1178.60 827.42,1185.19 825.24,1188.98 C823.32,1192.24 817.73,1199.90 815.48,1202.35 C812.71,1205.27 809.66,1206.53 808.63,1206.10 C808.32,1205.96 803.66,1196.74 800.97,1194.66 C800.79,1194.52 796.24,1191.76 795.15,1190.62 C792.53,1187.87 787.74,1178.88 786.19,1175.58 C783.52,1169.80 781.24,1162.64 781.35,1159.46 C781.47,1157.92 782.74,1155.39 783.97,1154.46 C785.37,1153.47 788.63,1152.95 792.08,1152.96 C795.69,1152.98 798.67,1152.59 799.93,1151.74 C800.99,1150.97 802.00,1148.73 801.97,1147.46 C801.87,1146.11 800.97,1143.10 800.14,1141.40 C799.47,1140.06 794.26,1131.24 792.26,1126.90 C791.47,1125.12 790.62,1120.83 791.05,1119.29 C791.36,1118.28 795.28,1115.48 796.21,1115.08 Z" fill="none" stroke="rgb(255, 255, 255)" stroke-width="43.00" stroke-opacity="0.48" stroke-linejoin="round"/>
<path d="M517.87,1295.82 C517.95,1297.36 517.76,1298.52 517.29,1299.31 C516.70,1300.24 515.61,1300.92 514.00,1301.36 C512.27,1301.83 506.34,1302.85 505.56,1304.02 C504.95,1304.99 505.44,1307.66 506.17,1308.81 C509.22,1313.21 523.44,1324.43 529.87,1329.57 C532.64,1331.81 535.39,1338.74 536.23,1339.54 C542.58,1345.48 554.32,1359.64 555.84,1362.87 C556.51,1364.36 557.27,1367.64 557.16,1368.91 C556.98,1370.49 555.49,1373.54 554.20,1374.89 C552.90,1376.21 549.21,1378.69 547.45,1379.47 C545.78,1380.17 542.95,1380.53 541.75,1380.22 C540.78,1379.92 538.96,1378.33 538.32,1377.29 C537.60,1376.08 536.53,1372.40 536.10,1371.33 C535.43,1369.71 532.90,1366.39 531.17,1364.93 C528.15,1362.43 520.72,1358.36 517.19,1356.86 C512.45,1354.87 491.14,1348.00 485.48,1344.67 C484.03,1343.79 481.66,1341.70 480.77,1340.41 C479.90,1339.08 479.61,1336.21 480.18,1334.85 C480.62,1333.84 482.56,1330.55 483.01,1328.74 C483.74,1325.71 482.85,1318.16 481.81,1314.82 C480.67,1311.31 475.76,1301.46 475.19,1300.21 C473.58,1296.63 471.93,1289.40 472.05,1286.58 C472.17,1284.72 473.00,1281.21 473.75,1279.54 C474.51,1277.92 476.71,1274.83 478.05,1273.50 C479.50,1272.11 482.45,1270.30 484.09,1269.80 C485.74,1269.35 489.15,1269.36 490.97,1269.79 C493.68,1270.49 500.54,1274.69 504.06,1277.82 C507.61,1281.02 514.09,1288.32 515.82,1291.06 C516.29,1291.84 517.78,1294.94 517.87,1295.82 Z" fill="none" stroke="rgb(255, 255, 255)" stroke-width="43.00" stroke-opacity="0.48" stroke-linejoin="round"/>
<path d="M761.78,1563.36 C765.28,1564.00 772.46,1567.65 775.00,1570.31 C777.74,1573.29 780.31,1579.17 780.49,1582.91 C780.55,1584.76 780.02,1587.72 779.33,1589.44 C777.88,1592.89 773.44,1597.53 769.84,1599.38 C766.55,1601.00 758.55,1601.96 755.04,1601.36 C751.55,1600.72 744.37,1597.07 741.83,1594.41 C739.08,1591.43 736.52,1585.55 736.33,1581.81 C736.28,1579.96 736.80,1577.00 737.49,1575.28 C738.95,1571.84 743.38,1567.19 746.98,1565.34 C750.28,1563.72 758.28,1562.76 761.78,1563.36 Z" fill="none" stroke="rgb(255, 255, 255)" stroke-width="43.00" stroke-opacity="0.48" stroke-linejoin="round"/>
<path d="M945.13,1280.32 C946.70,1280.34 950.42,1281.41 951.80,1282.23 C953.15,1283.09 955.87,1285.99 956.68,1287.44 C957.45,1288.90 958.44,1292.87 958.46,1294.55 C958.44,1296.23 957.45,1300.20 956.68,1301.66 C955.87,1303.10 953.15,1306.01 951.80,1306.87 C950.42,1307.69 946.70,1308.75 945.13,1308.77 C943.55,1308.75 939.83,1307.69 938.46,1306.87 C937.11,1306.01 934.38,1303.10 933.58,1301.66 C932.81,1300.20 931.81,1296.23 931.79,1294.55 C931.81,1292.87 932.81,1288.90 933.58,1287.44 C934.38,1285.99 937.11,1283.09 938.46,1282.23 C939.83,1281.41 943.55,1280.34 945.13,1280.32 Z" fill="none" stroke="rgb(255, 255, 255)" stroke-width="43.00" stroke-opacity="0.48" stroke-linejoin="round"/>
<path d="M1377.53,818.04 C1379.23,817.44 1383.21,817.42 1385.14,817.88 C1387.26,818.44 1392.50,822.21 1394.33,824.74 C1396.32,827.58 1398.33,833.09 1398.63,836.53 C1398.87,839.66 1397.28,845.91 1396.01,847.71 C1394.83,849.30 1391.77,851.85 1390.09,852.48 C1388.39,853.08 1384.41,853.10 1382.48,852.64 C1380.36,852.08 1375.12,848.32 1373.29,845.78 C1371.30,842.94 1369.30,837.44 1368.99,833.99 C1368.75,830.87 1370.34,824.62 1371.61,822.82 C1372.79,821.22 1375.85,818.68 1377.53,818.04 Z" fill="none" stroke="rgb(255, 255, 255)" stroke-width="43.00" stroke-opacity="0.48" stroke-linejoin="round"/>
<path d="M1110.19,903.34 C1111.61,903.36 1115.00,904.64 1116.47,905.66 C1119.26,907.70 1123.32,914.27 1124.72,917.77 C1126.10,921.33 1127.67,928.83 1128.07,932.43 C1128.51,936.59 1128.51,943.41 1128.07,947.56 C1127.67,951.16 1126.10,958.67 1124.72,962.22 C1123.32,965.72 1119.26,972.29 1116.47,974.33 C1115.00,975.35 1111.61,976.63 1110.19,976.65 C1108.77,976.63 1105.38,975.35 1103.92,974.33 C1101.12,972.29 1097.06,965.72 1095.67,962.22 C1094.28,958.67 1092.72,951.16 1092.31,947.56 C1091.87,943.41 1091.87,936.59 1092.31,932.43 C1092.72,928.83 1094.28,921.33 1095.67,917.77 C1097.06,914.27 1101.12,907.70 1103.92,905.66 C1105.38,904.64 1108.77,903.36 1110.19,903.34 Z" fill="none" stroke="rgb(255, 255, 255)" stroke-width="43.00" stroke-opacity="0.48" stroke-linejoin="round"/>
<path d="M1003.92,1738.98 C1004.53,1739.95 1006.82,1741.16 1008.57,1741.41 C1011.72,1741.80 1025.23,1739.72 1027.72,1739.52 C1029.23,1739.41 1032.24,1739.46 1032.78,1739.68 C1033.66,1740.15 1033.06,1741.66 1031.24,1742.96 C1029.79,1743.99 1024.61,1747.28 1022.80,1748.78 C1021.45,1749.91 1018.01,1753.62 1017.19,1754.88 C1016.13,1756.61 1015.79,1759.71 1016.86,1760.38 C1017.98,1761.01 1021.70,1761.20 1023.74,1760.92 C1028.47,1760.19 1038.51,1757.91 1042.48,1756.65 C1044.85,1755.87 1047.82,1754.31 1048.40,1753.53 C1048.93,1752.72 1048.03,1751.32 1046.68,1750.48 C1044.54,1749.23 1032.30,1746.42 1022.06,1744.83 C1000.80,1741.94 972.76,1739.90 970.99,1740.23 C969.17,1740.60 965.75,1742.46 964.68,1743.73 C963.56,1745.20 963.32,1747.96 964.42,1749.27 C966.48,1751.59 975.71,1755.36 980.33,1756.71 C985.34,1758.16 998.83,1761.26 1000.12,1762.72 C1000.46,1763.20 940.75,1754.86 940.51,1754.60 C940.50,1754.59 943.28,1751.85 943.43,1750.78 C943.48,1750.44 939.01,1742.47 936.67,1738.96 C934.51,1735.68 933.13,1732.94 932.85,1731.04 C932.65,1729.22 933.77,1725.72 935.04,1724.28 C937.40,1721.74 944.06,1718.53 946.73,1717.62 C953.44,1715.36 973.41,1712.02 984.39,1711.22 C994.10,1710.53 1002.80,1711.23 1006.24,1711.89 C1007.72,1712.21 1010.56,1713.58 1011.62,1714.64 C1012.68,1715.80 1012.88,1719.27 1012.02,1721.18 C1011.31,1722.66 1006.16,1729.95 1006.09,1730.06 C1003.62,1733.90 1003.40,1738.01 1003.92,1738.98 Z" fill="none" stroke="rgb(255, 255, 255)" stroke-width="43.00" stroke-opacity="0.48" stroke-linejoin="round"/>
<path d="M1541.64,1117.25 C1540.98,1116.09 1534.13,1112.36 1528.88,1110.36 C1520.93,1107.32 1515.19,1104.18 1514.68,1102.46 C1514.49,1101.65 1515.26,1100.21 1516.10,1099.63 C1517.89,1098.48 1524.32,1096.62 1529.43,1095.77 C1535.99,1094.71 1545.63,1094.28 1549.57,1095.14 C1551.46,1095.58 1554.63,1097.00 1555.81,1097.94 C1558.01,1099.79 1559.84,1104.75 1559.86,1107.63 C1559.82,1110.65 1558.00,1118.06 1556.23,1122.38 C1553.00,1130.14 1544.09,1146.78 1540.15,1152.41 C1536.45,1157.65 1530.16,1164.38 1526.84,1166.70 C1524.03,1168.63 1518.52,1171.19 1515.58,1171.96 C1514.37,1172.22 1511.19,1171.68 1510.18,1170.72 C1509.25,1169.81 1508.05,1164.19 1507.68,1162.83 C1507.30,1161.40 1505.45,1158.99 1504.61,1159.01 C1503.59,1159.07 1502.78,1159.95 1501.80,1160.22 C1497.96,1161.29 1489.27,1160.20 1485.50,1159.74 C1480.78,1159.04 1469.71,1157.33 1466.22,1156.53 C1462.15,1155.58 1457.12,1153.38 1456.58,1152.33 C1456.25,1151.54 1457.00,1150.02 1458.26,1149.15 C1460.31,1147.80 1473.02,1143.37 1476.14,1141.58 C1477.85,1140.55 1480.86,1138.04 1481.66,1136.84 C1482.79,1135.00 1483.41,1131.33 1482.74,1129.39 C1482.30,1128.13 1478.86,1122.34 1478.60,1121.55 C1478.11,1120.08 1479.62,1118.78 1481.48,1118.59 C1484.84,1118.38 1497.59,1122.61 1513.36,1128.70 C1518.52,1130.61 1525.36,1132.91 1525.58,1132.90 C1526.26,1132.84 1521.63,1128.39 1521.55,1128.22 C1520.83,1126.72 1522.86,1124.41 1524.84,1123.76 C1527.65,1122.92 1528.99,1122.64 1534.32,1121.77 C1537.86,1121.17 1541.13,1120.11 1541.70,1119.22 C1542.01,1118.65 1541.99,1117.99 1541.64,1117.25 Z" fill="none" stroke="rgb(255, 255, 255)" stroke-width="64.40" stroke-opacity="0.48" stroke-linejoin="round"/>
<path d="M1140.30,1356.32 C1142.03,1356.33 1146.06,1357.14 1147.92,1357.81 C1149.92,1358.57 1152.92,1360.40 1154.55,1361.86 C1157.61,1364.69 1160.82,1370.33 1161.73,1373.80 C1162.54,1377.09 1162.54,1382.67 1161.73,1385.96 C1160.82,1389.44 1157.61,1395.08 1154.55,1397.91 C1152.92,1399.36 1149.92,1401.19 1147.92,1401.96 C1146.06,1402.63 1142.03,1403.43 1140.30,1403.45 C1138.57,1403.43 1134.55,1402.63 1132.68,1401.96 C1130.68,1401.19 1127.68,1399.36 1126.06,1397.91 C1122.99,1395.08 1119.79,1389.44 1118.87,1385.96 C1118.06,1382.67 1118.06,1377.09 1118.87,1373.80 C1119.79,1370.33 1122.99,1364.69 1126.06,1361.86 C1127.68,1360.40 1130.68,1358.57 1132.68,1357.81 C1134.55,1357.14 1138.57,1356.33 1140.30,1356.32 Z" fill="none" stroke="rgb(255, 255, 255)" stroke-width="43.00" stroke-opacity="0.48" stroke-linejoin="round"/>
<path d="M1346.18,1523.89 C1349.38,1523.91 1356.80,1525.39 1360.18,1526.68 C1363.46,1527.97 1369.24,1531.95 1371.68,1534.38 C1374.34,1537.08 1377.54,1542.14 1378.77,1545.60 C1379.85,1548.75 1380.73,1555.31 1380.32,1558.55 C1379.85,1561.88 1377.54,1568.49 1375.96,1571.02 C1374.34,1573.55 1369.24,1578.68 1366.32,1580.71 C1363.46,1582.66 1356.80,1585.24 1353.28,1585.96 C1349.38,1586.72 1342.99,1586.72 1339.09,1585.96 C1335.57,1585.24 1328.91,1582.66 1326.05,1580.71 C1323.13,1578.68 1318.02,1573.55 1316.41,1571.02 C1314.83,1568.49 1312.52,1561.88 1312.05,1558.55 C1311.64,1555.31 1312.52,1548.75 1313.60,1545.60 C1314.83,1542.14 1318.02,1537.08 1320.69,1534.38 C1323.13,1531.95 1328.91,1527.97 1332.19,1526.68 C1335.57,1525.39 1342.99,1523.91 1346.18,1523.89 Z" fill="none" stroke="rgb(255, 255, 255)" stroke-width="43.00" stroke-opacity="0.48" stroke-linejoin="round"/>
<path d="M947.44,686.08 C947.44,686.08 946.08,687.44 946.08,687.44" fill="none" stroke="rgb(255, 255, 255)" stroke-width="2.50" stroke-opacity="0.32" stroke-linejoin="round"/>
<path d="M1024.34,795.23 C1026.01,795.49 1029.79,796.85 1031.50,797.77 C1033.33,798.80 1035.97,801.01 1037.33,802.66 C1039.89,805.84 1042.19,811.78 1042.57,815.29 C1042.88,818.60 1042.08,824.02 1040.82,827.10 C1039.44,830.34 1035.52,835.36 1032.15,837.67 C1030.36,838.85 1027.20,840.20 1025.15,840.66 C1023.25,841.04 1019.24,841.25 1017.56,841.01 C1015.89,840.75 1012.11,839.39 1010.40,838.47 C1008.57,837.44 1005.93,835.23 1004.57,833.59 C1002.01,830.40 999.72,824.46 999.33,820.96 C999.02,817.64 999.82,812.22 1001.08,809.14 C1002.46,805.90 1006.38,800.88 1009.76,798.57 C1011.54,797.39 1014.70,796.04 1016.75,795.59 C1018.65,795.20 1022.66,795.00 1024.34,795.23 Z" fill="none" stroke="rgb(255, 255, 255)" stroke-width="43.00" stroke-opacity="0.48" stroke-linejoin="round"/>
<path d="M1425.61,637.07 C1427.20,638.50 1469.14,700.81 1470.01,701.40 C1471.05,702.02 1466.16,691.91 1458.20,676.98 C1453.11,667.55 1442.46,647.89 1442.34,648.10 C1442.09,649.01 1448.04,660.32 1450.79,663.69 C1452.22,665.38 1455.62,668.22 1457.41,669.12 C1459.42,670.11 1464.31,670.47 1465.66,670.68 C1467.30,670.94 1467.72,672.60 1466.87,674.08 C1465.42,676.40 1455.49,683.83 1442.43,692.78 C1433.39,699.24 1426.70,704.59 1424.13,707.86 C1423.16,709.05 1420.93,709.28 1418.45,708.64 C1416.73,708.15 1409.46,704.36 1405.45,701.82 C1401.24,699.13 1394.97,693.99 1393.97,692.50 C1392.40,690.05 1391.91,687.12 1392.73,684.89 C1393.76,682.12 1393.93,680.85 1393.29,679.45 C1392.38,677.64 1385.40,675.04 1383.38,672.89 C1380.43,669.71 1375.63,661.15 1374.11,657.96 C1371.71,652.87 1367.92,643.33 1367.49,639.88 C1367.30,638.06 1367.73,635.07 1368.34,633.97 C1368.99,632.89 1370.84,631.54 1372.10,631.16 C1374.61,630.51 1381.73,631.15 1386.31,632.44 C1388.43,633.05 1400.89,637.19 1405.28,638.40 C1408.02,639.14 1417.09,641.05 1419.17,640.04 C1420.03,639.62 1422.41,635.93 1422.98,635.85 C1423.67,635.76 1424.54,636.17 1425.61,637.07 Z" fill="none" stroke="rgb(255, 255, 255)" stroke-width="96.50" stroke-opacity="0.48" stroke-linejoin="round"/>
<path d="M1069.96,253.20 C1071.65,253.21 1075.59,254.00 1077.41,254.66 C1079.37,255.41 1082.31,257.21 1083.90,258.64 C1086.89,261.42 1090.03,266.96 1090.93,270.37 C1091.72,273.60 1091.72,279.08 1090.93,282.31 C1090.03,285.72 1086.89,291.26 1083.90,294.04 C1082.31,295.47 1079.37,297.26 1077.41,298.01 C1075.59,298.67 1071.65,299.46 1069.96,299.48 C1068.26,299.46 1064.32,298.67 1062.50,298.01 C1060.54,297.26 1057.61,295.47 1056.02,294.04 C1053.02,291.26 1049.88,285.72 1048.99,282.31 C1048.19,279.08 1048.19,273.60 1048.99,270.37 C1049.88,266.96 1053.02,261.42 1056.02,258.64 C1057.61,257.21 1060.54,255.41 1062.50,254.66 C1064.32,254.00 1068.26,253.21 1069.96,253.20 Z" fill="none" stroke="rgb(255, 255, 255)" stroke-width="43.00" stroke-opacity="0.48" stroke-linejoin="round"/>
<path d="M1289.49,1179.28 C1292.77,1179.29 1300.72,1180.52 1303.33,1181.41 C1307.34,1182.82 1313.78,1187.14 1315.42,1189.76 C1316.21,1191.10 1317.15,1193.98 1317.17,1195.22 C1317.15,1196.46 1316.21,1199.35 1315.42,1200.68 C1313.78,1203.30 1307.34,1207.62 1303.33,1209.03 C1300.72,1209.92 1292.77,1211.15 1289.49,1211.17 C1286.22,1211.15 1278.27,1209.92 1275.66,1209.03 C1271.65,1207.62 1265.20,1203.30 1263.57,1200.68 C1262.78,1199.35 1261.83,1196.46 1261.82,1195.22 C1261.83,1193.98 1262.78,1191.10 1263.57,1189.76 C1265.20,1187.14 1271.65,1182.82 1275.66,1181.41 C1278.27,1180.52 1286.22,1179.29 1289.49,1179.28 Z" fill="none" stroke="rgb(255, 255, 255)" stroke-width="43.00" stroke-opacity="0.48" stroke-linejoin="round"/>
<path d="M897.30,448.64 C896.81,447.39 898.62,443.58 900.92,441.00 C903.30,438.40 911.13,431.61 915.87,428.04 C920.53,424.56 928.71,419.62 932.19,418.19 C935.53,416.85 941.62,416.03 944.23,416.96 C945.58,417.48 947.91,419.38 948.85,420.71 C950.70,423.50 952.35,431.38 952.65,437.52 C952.86,442.56 952.44,451.06 951.78,454.93 C950.92,459.73 948.07,468.59 945.43,472.23 C944.51,473.49 940.29,478.07 939.95,478.49 C938.99,479.69 937.94,481.99 938.00,482.79 C938.19,484.30 941.04,485.61 943.64,485.59 C945.44,485.55 954.90,484.24 959.09,484.90 C964.08,485.74 974.16,489.90 978.68,492.40 C986.25,496.66 1003.01,508.98 1011.74,516.70 C1015.92,520.41 1021.26,526.10 1022.39,528.06 C1022.92,529.01 1023.24,530.50 1023.03,531.02 C1022.57,531.98 1019.44,532.25 1017.20,531.90 C1013.17,531.22 1001.95,527.53 990.43,523.10 C979.86,518.67 959.51,510.23 949.73,506.21 C941.57,503.08 924.78,497.19 923.55,497.19 C922.43,497.25 921.74,497.61 921.47,498.29 C921.12,499.37 924.54,505.25 925.54,507.05 C926.91,509.51 927.44,512.81 926.70,513.77 C926.11,514.38 923.04,514.41 921.05,513.94 C918.69,513.34 913.01,511.15 911.24,510.13 C909.45,509.07 908.47,507.14 908.96,506.13 C910.42,503.70 928.43,499.85 931.17,498.70 C933.29,497.78 936.84,495.38 938.13,493.98 C939.42,492.52 940.97,489.58 941.40,487.89 C942.13,484.60 941.35,477.05 939.82,472.68 C939.28,471.15 935.51,459.90 935.18,456.56 C935.10,455.56 935.14,451.84 935.45,450.82 C936.27,448.41 938.74,445.19 940.92,444.15 C943.24,443.08 949.01,442.40 950.07,442.80 C950.21,442.87 919.59,449.46 915.47,450.16 C910.11,451.04 902.30,451.31 900.05,450.70 C898.95,450.36 897.63,449.36 897.30,448.64 Z" fill="none" stroke="rgb(255, 255, 255)" stroke-width="96.50" stroke-opacity="1.00" stroke-linejoin="round"/>
<path d="M578.16,620.85 C578.03,622.48 578.15,623.44 578.51,623.75 C578.82,623.98 583.40,621.68 584.62,621.83 C586.49,622.07 589.27,624.52 590.58,626.66 C597.21,638.15 604.98,654.02 607.85,661.36 C608.51,663.07 608.69,664.67 608.30,664.90 C607.76,665.09 592.08,640.94 590.41,638.50 C587.17,633.81 581.10,627.28 578.47,625.67 C577.18,624.92 574.70,624.15 573.60,624.18 C572.39,624.25 570.23,625.27 569.23,626.26 C567.28,628.30 564.21,636.15 563.14,641.85 C562.63,644.64 558.54,672.85 558.59,672.37 C559.10,668.45 559.97,663.49 560.70,661.65 C561.56,659.54 564.34,656.65 566.16,655.85 C567.46,655.33 571.58,655.05 573.49,655.22 C575.63,655.47 580.59,656.72 583.12,657.64 C585.81,658.66 589.08,660.59 589.78,661.62 C590.41,662.67 589.56,664.61 588.21,665.68 C585.34,667.79 574.57,670.41 551.15,674.99 C547.33,675.74 543.09,676.86 543.19,676.98 C543.87,677.58 556.05,677.02 563.35,676.52 C573.12,675.70 598.95,673.35 605.60,672.36 C615.72,670.84 630.15,666.87 635.09,664.25 C637.76,662.79 641.96,658.55 642.69,655.89 C643.01,654.60 642.91,651.85 642.50,650.41 C641.59,647.51 636.50,640.71 633.12,637.94 C629.69,635.19 621.57,631.85 616.96,631.30 C612.18,630.78 602.52,631.97 598.25,633.17 C590.68,635.36 574.65,642.97 565.51,648.71 C557.88,653.53 534.56,670.40 530.10,673.22 C526.84,675.26 521.83,677.92 520.08,678.54 C518.36,679.12 516.48,678.87 516.22,678.02 C515.81,676.35 520.18,668.25 525.04,661.69 C528.38,657.19 545.59,636.53 553.67,627.07 C560.46,619.40 572.84,605.67 577.63,600.65 C579.63,598.68 584.04,594.27 585.87,594.15 C586.74,594.15 587.03,596.36 586.44,598.34 C585.83,600.31 580.41,613.15 578.88,617.91 C578.47,619.24 578.24,620.22 578.16,620.85 Z" fill="none" stroke="rgb(255, 255, 255)" stroke-width="52.60" stroke-opacity="1.00" stroke-linejoin="round"/>
<path d="M852.24,828.88 C852.69,828.49 853.73,829.42 854.37,830.91 C854.77,831.84 859.21,843.84 861.28,846.75 C863.18,849.33 865.59,851.36 868.25,852.72 C870.45,853.83 871.14,854.86 870.37,855.86 C869.20,857.19 858.10,861.03 856.77,861.58 C855.04,862.32 852.17,864.25 851.40,865.22 C850.49,866.50 850.23,869.00 850.93,870.44 C851.49,871.53 853.93,875.19 854.75,877.34 C856.19,881.13 857.48,890.04 857.63,894.35 C857.78,901.05 858.36,908.67 858.67,908.93 C859.49,909.60 862.59,908.76 861.91,908.17 C860.78,907.20 851.42,906.63 851.52,907.15 C851.71,907.98 856.55,910.47 857.29,910.19 C857.82,909.96 842.63,891.82 838.83,886.15 C837.68,884.38 835.72,880.60 834.99,878.60 C834.27,876.53 834.11,873.35 834.51,871.60 C834.88,870.16 836.11,867.73 836.92,866.81 C837.81,865.86 840.17,864.44 841.48,864.04 C842.45,863.73 845.84,862.41 846.88,860.91 C848.66,858.28 850.46,850.17 850.70,845.99 C851.55,830.70 851.93,829.22 852.24,828.88 Z" fill="none" stroke="rgb(255, 255, 255)" stroke-width="96.50" stroke-opacity="1.00" stroke-linejoin="round"/>
<path d="M659.12,1306.78 C662.38,1305.86 665.57,1304.18 666.60,1302.48 C667.25,1301.38 668.77,1295.64 669.14,1294.95 C669.90,1293.54 672.52,1292.76 674.49,1293.02 C676.82,1293.42 687.01,1300.82 692.49,1306.11 C698.30,1311.77 710.77,1328.22 715.42,1336.23 C718.76,1342.04 728.06,1360.16 732.34,1369.29 C736.63,1378.92 743.50,1395.71 744.99,1400.95 C745.71,1403.54 746.22,1406.80 746.16,1408.51 C746.08,1409.72 744.69,1410.46 743.03,1410.04 C741.79,1409.68 736.37,1404.75 731.06,1399.16 C727.22,1395.30 718.72,1389.12 714.24,1386.93 C709.82,1384.81 700.43,1382.25 695.59,1381.77 C690.77,1381.34 680.50,1382.00 675.32,1383.08 C667.77,1384.69 650.83,1390.23 650.82,1390.97 C651.03,1391.59 686.48,1386.81 687.15,1386.94 C687.90,1387.13 665.14,1392.15 659.68,1393.13 C648.74,1395.06 636.15,1395.19 634.11,1394.80 C631.08,1394.16 627.01,1392.32 625.67,1390.77 C624.37,1389.21 623.67,1384.47 623.50,1383.06 C623.28,1381.18 622.01,1377.99 621.01,1376.92 C620.06,1375.96 617.63,1374.77 616.30,1374.55 C614.93,1374.37 611.99,1374.50 610.37,1374.84 C608.54,1375.22 604.17,1376.78 602.82,1377.11 C600.90,1377.56 597.00,1377.33 595.08,1376.63 C591.50,1375.26 586.25,1369.93 584.00,1366.47 C580.34,1360.71 573.05,1342.19 570.82,1333.09 C569.75,1328.65 568.72,1320.96 568.75,1317.71 C568.83,1314.21 570.38,1308.36 572.19,1306.02 C573.15,1304.84 575.54,1303.00 576.98,1302.33 C579.70,1301.14 586.57,1300.59 591.75,1300.54 C600.43,1300.49 616.13,1301.89 625.57,1303.52 C630.13,1304.32 640.54,1306.52 643.14,1306.91 C650.80,1308.06 657.68,1307.15 659.12,1306.78 Z" fill="none" stroke="rgb(255, 255, 255)" stroke-width="96.50" stroke-opacity="1.00" stroke-linejoin="round"/>
<path d="M838.29,1530.09 C839.13,1531.43 841.47,1549.15 841.59,1549.94 C841.91,1551.99 847.59,1557.88 850.95,1560.62 C852.89,1562.21 858.00,1566.10 858.58,1566.64 C860.16,1568.15 861.49,1571.22 861.09,1572.57 C860.28,1574.90 855.14,1578.20 852.77,1579.22 C846.99,1581.67 824.56,1586.73 819.30,1587.65 C816.65,1588.11 807.43,1589.42 802.47,1589.55 C797.77,1589.66 790.55,1587.49 789.08,1587.88 C788.09,1588.19 786.77,1589.52 786.38,1590.63 C785.95,1591.95 786.02,1595.63 786.00,1596.81 C785.91,1599.11 784.44,1601.96 782.41,1603.12 C778.85,1605.06 769.56,1606.11 765.99,1606.17 C759.14,1606.23 733.00,1604.09 733.40,1604.51 C733.58,1604.65 751.50,1607.26 761.15,1608.59 C767.74,1609.43 777.52,1610.06 781.59,1609.90 C785.59,1609.72 791.80,1608.32 793.44,1607.25 C794.83,1606.28 796.43,1604.14 796.71,1602.69 C796.93,1601.28 796.30,1597.91 795.44,1596.03 C794.60,1594.24 786.93,1583.11 785.61,1579.51 C785.01,1577.79 784.66,1574.77 784.91,1573.53 C785.21,1572.30 786.49,1570.42 787.51,1569.67 C789.53,1568.25 795.84,1566.77 800.21,1566.69 C803.04,1566.65 815.19,1567.47 819.63,1567.38 C823.87,1567.28 831.14,1566.17 833.14,1565.35 C835.49,1564.33 838.30,1562.17 839.09,1560.57 C840.15,1558.24 838.82,1550.31 838.20,1545.61 C836.88,1535.20 838.06,1529.80 838.29,1530.09 Z" fill="none" stroke="rgb(255, 255, 255)" stroke-width="96.50" stroke-opacity="1.00" stroke-linejoin="round"/>
<path d="M1226.90,1623.47 C1226.94,1625.11 1226.37,1628.14 1225.70,1629.72 C1224.33,1632.84 1219.02,1638.70 1214.47,1642.11 C1209.04,1646.07 1203.43,1650.46 1200.91,1652.68 C1197.98,1655.30 1194.28,1659.73 1194.78,1661.64 C1195.16,1662.78 1197.45,1664.30 1199.44,1664.61 C1204.18,1665.26 1222.93,1662.11 1239.12,1658.76 C1242.81,1657.98 1245.78,1657.31 1246.41,1657.10 C1246.86,1656.94 1199.75,1666.13 1181.41,1670.08 C1173.44,1672.02 1166.81,1673.94 1166.67,1674.80 C1166.68,1675.74 1179.33,1676.51 1184.60,1676.17 C1186.89,1676.01 1189.63,1675.35 1190.31,1674.84 C1190.81,1674.40 1190.54,1673.20 1189.83,1672.50 C1189.09,1671.82 1185.89,1669.84 1184.22,1669.06 C1181.91,1668.04 1177.76,1667.02 1175.23,1666.93 C1170.74,1666.82 1161.56,1669.36 1157.42,1671.22 C1149.86,1674.68 1131.53,1687.55 1127.63,1691.80 C1126.72,1692.81 1125.63,1694.49 1125.44,1695.18 C1125.28,1695.84 1125.74,1696.85 1126.35,1697.17 C1127.70,1697.77 1134.02,1697.33 1138.84,1696.30 C1148.97,1694.10 1164.75,1688.73 1165.80,1688.35 C1167.75,1687.59 1170.43,1685.55 1170.79,1684.20 C1171.05,1683.09 1167.90,1679.42 1167.08,1678.48 C1165.86,1677.11 1165.06,1674.40 1165.51,1672.97 C1165.86,1671.95 1167.37,1669.23 1168.31,1664.84 C1171.75,1649.30 1177.77,1621.85 1180.53,1615.13 C1182.11,1611.36 1185.66,1605.68 1187.79,1603.52 C1188.90,1602.43 1191.40,1600.72 1192.87,1600.08 C1194.36,1599.47 1197.70,1598.97 1199.43,1599.08 C1202.95,1599.37 1210.56,1602.83 1214.94,1606.08 C1218.82,1609.00 1224.07,1614.80 1225.46,1617.69 C1226.11,1619.13 1226.84,1622.01 1226.90,1623.47 Z" fill="none" stroke="rgb(255, 255, 255)" stroke-width="96.50" stroke-opacity="1.00" stroke-linejoin="round"/>
<path d="M580.48,996.40 C581.70,997.13 583.08,999.31 583.28,1001.08 C583.56,1004.24 581.79,1010.47 578.94,1019.58 C578.10,1022.32 577.08,1025.47 577.09,1025.48 C577.50,1025.89 577.38,1024.09 577.95,1023.94 C578.01,1023.92 580.98,1031.58 582.23,1034.94 C584.06,1040.07 585.21,1047.75 584.70,1052.00 C584.18,1056.01 581.47,1062.88 579.70,1065.89 C577.67,1069.28 570.60,1077.67 569.79,1078.71 C567.42,1081.78 564.31,1088.20 563.59,1091.50 C563.27,1093.16 563.10,1096.96 563.32,1098.87 C563.58,1100.88 564.96,1105.14 566.00,1107.16 C567.12,1109.29 574.43,1118.92 575.28,1121.42 C575.65,1122.63 575.37,1124.27 574.75,1124.82 C573.81,1125.55 568.82,1125.28 565.06,1124.27 C561.03,1123.15 551.62,1119.57 547.67,1117.57 C544.06,1115.72 537.02,1110.90 533.96,1107.57 C530.73,1103.98 527.17,1096.52 526.16,1091.94 C525.76,1090.06 525.51,1087.55 525.53,1085.78 C525.59,1084.48 526.90,1081.13 527.99,1080.34 C528.98,1079.63 535.13,1078.98 535.43,1078.85 C536.31,1078.44 535.97,1076.91 535.07,1075.75 C531.64,1071.46 517.49,1058.60 513.23,1053.55 C510.28,1050.03 504.94,1042.22 502.80,1038.16 C500.63,1033.97 497.12,1025.21 495.73,1020.49 C494.24,1015.35 492.77,1006.91 492.88,1003.75 C492.96,1002.22 493.53,999.73 494.02,998.73 C494.56,997.74 496.05,996.43 497.07,996.07 C499.15,995.43 505.50,996.93 509.56,999.03 C515.61,1002.32 522.81,1005.27 527.41,1006.25 C531.72,1007.13 540.94,1007.30 545.14,1006.66 C549.45,1005.96 557.45,1003.30 562.52,1000.85 C567.69,998.35 573.79,996.17 576.35,995.90 C577.40,995.82 579.80,996.03 580.48,996.40 Z" fill="none" stroke="rgb(255, 255, 255)" stroke-width="96.50" stroke-opacity="1.00" stroke-linejoin="round"/>
<path d="M1071.70,1090.07 C1075.11,1090.87 1081.70,1095.54 1083.60,1098.27 C1085.41,1100.97 1087.67,1106.64 1088.02,1109.82 C1088.33,1113.05 1087.64,1119.48 1086.46,1122.71 C1085.11,1126.29 1081.60,1131.44 1079.44,1132.12 C1078.65,1132.37 1075.33,1133.03 1074.37,1133.97 C1071.15,1137.17 1053.49,1175.13 1050.43,1180.13 C1048.37,1183.47 1044.62,1187.81 1042.78,1188.98 C1041.86,1189.54 1039.90,1190.03 1038.94,1189.90 C1037.94,1189.72 1035.99,1188.31 1035.10,1187.13 C1033.30,1184.64 1030.49,1176.25 1029.19,1170.04 C1028.12,1164.79 1027.09,1155.76 1027.07,1151.42 C1027.09,1146.84 1028.71,1137.70 1030.55,1133.71 C1032.27,1130.11 1037.59,1124.09 1039.85,1122.79 C1040.87,1122.24 1043.16,1121.65 1044.18,1121.79 C1046.01,1122.14 1048.76,1123.90 1050.08,1125.83 C1051.24,1127.53 1054.53,1134.70 1054.65,1134.88 C1055.30,1135.83 1055.86,1136.20 1056.36,1136.01 C1056.95,1135.63 1051.28,1109.99 1050.55,1104.46 C1050.35,1102.60 1049.97,1098.58 1050.04,1097.62 C1050.33,1094.67 1051.75,1092.17 1053.64,1091.62 C1059.51,1090.07 1070.07,1089.72 1071.70,1090.07 Z" fill="none" stroke="rgb(255, 255, 255)" stroke-width="96.50" stroke-opacity="1.00" stroke-linejoin="round"/>
<path d="M1186.01,635.33 C1185.06,638.07 1169.77,661.18 1168.38,664.00 C1167.44,665.93 1166.44,669.33 1166.39,670.76 C1166.38,672.16 1167.25,674.48 1168.11,675.31 C1169.82,676.85 1175.45,678.03 1178.97,677.97 C1186.41,677.77 1208.80,672.47 1221.61,668.38 C1230.85,665.40 1235.23,662.72 1235.14,662.10 C1234.84,661.09 1224.64,661.02 1213.44,661.94 C1184.89,664.72 1164.93,665.70 1164.72,665.72 C1162.27,665.87 1159.01,665.02 1157.88,663.52 C1157.14,662.54 1157.35,661.07 1156.71,660.03 C1156.09,659.01 1155.27,660.78 1155.19,662.97 C1154.84,670.62 1154.04,694.86 1154.61,699.67 C1155.19,704.16 1157.69,710.33 1159.60,711.96 C1160.57,712.74 1162.76,713.61 1163.97,713.72 C1166.42,713.87 1172.38,711.72 1175.94,709.40 C1181.17,705.93 1199.16,688.89 1203.31,683.98 C1205.93,680.83 1208.61,675.99 1207.63,674.54 C1206.83,673.50 1199.34,673.35 1194.19,672.87 C1189.32,672.40 1155.62,666.00 1155.61,666.11 C1155.84,666.40 1168.32,669.63 1170.97,670.15 C1173.96,670.71 1178.51,670.87 1179.85,670.45 C1181.06,670.00 1182.16,668.35 1182.08,667.29 C1181.79,665.05 1178.36,659.95 1173.33,654.10 C1169.96,650.19 1165.03,643.09 1164.51,641.49 C1164.02,639.81 1163.91,638.61 1164.19,637.88 C1164.62,636.90 1169.61,636.05 1170.98,635.85 C1174.56,635.38 1185.65,632.26 1186.18,632.80 C1186.48,633.16 1186.43,634.00 1186.01,635.33 Z" fill="none" stroke="rgb(255, 255, 255)" stroke-width="96.50" stroke-opacity="1.00" stroke-linejoin="round"/>
<path d="M1235.96,363.74 C1235.24,362.23 1227.30,353.92 1219.40,346.42 C1209.49,337.40 1197.55,327.77 1190.58,323.28 C1187.36,321.23 1179.56,316.89 1175.01,314.89 C1169.94,312.68 1159.59,309.86 1154.79,309.38 C1149.88,308.93 1142.30,309.68 1140.98,310.77 C1140.38,311.33 1140.27,312.85 1140.78,313.73 C1142.46,316.43 1153.57,323.82 1162.10,328.34 C1171.17,332.97 1213.31,353.57 1213.47,353.89 C1213.50,354.14 1201.36,349.41 1197.95,347.47 C1196.09,346.38 1193.36,344.08 1192.87,343.10 C1192.34,341.83 1193.05,339.48 1194.42,338.38 C1195.85,337.29 1200.47,335.28 1202.53,334.84 C1204.49,334.47 1207.82,334.98 1209.09,335.82 C1210.28,336.69 1212.08,339.80 1212.60,341.86 C1213.56,345.91 1213.55,355.11 1212.71,354.96 C1210.56,354.11 1204.86,335.46 1205.39,334.62 C1205.78,334.22 1207.67,335.66 1209.35,337.70 C1211.10,339.86 1214.58,344.76 1215.19,345.98 C1215.74,347.11 1215.29,347.75 1214.38,347.33 C1210.21,345.24 1199.83,335.78 1199.77,335.32 C1199.66,334.16 1200.20,333.51 1201.39,333.39 C1203.15,333.26 1205.73,335.20 1206.21,336.82 C1206.45,337.71 1209.04,347.74 1210.17,350.03 C1211.86,353.33 1218.11,359.37 1222.14,361.63 C1224.25,362.79 1229.27,364.91 1231.45,365.59 C1233.51,366.19 1236.01,366.22 1236.26,365.61 C1236.40,365.16 1236.30,364.54 1235.96,363.74 Z" fill="none" stroke="rgb(255, 255, 255)" stroke-width="96.50" stroke-opacity="1.00" stroke-linejoin="round"/>
<path d="M1456.34,1213.41 C1457.67,1213.83 1459.10,1215.52 1459.25,1217.10 C1459.44,1219.91 1454.71,1232.68 1453.78,1235.32 C1451.78,1241.20 1451.11,1244.41 1451.35,1245.74 C1451.56,1246.86 1452.31,1247.84 1452.48,1248.96 C1452.51,1249.16 1449.65,1262.29 1449.07,1264.62 C1447.66,1270.11 1444.65,1276.33 1443.06,1277.14 C1441.88,1277.65 1439.42,1276.98 1438.20,1275.66 C1437.78,1275.22 1433.55,1269.42 1432.43,1268.47 C1430.81,1267.14 1427.17,1266.70 1424.76,1267.27 C1419.66,1268.68 1412.03,1276.92 1401.11,1289.92 C1400.48,1290.65 1398.96,1292.36 1398.77,1292.51 C1398.43,1292.74 1405.72,1282.42 1407.13,1279.99 C1408.37,1277.82 1409.69,1273.66 1409.58,1272.16 C1409.32,1270.26 1407.09,1267.85 1404.84,1267.21 C1404.36,1267.08 1398.14,1266.14 1395.84,1265.61 C1394.05,1265.18 1392.94,1263.85 1394.08,1263.06 C1395.37,1262.17 1400.38,1260.04 1401.28,1258.53 C1401.89,1257.54 1402.11,1256.41 1401.96,1255.14 C1401.79,1253.80 1401.06,1252.51 1401.17,1251.16 C1401.29,1249.70 1403.75,1248.08 1405.70,1247.85 C1408.31,1247.62 1418.73,1248.11 1419.66,1247.01 C1420.01,1246.48 1419.97,1245.91 1419.53,1245.30 C1418.79,1244.28 1414.73,1240.56 1414.52,1239.21 C1414.29,1237.49 1416.04,1234.47 1417.63,1233.14 C1425.21,1227.24 1441.91,1217.15 1448.49,1214.72 C1451.63,1213.59 1455.55,1213.21 1456.34,1213.41 Z" fill="none" stroke="rgb(255, 255, 255)" stroke-width="96.50" stroke-opacity="1.00" stroke-linejoin="round"/>
</g>
</svg>
