<?xml version="1.0" encoding="UTF-8" standalone="no"?>
<!DOCTYPE svg PUBLIC "-//W3C//DTD SVG 1.1//EN" "http://www.w3.org/Graphics/SVG/1.1/DTD/svg11.dtd">
<!-- Created with Vectornator (http://vectornator.io/) -->
<svg height="100%" stroke-miterlimit="10" style="fill-rule:nonzero;clip-rule:evenodd;stroke-linecap:round;stroke-linejoin:round;" version="1.1" viewBox="0 0 2000 2000" width="100%" xml:space="preserve" xmlns="http://www.w3.org/2000/svg" xmlns:vectornator="http://vectornator.io" xmlns:xlink="http://www.w3.org/1999/xlink">
<defs>
<path d="M833.687 324.633C738.869 374.161 637.99 479.559 579.627 595.093C462.536 826.886 438.436 1071.06 450.005 1213.95C461.574 1356.84 545.255 1559.76 734.751 1651.7C939.472 1734.53 1079.25 1734.53 1265.25 1651.7C1451.96 1561.93 1541.51 1385.9 1550 1213.95C1558.48 1041.99 1537.52 826.886 1420.43 595.093C1362.06 479.559 1283.24 377.62 1166.31 324.633C1049.39 271.645 928.505 275.105 833.687 324.633Z" id="Fill"/>
</defs>
<g id="Egg" vectornator:layerName="Egg">
<use fill="#b8d7f8" fill-rule="nonzero" opacity="1" stroke="none" vectornator:layerName="Curve 12" xlink:href="#Fill"/>
<clipPath clip-rule="nonzero" id="ClipPath">
<use xlink:href="#Fill"/>
</clipPath>
<g clip-path="url(#ClipPath)">
<path d="M441.439 661.369C400.913 661.369 521.314 646.103 561.794 644.176C652.061 639.877 738.493 671.691 819.698 707.219C1113.16 835.606 1349.89 862.095 1625.89 661.369M381.386 1339.86C361.939 1330.14 401.174 1306.53 409.085 1302.27C525.419 1239.63 677.636 1246.54 802.793 1270.61C1035.74 1315.41 1508.74 1559.82 1712.87 1355.69" fill="none" opacity="0" stroke="#ede0a5" stroke-linecap="butt" stroke-linejoin="round" stroke-width="45.6034" vectornator:layerName="Curve 11"/>
<path d="M1385.53 306.75C1344.26 306.606 1275.93 309.319 1204.94 324.844C1091.35 349.684 1098.01 372.572 970.969 407.312C843.93 442.053 696.781 463.812 696.781 463.812L512.406 563.625C532.256 563.015 588.955 565.795 603.812 563.938C681.109 554.275 895.011 454.268 970.969 436.906C1176.7 389.882 1236.84 402.161 1425.28 307.938C1425.28 307.938 1410.29 306.836 1385.53 306.75ZM512.406 563.625C505.455 563.839 502.725 564.447 508.312 565.844L512.406 563.625ZM1425.28 436.906C1425.28 436.906 1328.55 524.63 1219.34 565.844C1082.35 617.546 970.969 594.554 970.969 615.75C970.969 655.004 1482.71 792.806 1530.84 576.188C1540.46 532.923 1476.71 436.906 1425.28 436.906ZM589.812 891.062C532.601 891.163 477.042 900.828 432.906 924.594C423.227 929.806 362.453 958.5 383.219 972.344L362.156 981.156L433.219 1000C433.219 1000 765.067 886.677 1171.72 1183.25C1578.37 1479.82 1726.5 1197.88 1726.5 1197.88L1712.88 999.094C1446.95 1235.47 1074.71 1032.26 797.781 928.406C739.638 906.602 663.37 890.933 589.812 891.062ZM750.25 1518.53C531.831 1522.85 672.485 1688.82 818.625 1737.53L1493.28 1779.06C1493.28 1732.44 1323.16 1695.77 1293.44 1684.09C1133.91 1621.42 973.187 1531.93 798.844 1519.91C780.986 1518.67 764.811 1518.24 750.25 1518.53Z" fill="#eda5b6" fill-rule="nonzero" opacity="0" stroke="none" vectornator:layerName="Curve 10"/>
<path d="M441.83 475.856L599.85 240.888L759.503 491.129L934.258 241.16L1091.61 497.033L1242.3 241.198L1404.96 490.761L1534.18 234.843M403.479 1773.98L561.499 1539.01L721.152 1789.25L895.907 1539.28L1053.26 1795.16L1203.95 1539.32L1366.61 1788.88L1495.83 1532.97L1681.01 1752.15" fill="none" opacity="0" stroke="#edd8a5" stroke-linecap="butt" stroke-linejoin="round" stroke-width="233.431" vectornator:layerName="Curve 16"/>
<path d="M375.702 998.136L589.066 738.955L748.719 989.196L923.474 739.227L1076.55 980.149L1231.51 739.265L1394.18 984.556L1523.4 732.909M413.776 1329.38L565.393 1068.34L727.531 1323.55L902.286 1073.58L1059.64 1329.46L1222.75 1069.11L1400.84 1315.99L1541.58 1065.84L1724.83 1281.25" fill="none" opacity="0" stroke="#ffffff" stroke-linecap="butt" stroke-linejoin="round" stroke-width="109.802" vectornator:layerName="Curve 17"/>
<path d="M793.747 1683.52C736.513 1652.55 1035.7 1741.71 1277.29 1502.01C1460.93 1319.81 1517.12 1124.29 1531.58 1030.62C1541.84 964.161 1554.77 1049.6 1589.04 1094.67C1685.27 1221.22 1582.17 1498.8 1377.87 1654.14C1173.57 1809.49 882.256 1731.41 793.747 1683.52Z" fill="#4b4b4b" fill-opacity="0.191487" fill-rule="nonzero" opacity="1" stroke="none" vectornator:layerName="Oval 3"/>
<path d="M833.687 324.633C738.869 374.161 637.99 479.559 579.627 595.093C462.536 826.886 438.436 1071.06 450.005 1213.95C461.574 1356.84 545.255 1559.76 734.751 1651.7C939.472 1734.53 1079.25 1734.53 1265.25 1651.7C1451.96 1561.93 1541.51 1385.9 1550 1213.95C1558.48 1041.99 1537.52 826.886 1420.43 595.093C1362.06 479.559 1283.24 377.62 1166.31 324.633C1049.39 271.645 928.505 275.105 833.687 324.633Z" fill="none" opacity="1" stroke="#ffffff" stroke-linecap="butt" stroke-linejoin="round" stroke-width="20.8993" vectornator:layerName="Curve 9"/>
<path d="M970.156 357.438C866.149 357.438 731.375 440.037 731.375 526.531C731.375 613.026 724.024 685 828.031 685C874.603 685 902.681 635.139 950.062 600.125C1008.5 556.944 1112.69 526.014 1112.69 478.25C1112.69 391.755 1074.16 357.438 970.156 357.438ZM663.594 727.656C655.582 727.871 647.041 729.042 638.031 731.156C589.98 742.433 565.295 806.44 575.906 851.656C586.517 896.872 607.136 911.183 655.188 899.906C678.579 894.417 682.425 864.604 696.844 842.656C712.044 819.519 737.039 803.767 731.594 780.562C722.972 743.824 698.31 726.727 663.594 727.656Z" fill="#ffffff" fill-opacity="0.637337" fill-rule="nonzero" opacity="1" stroke="none" vectornator:layerName="Curve 13"/>
<path d="M818.528 863.94C834.976 776.238 886.994 714.078 979.197 691.694C1201.05 637.834 1333.16 1006.86 984.595 1083.96C993.782 1247.7 988.106 1288.38 988.106 1288.38M990.907 1419.25L991.461 1419.67" fill="none" opacity="1" stroke="#ffffff" stroke-linecap="round" stroke-linejoin="round" stroke-width="84.6985" vectornator:layerName="Curve 18"/>
</g>
</g>
<g id="Nest" vectornator:layerName="Nest"/>
</svg>
