<?xml version="1.0" encoding="UTF-8" standalone="no"?>
<!DOCTYPE svg PUBLIC "-//W3C//DTD SVG 1.1//EN" "http://www.w3.org/Graphics/SVG/1.1/DTD/svg11.dtd">
<svg width="480.00" height="480.00" viewBox="0.00 0.00 2000.00 2000.00" xmlns="http://www.w3.org/2000/svg" xmlns:xlink="http://www.w3.org/1999/xlink">
<g stroke-linecap="round" id="เลเยอร์_9">
<path d="M1282.83,1728.03 C1270.34,1732.52 1241.60,1745.97 1227.11,1752.87 C1211.39,1760.21 1181.75,1773.02 1167.73,1778.51 C1152.90,1783.92 1124.28,1793.97 1110.49,1798.62 C1095.60,1803.42 1065.38,1812.39 1050.72,1816.28 C1036.07,1819.89 1006.12,1826.51 990.66,1829.47 C974.85,1832.18 941.85,1836.74 925.05,1838.87 C910.89,1840.42 874.95,1843.86 864.25,1844.30 C850.45,1844.73 819.01,1845.03 803.18,1844.83 C788.46,1844.32 758.82,1842.62 743.90,1841.36 C728.84,1839.88 698.87,1836.07 683.81,1833.97 C668.87,1831.60 638.92,1826.10 623.96,1823.22 C609.11,1819.96 579.71,1813.18 565.24,1809.41 C550.83,1805.45 521.43,1796.43 506.59,1791.39 C495.85,1787.55 461.65,1773.61 450.75,1768.53 C432.03,1759.33 406.86,1745.12 397.38,1738.75 C393.30,1736.00 376.98,1723.69 372.90,1720.13 C367.27,1715.21 355.74,1703.27 351.84,1698.19 C347.28,1692.20 339.96,1679.66 337.68,1672.40 C336.43,1668.33 335.47,1661.83 335.66,1657.65 C335.90,1653.29 337.81,1646.85 339.97,1643.12 C342.09,1639.54 346.50,1634.74 349.82,1632.14 C352.68,1629.93 359.14,1626.05 362.49,1624.57 C369.24,1621.62 383.06,1617.64 391.75,1616.16 C400.20,1614.74 411.87,1613.64 422.74,1613.08 C441.23,1612.54 467.01,1613.18 483.53,1614.15 C497.64,1615.33 528.66,1618.30 547.59,1620.69 C561.89,1622.81 592.36,1627.60 608.54,1630.27 C625.13,1633.24 657.30,1639.22 672.88,1642.23 C703.97,1648.75 765.61,1661.98 796.15,1668.69 C826.64,1675.47 888.07,1688.80 919.00,1695.35 C934.82,1698.53 966.28,1704.70 981.93,1707.69 C997.37,1710.44 1028.28,1715.72 1043.74,1718.26 C1059.19,1720.61 1089.79,1725.08 1104.94,1727.19 C1136.21,1731.06 1199.07,1737.44 1229.91,1739.85 C1245.88,1740.78 1277.61,1742.36 1293.35,1743.00 C1308.51,1743.34 1340.13,1743.59 1356.59,1743.49 C1372.64,1743.00 1404.20,1741.76 1419.63,1740.77 C1435.61,1739.44 1466.83,1736.11 1482.14,1734.05 C1497.27,1731.69 1529.93,1725.32 1545.81,1721.74 C1565.76,1717.10 1583.44,1712.36 1599.59,1707.32 C1617.67,1701.50 1634.07,1694.90 1655.61,1685.21 C1662.91,1681.77 1678.53,1673.94 1684.39,1670.37 C1689.15,1667.46 1703.59,1656.59 1707.48,1652.99 C1712.45,1648.37 1721.24,1636.92 1723.21,1631.94 C1724.69,1628.09 1725.30,1622.21 1724.55,1618.93 C1723.81,1615.98 1719.76,1610.72 1717.00,1608.72 C1712.98,1605.86 1700.67,1601.60 1693.28,1600.38 C1689.29,1599.73 1671.61,1598.31 1665.39,1598.29 C1656.39,1598.27 1620.03,1601.41 1603.91,1603.35 C1593.11,1604.82 1559.94,1610.77 1544.66,1613.90 C1529.54,1617.30 1501.98,1623.78 1489.55,1626.85 C1475.80,1630.46 1443.89,1639.32 1425.73,1644.56 C1394.85,1654.07 1330.20,1674.33 1296.44,1685.09 C1265.58,1694.95 1202.10,1715.09 1169.48,1725.37 C1144.38,1732.84 1090.01,1748.51 1060.75,1756.70 C1045.30,1760.84 1015.05,1768.73 1000.23,1772.48 C985.66,1775.93 955.98,1782.65 940.86,1785.91 C925.06,1788.90 893.45,1794.54 877.65,1797.18 C860.88,1799.73 828.76,1804.38 813.41,1806.48 C797.21,1808.40 764.07,1811.48 749.05,1812.48 C734.08,1813.25 703.26,1814.41 687.41,1814.80 C671.32,1814.88 639.48,1814.78 624.03,1814.34 C608.60,1813.62 577.97,1811.88 562.79,1810.86 C547.43,1809.43 516.62,1806.21 501.17,1804.42 C485.96,1802.32 455.32,1797.69 439.89,1795.17 C424.45,1792.32 392.82,1785.54 376.24,1781.48 C360.84,1777.38 324.83,1767.39 316.45,1764.34 C304.68,1759.89 275.37,1747.67 261.90,1740.70 C255.56,1737.24 239.61,1728.07 236.49,1726.03 C230.11,1721.84 217.87,1711.48 211.78,1706.00 C205.87,1700.48 194.51,1689.22 190.52,1683.62 C186.59,1678.03 179.43,1664.96 177.19,1659.90 C174.43,1653.58 170.73,1637.81 170.49,1630.20 C170.39,1626.44 170.86,1618.78 171.55,1615.07 C173.07,1607.12 177.86,1594.83 181.60,1588.37 C185.01,1582.54 194.38,1570.92 199.47,1565.99 C203.67,1561.95 215.72,1552.46 221.27,1548.91 C227.60,1544.89 240.16,1538.11 247.55,1534.77 C254.17,1531.95 267.85,1526.69 275.05,1524.44 C282.46,1522.27 297.43,1518.46 304.66,1517.07 C311.82,1515.81 329.21,1513.36 333.86,1512.94 C341.44,1512.33 356.96,1511.52 364.76,1511.33 C378.97,1511.34 404.75,1512.67 423.81,1514.61 C439.06,1516.57 474.47,1522.87 485.34,1525.41 C499.91,1529.16 527.33,1536.52 539.71,1540.25 C553.45,1544.84 584.78,1556.74 599.87,1562.56 C615.05,1568.69 643.70,1580.56 656.20,1586.11 C667.66,1591.43 697.27,1606.48 715.03,1615.72 C741.15,1629.79 798.44,1660.83 829.62,1677.81 C858.43,1693.29 908.17,1719.68 938.11,1734.29 C951.16,1740.44 978.59,1753.17 992.98,1759.75 C1011.61,1767.93 1035.98,1777.64 1050.52,1783.33 C1065.10,1788.68 1090.07,1797.29 1109.57,1803.24 C1124.95,1807.64 1158.76,1816.22 1170.69,1818.67 C1185.97,1821.55 1216.66,1826.39 1231.79,1828.35 C1247.70,1829.94 1279.74,1832.22 1295.57,1832.88 C1306.78,1833.17 1342.66,1832.48 1358.26,1831.71 C1373.64,1830.66 1404.12,1827.42 1419.34,1825.38 C1438.66,1822.41 1465.16,1817.19 1480.76,1813.69 C1501.96,1808.46 1525.66,1801.38 1540.21,1796.58 C1547.35,1794.05 1561.42,1788.90 1568.35,1786.28 C1582.64,1780.32 1610.50,1767.53 1623.73,1760.89 C1637.22,1753.51 1666.60,1735.94 1675.32,1729.77 C1681.83,1725.07 1694.38,1715.43 1700.38,1710.54 C1708.62,1703.55 1715.07,1697.65 1722.74,1690.05 C1729.82,1682.69 1738.32,1672.99 1742.19,1667.81 C1747.01,1661.32 1754.10,1649.78 1759.61,1640.06 C1764.33,1631.43 1767.72,1622.18 1769.25,1615.31 C1771.40,1605.75 1772.78,1594.30 1772.37,1586.53 C1772.17,1583.13 1770.91,1574.72 1770.11,1571.53 C1769.29,1568.30 1766.41,1560.43 1764.95,1557.45 C1761.63,1550.76 1753.27,1540.08 1747.97,1535.11 C1743.52,1530.98 1731.58,1522.92 1724.93,1519.70 C1717.81,1516.29 1704.69,1511.96 1697.92,1510.32 C1691.58,1508.81 1675.10,1506.42 1667.94,1505.94 C1660.69,1505.55 1645.75,1505.24 1638.52,1505.50 C1618.43,1506.60 1597.04,1508.43 1580.76,1511.40 C1566.09,1514.29 1534.89,1520.86 1518.50,1524.89 C1503.07,1529.22 1472.07,1539.01 1456.73,1544.03 C1443.63,1548.48 1419.19,1556.93 1407.84,1560.93 C1384.93,1569.75 1313.25,1600.01 1283.74,1612.63 C1250.90,1626.83 1188.69,1653.79 1159.32,1666.55 C1131.79,1678.61 1077.04,1702.33 1049.83,1713.98 C1034.77,1720.28 1005.23,1732.47 990.74,1738.36 C976.10,1744.04 946.68,1755.18 931.90,1760.64 C917.27,1765.74 887.14,1776.01 871.65,1781.18 C856.47,1785.95 826.39,1795.01 811.51,1799.31 C796.76,1803.24 767.48,1810.83 752.48,1814.35 C737.21,1817.66 706.77,1823.92 691.61,1826.87 C676.31,1829.54 644.81,1834.26 629.03,1836.48 C613.42,1838.39 582.41,1841.32 566.85,1842.60 C551.29,1843.57 524.77,1844.70 504.26,1844.85 C488.18,1844.70 456.61,1843.70 440.73,1842.75 C424.82,1841.51 387.80,1837.42 377.51,1835.70 C361.16,1832.66 323.05,1824.11 317.78,1822.69 C307.20,1819.83 294.83,1815.16 289.66,1812.92 C287.30,1811.89 267.24,1802.53 261.54,1799.21 C254.39,1794.99 242.34,1786.84 237.20,1782.68 C230.67,1777.39 221.23,1768.08 216.57,1762.34 C211.97,1756.64 204.36,1743.64 202.34,1737.68 C201.22,1734.32 199.63,1727.40 199.32,1724.63 C199.04,1721.84 199.18,1715.04 199.61,1711.80 C200.05,1708.65 201.95,1702.36 203.21,1699.38 C204.69,1695.94 207.70,1690.79 210.15,1687.51 C214.77,1681.40 224.96,1672.19 230.62,1668.16 C235.91,1664.42 250.69,1656.59 257.36,1653.95 C265.06,1650.97 277.69,1646.97 285.62,1645.04 C292.72,1643.46 307.22,1640.80 314.32,1639.91 C332.25,1637.96 354.37,1637.61 374.98,1637.98 C386.81,1638.35 414.52,1641.11 430.96,1643.26 C446.05,1645.40 478.17,1650.36 496.26,1653.67 C525.87,1659.81 587.68,1674.22 617.00,1681.28 C630.46,1684.80 656.83,1691.98 669.74,1695.63 C699.70,1704.67 759.51,1722.91 789.38,1732.13 C822.20,1742.18 887.96,1762.08 920.90,1771.92 C954.20,1781.58 1016.20,1799.39 1044.89,1807.53 C1059.09,1811.48 1090.04,1819.92 1106.78,1824.41 C1132.44,1830.71 1189.50,1844.14 1220.90,1851.27 C1236.57,1854.28 1267.75,1859.92 1283.25,1862.55 C1298.57,1864.83 1330.19,1868.71 1345.88,1870.27 C1364.67,1871.78 1391.94,1872.86 1407.26,1873.07 C1428.28,1872.92 1453.10,1871.51 1468.75,1870.16 C1476.47,1869.31 1491.74,1867.42 1499.28,1866.40 C1514.96,1863.65 1545.84,1856.92 1560.70,1853.09 C1576.00,1848.56 1608.47,1837.57 1620.24,1832.57 C1627.61,1829.33 1642.15,1822.45 1649.13,1818.94 C1655.65,1815.53 1668.80,1808.28 1676.18,1803.37 C1679.74,1800.99 1694.94,1789.67 1699.54,1785.64 C1705.00,1780.84 1713.53,1771.71 1718.29,1765.49 C1720.55,1762.52 1724.67,1755.70 1726.39,1752.16 C1728.04,1748.71 1730.18,1741.83 1730.75,1738.56 C1731.30,1735.26 1731.02,1728.83 1730.36,1725.72 C1729.66,1722.63 1726.86,1716.74 1724.89,1713.86 C1722.94,1711.03 1717.55,1705.59 1714.43,1703.08 C1709.30,1698.99 1695.24,1691.35 1687.77,1688.45 C1680.52,1685.66 1667.30,1681.13 1661.80,1679.60 C1654.06,1677.47 1616.72,1670.90 1600.11,1668.36 C1583.60,1666.19 1553.41,1663.44 1537.78,1662.44 C1504.40,1660.88 1451.73,1659.78 1418.46,1659.80 C1386.96,1660.36 1324.99,1661.77 1294.51,1662.62 C1260.80,1663.64 1193.07,1665.62 1159.05,1666.57 C1124.82,1667.45 1056.70,1669.11 1022.81,1669.88 C994.92,1670.41 932.54,1671.16 898.06,1671.38 C870.63,1670.77 810.69,1668.91 778.18,1667.67 C763.25,1666.93 733.54,1665.18 718.78,1664.17 C703.86,1662.82 674.11,1659.79 659.27,1658.12 C642.77,1656.11 607.06,1650.68 594.13,1648.11 C577.74,1644.51 549.12,1637.20 536.40,1633.82 C524.01,1630.13 509.12,1624.26 506.41,1623.08 C505.06,1622.49 483.58,1612.53 480.20,1610.70 C474.21,1607.45 460.12,1598.37 454.90,1594.30 C448.65,1589.41 438.01,1579.38 433.12,1573.46 C428.12,1567.38 420.52,1554.68 418.18,1548.43 C417.10,1545.51 415.31,1538.35 414.78,1534.85 C414.30,1531.48 414.27,1524.70 414.59,1521.45 C414.98,1517.68 416.27,1512.11 417.58,1508.48 C418.75,1505.32 421.83,1499.07 423.85,1496.10 C428.24,1489.71 437.75,1480.30 444.24,1475.47 C449.71,1471.41 461.82,1464.43 468.36,1461.30 C474.18,1458.54 489.91,1452.69 497.04,1450.60 C510.57,1446.65 537.40,1441.93 555.16,1440.14 C560.48,1439.68 578.29,1438.85 586.26,1438.71 C600.30,1438.72 629.22,1440.59 647.14,1442.69 C666.73,1445.53 692.31,1450.49 706.84,1453.74 C721.30,1457.37 750.40,1465.68 764.77,1470.34 C779.18,1475.32 807.46,1486.02 821.52,1491.77 C835.27,1497.68 862.54,1510.21 875.73,1516.69 C888.84,1523.40 915.23,1537.82 928.64,1545.66 C938.34,1551.50 966.44,1569.85 979.57,1579.05 C992.32,1588.36 1019.06,1609.36 1027.75,1616.79 C1042.38,1629.78 1061.41,1648.45 1070.27,1658.29 C1075.11,1663.87 1082.62,1672.96 1088.71,1681.16 C1093.94,1688.54 1101.27,1700.81 1103.77,1706.39 C1105.37,1710.02 1108.07,1718.09 1108.68,1721.12 C1109.28,1724.20 1109.53,1731.60 1109.11,1734.01 C1108.40,1737.86 1105.09,1744.63 1102.91,1747.03 C1100.75,1749.35 1095.87,1753.18 1092.79,1754.78 C1086.28,1758.10 1072.09,1761.64 1065.16,1762.47 C1059.42,1763.14 1045.29,1763.53 1037.36,1763.22 C1030.33,1762.81 1018.53,1761.79 1007.96,1760.38 C994.86,1758.38 964.66,1752.00 948.09,1747.58 C930.97,1742.54 901.70,1732.21 891.09,1727.87 C871.74,1719.51 848.65,1708.08 835.41,1700.69 C828.87,1696.83 815.95,1688.75 809.73,1684.61 C805.91,1682.01 792.23,1671.61 786.73,1667.12 C781.28,1662.49 769.52,1651.30 765.53,1646.94 C760.31,1641.22 752.79,1631.20 746.56,1622.05 C742.99,1616.72 736.33,1602.78 734.68,1597.41 C732.91,1591.57 729.93,1575.10 730.20,1567.89 C730.51,1560.67 733.73,1547.01 736.89,1539.63 C739.70,1533.16 747.35,1521.37 752.02,1515.71 C756.16,1510.74 768.61,1499.13 774.64,1494.53 C779.72,1490.67 794.09,1481.48 800.54,1477.99 C804.15,1476.04 820.74,1468.34 827.88,1465.35 C838.02,1461.25 867.28,1452.23 884.51,1447.96 C902.80,1443.93 929.31,1439.40 944.96,1437.19 C953.96,1436.03 990.02,1432.86 1003.39,1431.94 C1019.09,1431.10 1048.16,1431.13 1062.80,1431.31 C1079.71,1431.77 1113.12,1433.08 1129.62,1433.92 C1146.01,1435.20 1177.19,1438.46 1192.08,1440.39 C1206.60,1442.47 1237.88,1447.85 1253.56,1451.01 C1268.71,1454.33 1295.12,1460.84 1314.37,1466.48 C1329.24,1471.20 1352.42,1479.10 1372.80,1487.25 C1379.68,1490.18 1392.88,1496.16 1399.79,1499.72 C1409.09,1504.76 1420.20,1511.49 1424.88,1514.98 C1431.50,1519.93 1445.86,1533.98 1448.42,1537.59 C1449.77,1539.53 1452.35,1545.65 1453.60,1549.37 C1454.64,1552.54 1455.45,1559.79 1455.35,1562.41 C1455.27,1564.30 1453.92,1572.43 1453.25,1575.02 C1452.43,1578.09 1449.74,1582.79 1446.67,1587.27 C1441.14,1595.11 1431.47,1604.94 1424.96,1609.95 C1418.71,1614.74 1409.13,1620.97 1400.44,1626.04 C1394.04,1629.58 1380.63,1636.41 1373.74,1639.47 C1359.19,1645.69 1333.01,1654.99 1315.47,1659.91 C1299.39,1664.16 1270.88,1669.70 1255.67,1672.08 C1240.37,1674.08 1208.74,1676.73 1192.72,1677.54 C1181.56,1677.92 1146.51,1677.56 1131.49,1677.22 C1118.33,1676.59 1094.67,1675.24 1070.45,1672.87 C1041.22,1669.54 977.66,1662.22 943.32,1658.24 C909.92,1654.59 847.47,1648.03 816.31,1645.43 C803.33,1644.67 773.49,1644.45 759.04,1644.76 C743.28,1645.23 715.05,1646.74 696.63,1648.65 C681.50,1650.55 653.23,1655.04 636.94,1658.68 C618.70,1663.05 595.40,1670.13 577.87,1676.98 C567.85,1681.18 558.30,1685.72 550.13,1690.19 C542.34,1694.62 530.49,1702.53 525.05,1707.10 C518.95,1712.26 504.67,1727.19 503.13,1729.05 C499.52,1733.45 496.36,1738.95 494.99,1741.90 C494.80,1742.33 490.69,1752.31 490.03,1754.85 C489.35,1757.56 488.58,1765.00 488.74,1767.86 C488.93,1770.76 490.56,1777.96 491.67,1780.81 C492.80,1783.65 496.72,1790.60 498.82,1793.47 C502.12,1797.93 512.10,1807.57 518.76,1812.31 C524.53,1816.39 537.95,1823.67 544.46,1826.50 C549.08,1828.50 566.61,1834.66 571.19,1835.99 C578.64,1838.06 594.29,1841.87 601.49,1843.35 C617.93,1846.48 646.15,1849.98 660.70,1851.62 C676.97,1853.08 706.45,1853.90 720.06,1854.11 C736.91,1854.09 770.42,1853.67 786.29,1852.97 C802.09,1852.02 833.47,1849.31 849.12,1847.80 C864.79,1845.91 896.36,1841.34 912.14,1838.89 C927.56,1836.21 958.61,1829.94 974.19,1826.61 C989.12,1823.08 1019.30,1815.64 1035.20,1811.33 C1050.20,1806.95 1079.60,1797.97 1094.98,1792.64 C1102.32,1789.95 1116.19,1784.47 1122.71,1781.65 C1129.96,1778.41 1142.50,1771.66 1152.38,1765.75 C1161.03,1760.39 1169.03,1754.23 1173.38,1748.70 C1174.82,1746.82 1176.84,1744.02 1177.36,1742.90 C1178.19,1741.09 1179.15,1736.87 1179.04,1735.16 C1178.91,1733.45 1177.40,1729.73 1176.34,1728.27 C1175.33,1726.93 1169.15,1722.28 1166.85,1721.13 C1161.47,1718.51 1145.82,1714.74 1141.99,1713.96 C1134.15,1712.38 1120.30,1710.82 1109.82,1709.98 C1093.75,1709.04 1064.75,1708.20 1046.33,1708.54 C1031.51,1709.22 1001.24,1711.38 985.83,1712.83 C969.79,1714.59 938.26,1718.44 922.77,1720.52 C907.23,1722.92 876.52,1727.99 861.35,1730.65 C846.31,1733.62 816.35,1739.86 799.59,1743.90 C783.71,1748.07 747.60,1757.82 740.64,1760.17 C733.67,1762.67 719.47,1768.23 711.68,1771.33 C701.44,1775.59 691.22,1780.52 684.83,1784.56 C676.61,1789.79 666.37,1798.44 662.95,1803.18 C660.81,1806.20 657.78,1812.80 657.25,1816.06 C656.72,1819.72 657.42,1825.70 658.81,1829.42 C660.03,1832.58 663.44,1838.10 665.31,1840.56 C669.00,1845.36 679.45,1854.69 686.25,1859.36 C692.17,1863.36 705.17,1870.74 712.05,1873.86 C718.35,1876.62 729.43,1881.39 740.66,1885.55 C754.35,1890.09 789.29,1900.23 801.11,1903.02 C815.99,1906.27 846.62,1911.88 861.62,1914.02 C877.08,1915.91 908.67,1918.84 923.92,1919.72 C939.54,1920.35 971.23,1920.89 986.56,1920.73 C1002.06,1920.23 1033.17,1918.86 1048.77,1918.00 C1064.05,1916.79 1094.83,1914.11 1110.34,1912.65 C1125.84,1910.95 1157.10,1907.34 1172.85,1905.43 C1204.17,1901.12 1266.52,1892.05 1297.03,1886.91 C1312.12,1884.19 1342.30,1878.54 1357.38,1875.62 C1372.48,1872.47 1402.51,1865.92 1417.43,1862.52 C1432.66,1858.66 1462.41,1850.72 1477.70,1846.02 C1493.02,1840.90 1523.49,1829.67 1535.41,1823.98 C1544.44,1819.55 1552.77,1815.07 1559.62,1810.61 C1565.42,1806.77 1576.73,1797.03 1580.80,1791.51 C1582.72,1788.84 1585.55,1782.34 1585.93,1779.46 C1586.26,1776.65 1584.95,1770.35 1583.18,1767.60 C1581.18,1764.58 1576.92,1760.83 1573.39,1758.72 C1567.91,1755.49 1555.42,1751.07 1548.59,1749.76 C1539.61,1748.10 1528.26,1746.46 1518.71,1745.93 C1515.62,1745.76 1498.09,1745.57 1490.55,1745.58 C1468.28,1746.21 1443.18,1748.29 1427.35,1750.02 C1412.02,1751.94 1383.90,1755.70 1371.09,1757.55 C1359.01,1759.46 1324.31,1766.37 1305.62,1770.30 C1274.44,1777.31 1209.06,1792.21 1174.87,1800.08 C1141.99,1807.64 1083.89,1820.70 1058.67,1826.20 C1043.69,1829.20 1013.03,1835.14 997.35,1838.08 C981.98,1840.66 951.15,1845.51 935.69,1847.79 C920.49,1849.67 889.59,1853.01 873.91,1854.46 C858.31,1855.60 831.97,1857.02 812.03,1857.43 C796.48,1857.49 766.20,1856.91 750.64,1856.12 C735.15,1855.05 701.67,1851.84 689.71,1850.19 C674.42,1847.84 644.59,1842.37 629.49,1839.06 C614.28,1835.37 584.65,1827.29 569.54,1822.57 C551.38,1816.48 525.63,1806.54 508.65,1798.76 C487.76,1788.88 470.63,1780.16 458.49,1772.14 C451.66,1767.52 436.05,1756.73 432.47,1753.96 C428.26,1750.68 417.56,1740.90 411.99,1735.09 C406.82,1729.68 398.02,1718.20 394.99,1712.98 C393.18,1709.84 390.08,1703.39 389.03,1700.37 C388.03,1697.42 386.61,1691.23 386.55,1687.81 C386.51,1683.82 388.02,1677.70 389.90,1674.24 C391.63,1671.16 397.16,1665.50 400.47,1663.18 C405.56,1659.67 417.06,1655.14 426.05,1652.67 C432.15,1651.04 446.46,1648.76 455.15,1647.94 C466.01,1647.03 478.90,1646.46 487.21,1646.64 C498.37,1646.96 533.48,1649.56 548.33,1651.64 C559.88,1653.45 592.46,1660.03 607.85,1663.78 C623.14,1667.87 651.74,1676.40 666.10,1682.08 C674.65,1685.61 685.49,1690.82 690.47,1694.01 C693.13,1695.74 700.22,1701.07 701.96,1702.78 C704.72,1705.55 708.71,1711.76 709.38,1714.76 C710.07,1718.10 709.20,1723.59 707.47,1726.81 C705.91,1729.64 701.50,1734.12 698.78,1736.40 C694.03,1740.35 684.94,1745.59 675.63,1749.37 C667.92,1752.34 651.10,1758.23 645.06,1759.80 C636.40,1762.03 600.91,1767.69 589.02,1768.96 C573.49,1770.34 540.18,1772.11 529.07,1772.27 C510.11,1772.26 482.81,1771.05 467.28,1769.81 C451.73,1768.13 423.62,1763.70 406.39,1759.85 C399.14,1758.10 384.99,1754.18 378.02,1752.05 C369.31,1749.22 357.00,1744.65 349.86,1741.78 C340.25,1737.69 329.70,1732.54 323.27,1729.21 C314.74,1724.60 302.49,1717.23 299.24,1714.94 C294.12,1711.30 280.79,1699.81 274.52,1694.05 C266.88,1686.68 260.58,1679.60 256.21,1673.07 C252.87,1668.02 245.57,1654.21 243.37,1647.15 C242.05,1642.85 240.87,1636.29 240.68,1632.22 C240.52,1628.14 241.18,1621.85 242.18,1618.00 C243.22,1614.13 245.82,1608.21 248.07,1604.63 C250.25,1601.19 254.29,1596.33 257.13,1593.55 C262.61,1588.24 274.13,1580.65 281.49,1576.59 C287.53,1573.27 297.76,1569.19 307.17,1566.43 C314.25,1564.48 329.54,1560.42 337.84,1558.50 C349.14,1556.16 361.71,1554.19 369.38,1553.18 C381.22,1551.85 412.54,1549.69 431.47,1549.20 C446.98,1549.20 478.03,1549.51 493.28,1550.06 C508.96,1550.87 540.42,1552.70 555.94,1553.95 C571.81,1555.45 602.48,1558.51 617.28,1560.05 C630.66,1561.67 657.36,1565.08 674.26,1567.69 C705.03,1573.17 769.12,1585.15 802.46,1591.65 C817.20,1594.79 846.06,1601.21 860.18,1604.48 C888.19,1611.80 947.05,1627.49 977.92,1635.86 C1010.83,1644.85 1076.19,1662.61 1108.65,1671.38 C1122.26,1674.98 1155.67,1683.64 1175.47,1688.71 C1193.39,1693.04 1220.25,1699.02 1232.57,1701.69 C1246.55,1704.52 1274.65,1709.82 1288.76,1712.28 C1297.18,1713.64 1334.30,1718.69 1350.13,1720.53 C1365.58,1721.92 1400.78,1724.09 1411.95,1724.24 C1427.31,1724.17 1458.04,1722.89 1473.29,1721.19 C1481.07,1720.18 1496.35,1717.78 1503.75,1716.40 C1508.44,1715.49 1529.13,1710.31 1533.64,1708.94 C1539.92,1707.03 1554.83,1701.37 1562.84,1697.37 C1567.22,1695.18 1585.94,1684.40 1589.48,1681.94 C1593.78,1678.93 1604.90,1667.68 1607.49,1664.10 C1609.65,1661.05 1612.94,1654.11 1613.46,1651.05 C1613.99,1647.59 1613.09,1642.63 1611.42,1639.87 C1609.82,1637.37 1603.73,1633.13 1600.52,1631.66 C1595.24,1629.31 1582.24,1627.38 1573.69,1626.88 C1565.85,1626.45 1552.87,1627.16 1543.04,1628.09 C1524.92,1630.22 1499.90,1634.30 1481.49,1638.29 C1465.77,1642.06 1436.43,1649.76 1422.72,1653.47 C1411.23,1656.85 1385.42,1664.89 1365.87,1671.66 C1336.06,1682.46 1272.08,1705.94 1237.91,1718.61 C1208.83,1729.35 1143.11,1753.37 1119.18,1761.63 C1106.22,1765.89 1078.44,1774.78 1063.63,1779.42 C1048.59,1783.87 1018.59,1792.45 1003.23,1796.45 C988.06,1800.11 958.03,1807.07 942.76,1810.19 C927.27,1813.03 896.45,1818.28 881.13,1820.70 C865.17,1822.76 833.43,1826.46 817.66,1828.11 C802.05,1829.27 770.88,1831.25 755.32,1832.07 C739.89,1832.52 708.99,1833.14 693.52,1833.31 C678.33,1833.15 648.00,1832.52 632.88,1832.06 C617.78,1831.32 585.52,1828.95 569.85,1827.39 C558.04,1826.05 523.18,1820.64 510.01,1818.13 C498.49,1815.51 487.09,1812.26 481.27,1810.46 C474.40,1808.30 461.92,1802.71 456.43,1799.09 C452.81,1796.67 448.31,1792.49 446.21,1789.30 C444.32,1786.33 442.93,1779.53 443.36,1776.53 C443.86,1773.41 447.30,1766.29 449.58,1763.40 C454.24,1757.62 465.72,1748.56 471.90,1744.83 C477.16,1741.68 490.44,1735.27 498.22,1732.17 C505.18,1729.55 516.78,1725.59 526.39,1722.81 C540.95,1718.88 573.01,1712.46 584.37,1710.72 C600.12,1708.58 630.87,1705.42 646.23,1704.28 C661.83,1703.44 693.57,1702.54 708.42,1702.48 C723.39,1702.62 753.12,1703.60 767.94,1704.43 C782.58,1705.54 811.72,1708.52 827.38,1710.62 C846.79,1713.58 872.85,1718.55 887.29,1721.66 C902.81,1725.39 932.29,1733.46 946.22,1737.79 C956.69,1741.21 987.67,1752.83 1001.81,1759.21 C1006.20,1761.24 1023.50,1770.40 1028.21,1773.43 C1035.54,1778.15 1046.48,1787.33 1049.92,1792.20 C1052.15,1795.44 1054.83,1802.28 1054.85,1805.50 C1054.81,1809.08 1052.70,1814.65 1050.13,1817.95 C1046.73,1822.23 1034.31,1830.80 1027.67,1833.95 C1022.40,1836.44 1004.90,1842.73 1000.87,1843.97 C991.41,1846.85 955.85,1854.34 939.80,1857.15 C928.14,1859.00 892.95,1863.29 876.88,1864.84 C860.87,1866.14 829.15,1867.78 813.13,1868.45 C797.28,1868.79 766.11,1868.63 750.63,1868.20 C735.52,1867.49 703.21,1864.82 686.76,1862.83 C679.18,1861.77 663.12,1859.17 656.32,1857.62 C650.17,1856.19 632.99,1850.73 629.22,1849.16 C625.99,1847.80 619.72,1844.50 618.16,1843.47 C615.95,1841.98 610.28,1837.11 609.18,1835.56 C608.37,1834.36 607.18,1831.53 606.92,1830.12 C606.68,1828.60 607.00,1826.21 607.66,1824.69 C608.97,1821.84 612.99,1817.59 616.26,1815.24 C621.60,1811.46 637.98,1804.60 642.84,1802.96 C650.74,1800.36 660.33,1798.02 669.20,1796.44 C683.37,1794.15 714.48,1789.61 731.19,1788.23 C746.51,1787.30 778.53,1786.38 794.47,1786.10 C808.77,1786.01 838.80,1786.57 852.72,1787.20 C873.28,1788.51 899.25,1791.02 914.67,1792.57 C931.44,1794.47 963.24,1798.29 978.28,1800.21 C991.68,1802.19 1017.87,1806.28 1033.66,1809.22 C1066.11,1816.06 1132.79,1830.61 1167.02,1838.32 C1196.53,1845.03 1257.48,1858.76 1288.93,1865.77 C1301.54,1868.35 1329.58,1873.86 1345.01,1876.80 C1360.65,1879.51 1391.72,1884.44 1407.14,1886.65 C1422.37,1888.54 1452.42,1891.48 1467.61,1892.53 C1482.86,1893.38 1511.28,1893.50 1530.24,1892.39 C1552.77,1890.75 1574.07,1888.39 1587.47,1885.23 C1594.62,1883.50 1608.62,1880.03 1614.86,1878.16 C1622.45,1875.81 1631.74,1872.11 1641.11,1867.78 C1648.48,1864.21 1663.54,1856.36 1668.04,1853.35 C1672.59,1850.29 1683.79,1840.77 1689.00,1835.41 C1693.72,1830.52 1702.24,1818.26 1705.09,1812.12 C1708.17,1805.44 1711.34,1792.57 1711.66,1786.73 C1711.79,1783.94 1711.41,1777.06 1710.93,1773.72 C1710.02,1767.68 1704.99,1754.22 1701.08,1747.83 C1696.87,1741.02 1687.47,1730.26 1682.24,1725.39 C1677.78,1721.26 1665.57,1712.09 1659.98,1708.56 C1654.30,1704.99 1638.82,1696.76 1632.47,1694.01 C1613.77,1686.20 1591.31,1678.87 1574.91,1674.47 C1563.96,1671.77 1539.39,1665.84 1519.27,1662.57 C1483.89,1657.70 1417.01,1650.17 1381.18,1646.33 C1366.20,1644.72 1333.14,1641.11 1315.06,1639.10 C1298.10,1637.07 1273.89,1633.54 1260.50,1631.19 C1244.49,1628.04 1205.00,1619.26 1198.07,1617.28 C1191.59,1615.42 1179.77,1610.52 1173.38,1607.44 C1164.40,1603.07 1155.15,1597.28 1149.63,1592.31 C1147.09,1589.99 1142.68,1584.54 1140.87,1581.50 C1139.17,1578.59 1137.24,1572.62 1136.81,1569.56 C1136.41,1566.55 1137.03,1560.48 1137.87,1557.39 C1138.71,1554.37 1141.74,1548.38 1143.76,1545.41 C1147.15,1540.48 1159.34,1529.64 1165.66,1525.65 C1170.70,1522.49 1186.75,1514.76 1190.41,1513.26 C1197.96,1510.20 1212.02,1505.98 1219.22,1504.03 C1226.95,1502.07 1242.90,1498.59 1251.00,1497.11 C1262.57,1495.17 1299.44,1492.05 1311.26,1491.62 C1326.18,1491.40 1356.74,1491.89 1372.04,1492.49 C1387.76,1493.48 1418.36,1495.64 1433.23,1496.80 C1447.26,1498.15 1477.72,1501.48 1494.19,1503.76 C1510.21,1506.21 1542.57,1511.41 1558.92,1514.16 C1565.36,1515.40 1585.46,1519.58 1591.62,1521.49 C1594.24,1522.30 1610.03,1528.35 1614.53,1530.75 C1618.02,1532.64 1620.54,1534.40 1624.75,1537.82 C1627.91,1540.49 1631.50,1544.70 1633.35,1548.14 C1635.00,1551.29 1636.37,1558.40 1636.13,1561.81 C1635.95,1564.08 1633.98,1570.86 1632.75,1573.47 C1630.23,1578.75 1620.32,1592.34 1615.70,1596.96 C1612.32,1600.32 1597.23,1613.34 1590.64,1618.74 C1579.60,1627.52 1558.25,1641.18 1542.38,1650.54 C1532.18,1656.33 1500.57,1672.32 1486.68,1678.70 C1468.36,1686.69 1443.45,1696.45 1428.98,1701.79 C1415.52,1706.49 1387.27,1715.49 1372.79,1719.53 C1357.25,1723.48 1327.25,1730.84 1310.82,1734.30 C1295.86,1737.09 1265.10,1741.92 1249.29,1744.19 C1233.67,1746.15 1203.30,1749.14 1186.52,1750.27 C1171.02,1750.87 1139.78,1751.79 1124.82,1751.85 C1109.31,1751.53 1081.25,1749.92 1066.05,1748.55 C1046.91,1746.45 1020.29,1742.22 1005.46,1739.36 C989.68,1735.87 961.35,1728.08 944.31,1721.92 C939.85,1720.25 922.94,1712.76 918.14,1710.33 C912.32,1707.36 899.42,1699.20 895.04,1695.74 C889.70,1691.50 879.96,1681.17 876.62,1675.66 C874.95,1672.87 871.99,1666.44 871.09,1662.84 C870.19,1659.14 869.61,1651.34 870.15,1647.51 C870.75,1643.51 873.06,1636.16 874.74,1632.92 C878.23,1626.30 886.38,1616.23 892.31,1610.66 C896.99,1606.30 906.23,1599.38 915.40,1593.05 C918.55,1590.88 931.43,1582.92 938.35,1579.50 C946.16,1575.71 980.82,1560.60 996.89,1554.12 C1008.20,1549.78 1042.08,1538.39 1057.18,1533.53 C1071.02,1529.25 1097.20,1521.32 1109.55,1517.67 C1130.99,1511.65 1206.84,1492.80 1239.18,1484.93 C1271.22,1477.31 1347.68,1459.50 1367.35,1455.58 C1379.36,1453.35 1406.20,1448.55 1421.05,1445.99 C1436.27,1443.57 1467.27,1439.08 1483.05,1437.30 C1503.45,1435.41 1533.35,1434.16 1544.44,1434.79 C1552.31,1435.25 1565.50,1437.38 1574.53,1439.60 C1577.64,1440.41 1583.87,1442.13 1587.01,1443.49 C1589.06,1444.39 1593.85,1447.87 1596.40,1450.33 C1600.07,1453.92 1603.15,1458.36 1604.76,1462.33 C1606.09,1465.72 1607.20,1473.60 1607.02,1477.44 C1606.68,1483.46 1603.09,1494.55 1599.31,1502.53 C1596.25,1508.87 1589.80,1518.81 1583.14,1526.77 C1577.58,1533.13 1564.65,1547.70 1562.03,1550.43 C1554.01,1558.64 1528.76,1578.81 1517.15,1587.97 C1503.72,1598.08 1478.22,1615.91 1465.61,1624.14 C1452.50,1632.28 1426.09,1648.31 1413.20,1655.71 C1399.76,1663.14 1372.50,1677.81 1358.67,1685.06 C1344.93,1691.78 1317.03,1705.07 1302.87,1711.63 C1288.69,1717.89 1260.19,1730.06 1245.88,1735.97 C1231.39,1741.65 1202.55,1752.64 1188.19,1757.94 C1173.36,1763.02 1143.75,1772.82 1128.99,1777.55 C1114.15,1781.97 1083.85,1790.63 1068.39,1794.87 C1053.51,1798.64 1023.31,1805.88 1008.01,1809.34 C993.29,1812.32 963.80,1817.97 946.98,1820.69 C930.99,1823.00 903.28,1826.30 886.92,1826.60 C879.89,1826.68 865.01,1824.66 862.62,1822.69 C861.70,1821.92 860.60,1820.08 860.14,1818.88 C862.11,1815.66 864.76,1813.08 868.66,1811.16 C871.95,1809.59 887.18,1804.29 894.95,1801.80 C907.34,1798.17 940.37,1790.53 955.98,1787.16 C970.87,1784.34 1001.13,1778.90 1016.50,1776.28 C1031.99,1773.94 1062.80,1769.59 1078.12,1767.57 C1093.61,1765.83 1124.77,1762.67 1140.80,1761.45 C1156.73,1760.56 1187.99,1759.12 1203.56,1758.82 C1219.41,1758.82 1249.71,1759.68 1263.93,1760.63 C1280.99,1762.28 1319.82,1768.61 1326.27,1770.61 C1331.96,1772.38 1348.28,1780.25 1352.03,1783.21 C1354.43,1785.13 1358.83,1789.60 1360.48,1792.30 C1362.33,1795.41 1363.77,1800.72 1363.73,1804.19 C1363.64,1807.27 1361.32,1813.62 1359.99,1816.28 C1358.19,1819.75 1354.14,1824.25 1350.85,1826.83 C1344.49,1831.82 1332.75,1839.90 1326.27,1843.33 C1319.78,1846.75 1304.02,1853.41 1297.93,1855.58 C1293.79,1857.04 1275.67,1862.41 1267.83,1864.44 C1255.08,1867.52 1216.95,1873.49 1207.30,1874.66 C1195.59,1875.92 1164.27,1878.04 1149.17,1878.90 C1115.77,1880.42 1053.80,1883.02 1025.23,1884.09 C998.85,1884.82 935.04,1886.29 897.61,1887.02 C866.23,1887.55 797.10,1888.68 759.36,1889.28 C724.92,1889.81 664.74,1890.72 639.01,1891.09 C620.75,1891.20 589.46,1891.14 576.43,1890.96 C561.89,1890.41 531.20,1889.04 516.06,1887.58 C500.09,1885.61 461.96,1878.56 455.59,1876.40 C450.04,1874.48 434.68,1867.61 430.94,1865.45 C428.58,1864.08 422.74,1859.98 420.13,1857.84 C417.56,1855.71 412.67,1850.41 410.58,1847.46 C408.56,1844.57 405.81,1838.39 404.91,1835.12 C404.05,1831.89 403.66,1825.15 403.95,1821.67 C404.28,1818.22 406.32,1810.96 407.78,1807.48 C410.27,1801.66 418.84,1789.66 423.98,1784.35 C429.08,1779.12 438.20,1771.42 445.18,1766.30 C455.22,1759.16 486.77,1741.33 495.78,1737.42 C503.57,1734.05 538.67,1721.30 554.46,1716.03 C570.23,1711.21 601.77,1703.18 617.77,1699.68 C632.65,1696.65 661.06,1691.22 674.60,1688.82 C688.70,1686.63 722.23,1682.34 737.96,1680.47 C768.63,1677.22 833.90,1670.59 868.50,1667.20 C903.86,1664.00 971.01,1658.07 1002.80,1655.35 C1008.42,1654.88 1021.10,1653.84 1025.93,1653.55 C1038.04,1652.97 1039.43,1653.35 1040.62,1654.12 C1032.13,1657.66 1026.36,1659.51 1017.74,1661.90 C1004.94,1665.28 972.18,1673.06 956.48,1676.65 C925.82,1683.19 861.10,1696.36 827.03,1702.99 C793.49,1708.95 731.73,1719.63 703.52,1724.34 C682.47,1727.52 653.33,1731.13 640.57,1732.51 C626.18,1733.79 595.69,1736.21 579.59,1737.36 C564.19,1738.11 531.81,1738.35 516.32,1737.96 C501.16,1737.29 465.91,1733.68 454.34,1731.37 C447.51,1729.99 429.60,1725.15 422.31,1722.95 C412.79,1719.95 403.05,1716.16 397.13,1712.68 C388.63,1707.65 378.84,1699.92 375.00,1695.02 C372.68,1691.99 369.12,1685.28 368.32,1681.95 C367.47,1678.16 367.76,1672.09 368.99,1668.46 C370.09,1665.31 373.58,1659.95 375.58,1657.60 C377.69,1655.13 383.28,1650.25 386.49,1647.91 C391.04,1644.63 407.01,1636.43 412.29,1634.10 C418.52,1631.40 430.25,1627.99 440.15,1625.42 C459.43,1620.66 485.63,1615.38 504.56,1612.49 C520.58,1610.39 552.68,1606.96 568.41,1605.40 C583.42,1604.27 614.25,1602.24 630.08,1601.34 C662.10,1600.30 723.73,1598.63 753.35,1598.01 C777.84,1597.69 842.78,1598.27 875.59,1598.77 C908.59,1599.47 976.76,1601.02 1011.94,1601.87 C1043.64,1602.81 1111.16,1605.25 1146.98,1606.75 C1160.40,1607.51 1185.52,1609.03 1197.21,1609.79 C1216.82,1611.34 1246.13,1614.41 1259.05,1615.92 C1263.77,1616.53 1283.45,1619.78 1289.33,1620.95 C1292.09,1621.48 1296.46,1623.87 1296.38,1624.26" fill="none" stroke="rgb(113, 83, 65)" stroke-width="30.00" stroke-opacity="1.00" stroke-linejoin="round"/>
<path d="M1410.10,1554.09 C1409.85,1553.92 1408.31,1551.88 1407.82,1550.85 C1407.39,1549.90 1407.63,1546.95 1408.10,1545.85 C1408.81,1544.35 1414.76,1538.84 1417.37,1537.01 C1423.83,1532.60 1432.97,1527.92 1442.73,1523.27 C1458.04,1516.18 1488.73,1502.33 1504.10,1495.57 C1519.60,1489.20 1547.09,1478.67 1560.54,1473.64 C1573.90,1468.93 1598.36,1461.10 1617.59,1455.73 C1633.57,1451.50 1662.36,1444.66 1679.08,1442.19 C1689.44,1440.84 1697.75,1440.03 1708.93,1439.33 C1716.83,1438.99 1732.29,1438.84 1740.16,1439.30 C1748.11,1439.89 1765.46,1442.11 1771.28,1443.35 C1779.26,1445.07 1795.20,1449.82 1801.23,1452.30 C1808.30,1455.22 1821.59,1462.11 1826.87,1465.76 C1833.29,1470.23 1844.64,1480.31 1849.35,1485.95 C1854.02,1491.59 1861.48,1503.36 1864.61,1510.71 C1867.73,1518.08 1870.99,1530.85 1871.85,1539.00 C1872.69,1547.14 1872.02,1561.71 1870.81,1569.33 C1869.63,1576.61 1865.51,1590.63 1862.85,1597.34 C1860.15,1604.08 1852.95,1617.59 1848.75,1624.05 C1845.03,1629.74 1835.29,1641.96 1830.12,1647.54 C1824.47,1653.63 1815.32,1661.95 1808.59,1667.62 C1802.77,1672.27 1793.23,1679.44 1784.90,1685.00 C1778.73,1688.94 1766.07,1696.58 1759.75,1700.21 C1753.30,1703.69 1740.12,1710.42 1732.96,1713.79 C1721.33,1718.94 1688.45,1731.32 1673.66,1736.40 C1659.62,1740.96 1630.42,1748.43 1616.21,1751.57 C1601.44,1754.46 1571.11,1759.51 1556.00,1761.43 C1540.69,1763.06 1510.57,1765.37 1495.58,1766.06 C1476.70,1766.56 1448.39,1766.16 1432.88,1765.63 C1421.50,1765.14 1388.83,1762.29 1373.73,1760.43 C1353.48,1757.67 1325.90,1752.76 1310.90,1749.66 C1295.00,1745.93 1270.14,1739.38 1249.47,1732.78 C1244.46,1731.10 1228.00,1725.02 1221.34,1721.72 C1216.26,1719.18 1198.26,1708.55 1195.13,1706.23 C1190.78,1702.97 1186.71,1698.09 1185.47,1695.76 C1184.77,1694.40 1183.31,1690.47 1182.96,1688.92 C1182.55,1686.97 1182.72,1684.09 1183.34,1682.17 C1184.56,1678.64 1188.58,1673.66 1191.97,1670.94 C1197.28,1666.76 1212.77,1659.54 1219.79,1657.34 C1224.83,1655.81 1240.88,1651.51 1246.13,1650.30 C1258.16,1647.62 1290.32,1644.33 1305.27,1642.92 C1322.25,1641.57 1353.93,1639.79 1368.63,1639.35 C1382.98,1639.16 1414.51,1639.61 1430.72,1640.00 C1447.01,1640.70 1479.76,1642.29 1496.22,1643.17 C1511.39,1644.17 1542.54,1646.61 1554.90,1648.06 C1569.78,1650.06 1600.50,1654.47 1616.34,1656.87 C1630.91,1659.55 1659.86,1666.14 1675.54,1670.20 C1685.15,1672.90 1697.88,1676.98 1705.03,1679.49 C1711.89,1682.06 1724.38,1687.09 1732.82,1691.09 C1740.22,1694.67 1752.93,1702.23 1759.55,1707.50 C1760.76,1708.46 1769.55,1715.78 1769.87,1716.07 C1773.61,1719.46 1776.58,1723.66 1778.26,1726.98 C1781.02,1732.46 1783.45,1738.02 1784.06,1741.21 C1784.63,1744.41 1783.91,1751.23 1782.77,1754.71 C1781.70,1757.87 1778.31,1763.52 1776.31,1766.05 C1774.19,1768.71 1769.03,1773.82 1766.14,1776.01 C1760.21,1780.44 1747.39,1787.63 1739.39,1791.05 C1732.48,1793.92 1716.58,1799.31 1709.60,1801.12 C1695.07,1804.75 1667.76,1809.65 1648.44,1811.99 C1628.79,1813.87 1601.46,1815.33 1585.81,1815.77 C1569.81,1815.96 1539.21,1815.42 1524.03,1814.98 C1508.55,1814.19 1477.88,1812.31 1462.68,1811.22 C1432.00,1808.57 1371.52,1801.95 1342.20,1798.54 C1329.05,1796.89 1297.26,1792.03 1281.04,1789.39 C1266.59,1786.84 1235.49,1781.24 1218.84,1778.19 C1202.77,1775.00 1170.29,1768.21 1153.88,1764.61 C1120.67,1756.47 1064.03,1741.11 1035.04,1732.56 C1006.56,1723.32 955.55,1705.66 936.50,1699.01" fill="none" stroke="rgb(113, 83, 65)" stroke-width="30.00" stroke-opacity="1.00" stroke-linejoin="round"/>
<path d="M787.01,1717.98 C772.54,1718.32 742.40,1719.48 727.00,1720.55 C710.99,1721.42 682.12,1722.31 665.67,1722.29 C649.46,1721.88 616.81,1720.15 601.08,1719.17 C584.46,1717.76 560.95,1714.02 540.55,1710.05 C529.62,1707.67 517.22,1704.34 509.51,1702.09 C501.88,1699.72 486.93,1694.55 479.48,1691.70 C464.10,1685.53 434.61,1671.58 421.88,1664.55 C414.93,1660.56 399.30,1651.04 394.62,1647.93 C378.73,1637.04 358.95,1621.26 345.97,1609.03 C342.60,1605.77 330.78,1592.86 326.10,1587.30 C321.51,1581.62 311.89,1568.05 308.67,1562.74 C304.56,1555.91 299.00,1544.27 294.57,1533.78 C292.05,1527.69 288.42,1512.76 288.04,1507.16 C287.97,1506.15 288.01,1496.16 288.21,1493.10 C288.52,1488.80 289.86,1481.82 291.25,1478.01 C292.51,1474.66 296.28,1467.65 298.63,1464.63 C301.12,1461.49 307.08,1455.70 310.16,1453.46 C315.30,1449.76 329.94,1443.19 337.71,1441.13 C345.00,1439.23 359.83,1436.93 368.64,1436.46 C375.54,1436.10 389.59,1436.23 399.47,1436.91 C406.69,1437.57 424.24,1439.82 428.64,1440.62 C435.65,1441.97 450.07,1445.16 457.36,1446.98 C464.66,1448.95 479.57,1453.58 487.20,1456.16 C502.73,1461.72 527.90,1472.65 545.00,1480.95 C553.37,1485.18 588.51,1505.06 596.98,1510.20 C609.40,1518.01 634.32,1534.15 646.82,1542.47 C659.92,1551.52 686.87,1570.49 699.60,1579.89 C712.42,1589.68 737.50,1609.19 749.75,1618.91 C761.97,1629.04 785.69,1649.91 796.51,1660.09 C801.77,1665.23 812.81,1676.55 818.40,1682.41 C823.81,1688.38 834.32,1700.24 839.17,1706.02 C848.93,1717.94 863.76,1739.60 867.87,1745.68" fill="none" stroke="rgb(113, 83, 65)" stroke-width="30.00" stroke-opacity="1.00" stroke-linejoin="round"/>
<path d="M1171.37,1636.17 C1169.64,1635.84 1164.88,1634.94 1164.07,1634.34 C1163.55,1633.96 1162.82,1632.96 1161.86,1631.35 C1162.81,1628.83 1164.42,1627.34 1168.29,1625.17 C1173.83,1622.22 1188.58,1615.03 1197.15,1611.20 C1210.21,1605.82 1243.74,1593.38 1255.87,1589.49 C1270.09,1585.24 1299.80,1577.32 1314.67,1573.83 C1326.57,1571.27 1361.82,1565.16 1377.19,1562.96 C1388.69,1561.46 1425.68,1558.15 1440.49,1557.68 C1446.10,1557.58 1464.36,1558.07 1472.12,1558.55 C1479.42,1559.13 1494.57,1560.73 1500.96,1561.93 C1505.42,1562.78 1522.35,1567.32 1527.89,1569.54 C1531.77,1571.11 1536.42,1573.52 1539.83,1575.68 C1543.22,1577.87 1547.51,1581.74 1549.59,1584.76 C1551.49,1587.61 1553.20,1594.28 1553.08,1597.38 C1552.91,1600.60 1550.61,1608.19 1548.88,1611.49 C1545.33,1618.11 1535.90,1629.45 1530.79,1634.33 C1528.14,1636.85 1513.87,1648.73 1509.66,1651.96 C1501.16,1658.42 1473.38,1675.18 1458.66,1683.65 C1443.56,1691.78 1416.91,1704.77 1402.92,1711.05 C1388.27,1717.32 1358.46,1729.04 1343.35,1734.78 C1328.74,1740.04 1299.69,1750.26 1285.06,1755.06 C1271.52,1759.27 1241.77,1767.62 1227.24,1771.52 C1211.36,1775.53 1179.37,1783.30 1163.26,1787.06 C1147.95,1790.25 1117.27,1796.35 1101.91,1799.26 C1086.56,1801.91 1055.56,1806.97 1039.92,1809.38 C1024.05,1811.59 992.59,1815.74 977.01,1817.69 C961.92,1819.34 931.53,1822.44 916.23,1823.88 C900.45,1825.03 867.82,1827.02 850.95,1827.86 C835.13,1828.43 804.72,1829.40 790.13,1829.80 C781.20,1829.89 748.14,1828.91 734.33,1828.39 C717.23,1827.62 684.37,1825.88 667.31,1824.53 C651.41,1822.99 622.13,1819.50 606.25,1817.23 C591.08,1814.68 555.53,1808.20 547.57,1806.11 C539.81,1804.00 527.06,1799.51 520.06,1796.81 C515.42,1794.93 510.81,1792.50 510.51,1791.42 C510.43,1791.10 510.51,1790.38 510.75,1789.24 C513.34,1788.62 516.17,1788.60 520.44,1789.06 C532.02,1790.61 611.52,1805.51 645.78,1811.89 C663.57,1814.85 695.51,1819.74 709.65,1821.68 C723.20,1823.35 751.36,1826.57 765.96,1828.12 C782.74,1829.59 813.46,1831.60 829.26,1832.55 C846.06,1833.33 878.92,1834.59 894.40,1834.80 C909.70,1834.76 940.62,1834.30 956.24,1833.89 C970.79,1833.12 1000.04,1831.29 1014.74,1830.21 C1030.32,1828.81 1063.15,1825.06 1079.50,1823.03 C1094.75,1820.85 1126.43,1816.09 1142.86,1813.52 C1158.88,1810.73 1190.47,1804.89 1206.04,1801.83 C1224.89,1797.69 1258.79,1789.26 1274.73,1785.10 C1295.02,1779.78 1295.70,1779.71 1297.06,1779.83 C1294.12,1782.65 1281.49,1790.89 1274.62,1795.32 C1267.82,1799.55 1252.10,1808.97 1247.10,1811.64 C1233.73,1818.41 1202.01,1833.03 1191.59,1837.20 C1174.50,1843.69 1152.47,1851.08 1134.21,1856.22 C1116.64,1860.79 1088.60,1866.16 1073.20,1868.26 C1057.58,1870.11 1029.91,1871.31 1010.67,1871.33 C1005.48,1871.26 988.01,1870.50 980.64,1870.01 C965.12,1868.57 931.18,1862.81 915.08,1859.53 C904.93,1857.19 894.98,1854.12 888.03,1850.38 C885.91,1849.21 883.74,1846.74 883.03,1845.71 C883.87,1843.23 884.74,1841.97 886.45,1841.41 C890.27,1840.17 907.31,1838.46 915.40,1838.86 C944.95,1840.38 1011.05,1844.01 1047.59,1846.10 C1060.61,1846.82 1099.70,1848.78 1106.72,1848.82 C1120.95,1848.69 1152.00,1848.31 1168.82,1848.06 C1184.53,1847.73 1219.76,1846.81 1229.21,1845.08 C1232.30,1844.51 1237.15,1843.21 1238.12,1842.96 C1233.22,1841.61 1220.18,1841.39 1214.47,1841.32 C1198.62,1841.22 1164.49,1840.95 1146.22,1840.77 C1111.23,1839.82 1046.53,1837.51 1016.84,1836.14 C1000.73,1835.15 971.37,1832.89 958.12,1831.63 C942.44,1829.92 904.28,1825.46 895.76,1823.99 C888.82,1822.78 877.49,1819.84 875.40,1819.30 C875.40,1819.30 875.53,1818.19 875.53,1818.19 C905.67,1816.34 966.09,1812.35 996.50,1809.60 C1012.79,1807.90 1044.79,1804.33 1060.51,1802.47 C1076.54,1800.40 1108.30,1796.08 1124.03,1793.84 C1139.65,1791.41 1170.64,1786.32 1186.00,1783.66 C1201.69,1780.58 1232.41,1774.18 1247.45,1770.86 C1262.92,1767.05 1292.87,1758.83 1307.38,1754.69 C1322.69,1749.92 1352.11,1740.48 1366.63,1735.41 C1373.97,1732.68 1387.80,1727.36 1394.30,1724.77 C1402.34,1721.25 1418.06,1713.69 1422.88,1710.87 C1428.12,1707.78 1439.80,1699.59 1445.42,1694.17 C1447.88,1691.78 1452.76,1686.00 1453.06,1684.70 C1453.32,1683.57 1452.91,1681.79 1452.39,1680.81 C1449.10,1679.87 1445.63,1680.01 1440.91,1681.06 C1431.00,1683.52 1420.20,1686.73 1408.52,1690.76 C1397.81,1694.69 1356.45,1710.85 1348.90,1712.85 C1344.98,1713.85 1344.50,1713.75 1343.71,1713.02 C1346.85,1710.00 1349.08,1708.13 1351.94,1706.59 C1378.49,1692.27 1419.93,1674.78 1422.77,1673.79 C1427.01,1672.32 1433.89,1670.73 1435.81,1669.14 C1437.79,1667.44 1446.75,1651.96 1451.28,1644.64 C1456.89,1635.95 1460.87,1630.49 1462.37,1628.44 C1461.90,1627.91 1461.36,1628.03 1459.64,1629.18 C1459.32,1629.40 1420.35,1654.14 1404.30,1664.36 C1389.91,1673.23 1363.56,1689.14 1349.70,1696.57 C1337.33,1702.93 1311.13,1716.12 1297.32,1722.94 C1278.50,1731.85 1254.32,1742.35 1239.99,1748.46 C1225.34,1754.35 1195.69,1765.24 1180.47,1770.31 C1165.08,1775.13 1138.66,1782.67 1119.21,1787.34 C1103.73,1790.74 1073.07,1796.67 1057.87,1799.12 C1042.56,1801.33 1007.86,1805.51 996.85,1806.44 C981.14,1807.59 949.95,1809.09 934.59,1809.42 C918.72,1809.40 887.44,1808.54 872.14,1807.69 C856.50,1806.46 821.75,1802.67 809.58,1800.81 C792.19,1797.86 756.80,1791.14 749.18,1789.10 C744.51,1787.80 727.11,1782.59 718.93,1780.12 C709.23,1776.99 695.92,1772.12 689.16,1769.37 C669.63,1761.08 660.25,1755.38 656.44,1752.18 C659.47,1751.31 662.63,1751.07 667.26,1751.18 C700.08,1752.66 781.53,1756.24 794.18,1756.11 C799.79,1755.96 817.59,1754.96 820.74,1754.39 C824.19,1753.76 827.54,1752.29 828.41,1751.92 C821.81,1750.81 811.70,1750.81 806.15,1750.80 C790.57,1750.85 756.47,1750.90 737.95,1750.89 C720.89,1750.56 685.99,1749.51 669.38,1748.57 C654.43,1747.35 625.32,1744.69 611.16,1743.24 C593.22,1741.03 556.98,1735.40 547.60,1733.43 C538.25,1731.35 525.00,1727.72 519.71,1726.27 C519.71,1726.27 572.25,1744.08 572.25,1744.08" fill="none" stroke="rgb(111, 86, 79)" stroke-width="30.00" stroke-opacity="1.00" stroke-linejoin="round"/>
<path d="M1000.00,1800.00 C1346.17,1791.65 1633.21,1533.43 1604.69,1015.85 C1594.66,627.50 1302.32,202.37 1003.00,200.00 C713.71,210.15 419.48,595.25 405.88,1013.96 C386.82,1512.61 663.97,1780.41 1000.00,1800.00 Z" fill="none" stroke="rgb(255, 255, 255)" stroke-width="23.40" stroke-opacity="1.00" stroke-linejoin="miter"/>
<path d="M1030.69,208.15 C1024.25,207.39 1011.81,205.94 1006.15,206.20 C993.47,206.91 959.05,208.97 946.54,210.93 C938.80,212.15 917.29,216.94 911.46,218.72 C898.30,222.82 871.01,233.36 856.86,239.80 C842.53,246.60 813.65,262.55 799.01,271.75 C787.82,279.02 760.40,299.03 747.99,308.77 C735.48,319.01 710.32,340.89 698.15,352.06 C686.39,363.26 659.31,390.70 653.35,397.39 C642.40,410.07 621.88,435.66 612.30,448.58 C603.28,461.59 585.62,487.59 576.98,500.58 C563.78,520.97 551.77,541.23 543.32,555.60 C535.21,570.03 519.12,599.13 512.53,612.88 C509.38,619.77 503.68,633.29 501.13,639.92 C497.72,649.43 493.77,663.23 492.00,671.76 C490.24,680.38 488.26,697.16 488.10,704.94 C487.95,712.84 489.62,727.25 491.43,733.75 C492.35,736.99 495.03,744.05 496.07,746.01 C497.60,748.87 502.57,755.67 505.23,758.54 C507.91,761.39 514.01,766.58 517.43,768.91 C520.87,771.23 528.49,775.33 532.25,776.88 C536.02,778.41 543.51,780.48 547.22,781.02 C550.93,781.52 558.56,781.55 561.92,781.06 C567.99,780.14 581.53,774.76 587.95,770.72 C594.02,766.86 607.02,755.69 612.89,749.87 C618.80,743.98 627.42,734.11 634.89,724.85 C639.70,718.73 648.91,706.13 653.30,699.64 C657.55,693.03 665.76,679.69 670.42,673.41 C675.04,667.21 685.47,655.52 690.80,650.57 C696.23,645.56 708.83,636.13 715.58,632.03 C718.96,629.99 725.82,626.27 729.66,624.40 C734.00,622.31 740.63,620.49 744.21,620.44 C747.77,620.44 754.75,622.37 758.16,624.28 C761.57,626.25 768.40,632.25 771.49,635.98 C775.56,640.93 782.24,651.33 785.19,656.81 C787.76,661.60 793.95,675.15 796.83,682.08 C799.69,689.44 805.34,705.38 808.13,713.97 C813.65,732.54 824.80,768.74 830.53,785.29 C836.32,801.04 848.11,828.39 855.39,842.68 C860.32,852.14 870.93,868.90 876.33,875.76 C881.74,882.58 893.14,893.67 898.61,897.40 C901.47,899.34 907.39,902.20 910.41,903.11 C913.44,904.00 919.64,904.76 922.81,904.63 C925.98,904.47 932.48,903.13 935.80,901.96 C942.17,899.64 954.48,891.84 959.71,887.54 C964.97,883.20 975.84,872.30 981.45,865.75 C986.34,860.02 998.72,843.53 1004.66,835.01 C1010.70,825.85 1022.67,807.88 1028.30,800.64 C1033.90,793.48 1044.37,782.51 1049.24,778.69 C1054.11,774.91 1063.17,770.67 1067.27,770.25 C1069.50,770.04 1073.72,770.27 1075.92,770.95 C1078.03,771.64 1082.05,774.07 1083.96,775.81 C1085.86,777.58 1089.45,782.17 1091.14,785.00 C1094.51,790.70 1100.45,806.50 1102.92,816.35 C1107.80,836.92 1117.73,874.50 1122.83,891.32 C1125.41,899.24 1132.28,918.77 1135.36,926.63 C1139.45,936.82 1147.98,954.31 1152.41,961.61 C1154.77,965.49 1159.24,971.90 1161.47,974.40 C1163.80,976.96 1168.60,980.73 1171.06,981.93 C1173.53,983.10 1178.60,984.08 1181.20,983.89 C1183.89,983.65 1189.05,981.87 1191.67,980.54 C1194.13,979.26 1199.37,975.42 1202.04,972.92 C1207.39,967.88 1218.87,952.79 1224.67,943.20 C1229.91,934.36 1233.51,928.52 1236.49,924.38 C1239.34,920.46 1244.81,914.30 1247.43,912.05 C1250.04,909.84 1255.04,907.10 1257.43,906.56 C1259.90,906.05 1264.06,906.73 1265.92,907.52 C1267.52,908.23 1270.55,910.53 1272.02,912.14 C1274.95,915.41 1280.36,925.65 1282.83,932.62 C1286.30,942.47 1296.52,986.54 1301.54,1004.93 C1304.20,1013.89 1309.81,1031.36 1312.76,1039.86 C1316.05,1048.92 1323.50,1067.96 1327.45,1077.23 C1331.54,1086.34 1340.17,1104.07 1344.70,1112.68 C1351.04,1124.11 1358.36,1135.59 1362.38,1140.27 C1364.38,1142.59 1368.16,1146.09 1369.95,1147.27 C1371.73,1148.43 1375.08,1149.62 1376.65,1149.65 C1378.21,1149.65 1381.84,1148.24 1383.47,1146.67 C1385.27,1144.87 1388.51,1139.15 1389.95,1135.22 C1391.37,1131.23 1393.86,1121.12 1394.92,1115.00 C1395.64,1110.80 1397.90,1093.33 1398.72,1088.68 C1399.73,1083.06 1402.01,1074.89 1403.28,1072.35 C1403.92,1071.12 1405.27,1069.41 1405.97,1068.93 C1406.68,1068.50 1408.16,1068.37 1408.93,1068.68 C1411.12,1069.65 1415.40,1076.64 1417.17,1080.72 C1420.23,1087.83 1428.07,1114.44 1433.42,1136.17 C1438.20,1157.14 1447.87,1197.56 1452.81,1215.45 C1455.30,1223.82 1460.31,1239.37 1462.83,1246.56 C1465.37,1253.36 1472.77,1271.67 1478.03,1281.07 C1481.01,1286.35 1487.06,1294.88 1490.12,1298.14 C1493.19,1301.34 1499.21,1305.60 1502.57,1306.92 C1508.26,1309.11 1520.40,1311.46 1525.63,1311.38 C1527.96,1311.34 1533.83,1310.56 1537.09,1309.52 C1540.80,1308.31 1547.93,1303.79 1551.04,1300.69 C1553.69,1298.00 1568.80,1276.82 1569.40,1275.70 C1573.32,1268.30 1574.25,1261.29 1577.53,1249.78 C1578.28,1247.13 1583.34,1232.66 1585.72,1226.12 C1588.30,1218.87 1592.82,1198.97 1594.53,1187.39 C1595.52,1180.58 1598.81,1141.47 1599.80,1123.23 C1600.59,1105.85 1601.97,1074.24 1602.57,1060.01 C1602.85,1043.73 1603.06,1015.41 1602.04,1001.63 C1599.97,980.12 1596.62,955.64 1594.70,941.94 C1592.24,925.76 1586.89,892.41 1583.99,875.24 C1580.87,858.74 1574.15,827.09 1570.18,811.14 C1566.01,795.59 1557.07,765.66 1552.29,751.24 C1547.07,736.59 1535.99,706.84 1530.15,691.73 C1524.18,677.53 1511.76,648.84 1505.31,634.36 C1498.36,619.47 1484.34,590.35 1477.29,576.12 C1470.26,562.65 1457.74,539.76 1445.66,519.79 C1436.23,504.97 1417.80,478.24 1408.84,465.59 C1401.47,455.39 1386.99,435.44 1374.72,420.62 C1368.94,413.96 1352.06,396.04 1336.56,380.68 C1325.05,369.37 1301.25,346.32 1288.89,334.86 C1279.20,326.08 1251.14,302.45 1238.19,292.06 C1225.39,282.18 1199.93,263.96 1186.73,255.91 C1177.74,250.74 1167.33,245.29 1157.85,240.89 C1140.96,233.35 1118.60,225.08 1100.63,220.10 C1093.31,218.21 1076.04,214.28 1071.35,213.51 C1062.89,212.22 1046.85,210.23 1039.19,209.34 C1034.35,208.71 1030.89,208.17 1030.69,208.15 Z" fill="none" stroke="rgb(230, 191, 135)" stroke-width="30.00" stroke-opacity="1.00" stroke-linejoin="round"/>
<path d="M1332.35,1610.53 C1330.76,1607.96 1329.55,1606.60 1328.51,1606.72 C1328.07,1606.77 1323.90,1608.20 1322.80,1608.58 C1320.85,1609.27 1319.58,1609.20 1317.63,1608.50 C1318.31,1606.03 1320.60,1602.40 1323.67,1600.04 C1330.03,1595.28 1339.89,1593.58 1343.81,1593.51 C1343.81,1593.51 1344.83,1595.91 1344.83,1595.91 C1343.43,1597.94 1339.19,1601.27 1335.10,1603.61 C1326.03,1608.70 1322.28,1608.58 1321.51,1608.24 C1321.51,1608.24 1330.06,1604.11 1330.06,1604.11" fill="none" stroke="rgb(255, 255, 255)" stroke-width="30.00" stroke-opacity="0.31" stroke-linejoin="round"/>
<path d="M1108.55,1646.09 C1104.40,1643.54 1100.62,1642.07 1096.15,1641.82 C1093.45,1641.69 1082.53,1641.86 1081.55,1641.73 C1078.98,1641.39 1076.42,1640.59 1075.36,1639.90 C1075.58,1638.68 1076.49,1636.70 1077.57,1635.60 C1078.86,1634.30 1086.87,1630.80 1090.64,1629.74 C1095.43,1628.46 1101.32,1628.51 1105.35,1629.62 C1105.95,1630.88 1106.52,1632.87 1106.19,1633.84 C1105.46,1635.87 1098.58,1640.30 1095.30,1641.66 C1092.39,1642.82 1085.40,1644.40 1083.31,1644.39 C1081.64,1644.38 1078.85,1644.02 1077.22,1643.69 C1077.22,1643.69 1076.59,1641.03 1076.59,1641.03 C1079.21,1638.97 1083.28,1636.75 1087.04,1635.48 C1088.62,1634.96 1091.70,1634.18 1093.81,1633.77 C1096.01,1633.34 1097.82,1633.43 1100.04,1633.91 C1099.73,1634.98 1098.53,1636.59 1097.15,1637.42 C1092.17,1640.34 1081.07,1639.99 1075.96,1639.54 C1075.96,1639.54 1075.79,1638.46 1075.79,1638.46" fill="none" stroke="rgb(255, 255, 255)" stroke-width="30.00" stroke-opacity="0.31" stroke-linejoin="round"/>
<path d="M1242.41,1673.28 C1242.41,1673.28 1241.76,1667.50 1241.76,1667.50 C1238.50,1667.65 1235.26,1668.37 1231.38,1669.85 C1231.03,1669.98 1230.54,1670.17 1229.92,1670.39" fill="none" stroke="rgb(255, 255, 255)" stroke-width="30.00" stroke-opacity="0.31" stroke-linejoin="round"/>
<path d="M947.49,1731.84 C947.23,1733.35 946.38,1735.23 945.08,1736.53 C943.59,1737.99 941.15,1739.41 939.80,1739.66 C936.06,1740.25 901.13,1740.09 896.67,1739.66 C895.28,1739.52 894.19,1739.05 892.20,1737.84 C936.89,1733.38 957.70,1732.79 960.36,1732.73" fill="none" stroke="rgb(255, 255, 255)" stroke-width="30.00" stroke-opacity="0.31" stroke-linejoin="round"/>
<path d="M1096.00,1731.84 C1096.00,1731.84 1091.38,1743.09 1091.38,1743.09 C1091.38,1743.09 1092.87,1742.46 1092.87,1742.46" fill="none" stroke="rgb(255, 255, 255)" stroke-width="30.00" stroke-opacity="0.31" stroke-linejoin="round"/>
<path d="M1453.66,1449.48 C1453.74,1450.05 1451.64,1457.45 1450.63,1459.84 C1443.17,1477.42 1433.45,1489.43 1431.37,1491.63 C1433.05,1489.28 1437.22,1483.43 1439.72,1479.93 C1443.08,1475.05 1443.51,1473.96 1444.11,1471.21 C1441.87,1469.55 1440.44,1468.02 1439.91,1466.52 C1439.63,1465.65 1440.08,1464.76 1441.38,1463.17 C1446.08,1457.57 1451.63,1452.89 1452.40,1452.25" fill="none" stroke="rgb(255, 255, 255)" stroke-width="30.00" stroke-opacity="0.31" stroke-linejoin="round"/>
<path d="M1593.61,1770.44 C1598.67,1764.99 1603.73,1761.40 1612.94,1755.69 C1627.44,1747.03 1659.72,1727.61 1668.72,1721.84 C1675.62,1717.26 1683.97,1711.35 1690.48,1705.95 C1695.35,1701.83 1706.13,1690.99 1710.42,1685.58 C1715.02,1679.75 1721.78,1668.51 1724.08,1663.31 C1727.30,1655.94 1731.02,1641.13 1731.53,1633.63 C1732.00,1626.21 1730.24,1610.78 1728.09,1603.60 C1727.09,1600.32 1723.83,1592.35 1722.21,1589.34 C1718.50,1582.57 1709.32,1571.85 1703.39,1566.72 C1698.47,1562.50 1685.87,1554.46 1679.37,1551.41 C1672.62,1548.27 1660.39,1544.15 1652.56,1542.42 C1645.67,1540.91 1631.42,1539.29 1624.07,1539.00 C1617.46,1538.74 1599.07,1539.61 1592.93,1540.29 C1586.15,1541.05 1549.66,1547.59 1536.38,1551.39 C1528.18,1553.84 1493.63,1565.39 1477.85,1571.04 C1462.38,1576.91 1433.08,1589.15 1418.57,1595.67 C1404.10,1602.49 1375.57,1616.33 1361.50,1623.35 C1333.33,1638.18 1277.60,1667.95 1250.05,1682.89 C1236.29,1690.21 1208.54,1704.79 1194.55,1712.06 C1180.60,1719.05 1152.64,1732.68 1138.64,1739.32 C1124.41,1745.73 1096.00,1758.18 1081.82,1764.23 C1067.48,1769.93 1038.54,1781.04 1023.94,1786.46 C1009.22,1791.57 979.41,1800.95 964.35,1805.51 C949.15,1809.77 919.01,1817.42 902.96,1820.99 C886.95,1824.25 857.63,1829.61 843.81,1832.04 C827.89,1834.38 801.35,1837.42 786.93,1838.77 C771.71,1840.07 742.19,1841.78 727.40,1842.24 C712.46,1842.41 682.61,1841.78 668.11,1841.32 C654.12,1840.47 624.27,1837.35 609.00,1835.53 C593.36,1833.23 559.70,1826.90 549.09,1824.43 C534.78,1820.83 508.59,1813.36 491.78,1807.33 C482.71,1803.89 470.08,1798.50 462.72,1795.13 C452.59,1790.23 444.75,1786.06 435.57,1780.71 C429.27,1776.83 417.61,1769.16 411.13,1764.08 C405.30,1759.50 394.60,1749.87 389.15,1743.90 C383.48,1737.66 376.31,1727.10 371.45,1717.53 C368.83,1712.30 366.67,1707.48 366.20,1705.34 C365.55,1702.27 364.90,1695.60 364.59,1692.28 C364.28,1688.44 364.36,1681.27 365.03,1677.57 C365.73,1673.91 368.47,1666.17 370.07,1662.97 C372.83,1657.57 381.94,1646.28 387.82,1641.35 C394.20,1636.05 406.50,1628.51 414.60,1624.67 C422.38,1621.01 435.70,1616.28 442.57,1614.09 C452.58,1611.18 460.67,1609.18 470.90,1607.03 C478.24,1605.63 493.29,1603.16 500.40,1602.25 C518.28,1600.34 539.70,1598.95 559.99,1598.65 C578.30,1598.83 606.51,1600.42 622.56,1601.77 C637.81,1603.40 668.40,1607.49 683.66,1609.94 C699.13,1612.72 730.17,1619.05 746.12,1622.80 C761.40,1626.63 789.02,1633.86 801.36,1637.24 C823.36,1643.94 891.50,1667.27 923.11,1678.34 C954.10,1690.01 1009.96,1712.49 1036.37,1723.37 C1061.24,1734.26 1123.88,1763.71 1151.67,1776.99 C1182.80,1791.98 1256.99,1827.38 1274.36,1834.80 C1296.93,1843.65 1339.37,1858.75 1353.86,1862.92 C1358.47,1864.21 1377.67,1868.49 1385.83,1870.04 C1393.21,1871.30 1410.12,1874.06 1415.10,1874.61 C1420.82,1875.24 1432.55,1875.34 1443.28,1875.00 C1452.36,1874.62 1466.07,1872.70 1472.36,1871.11 C1478.27,1869.59 1491.10,1864.51 1497.09,1860.61 C1499.92,1858.74 1504.47,1854.61 1506.50,1852.25 C1508.56,1849.78 1511.81,1843.09 1512.43,1839.79 C1513.01,1836.45 1512.31,1828.79 1511.21,1825.54 C1510.02,1822.20 1507.11,1816.51 1505.21,1813.84 C1501.16,1808.27 1492.55,1799.79 1486.54,1795.13 C1481.86,1791.52 1470.40,1784.22 1463.34,1780.30 C1459.58,1778.25 1444.62,1771.22 1437.97,1768.36 C1427.25,1763.91 1398.75,1754.66 1377.99,1749.20 C1366.74,1746.49 1332.10,1739.78 1317.62,1737.54 C1302.69,1735.57 1273.67,1732.18 1259.58,1730.75 C1241.41,1729.54 1211.56,1728.45 1196.59,1728.02 C1180.04,1727.83 1147.31,1727.73 1131.06,1728.10 C1114.81,1728.81 1082.87,1730.51 1067.19,1731.50 C1052.42,1732.63 1023.19,1735.16 1008.74,1736.54 C977.53,1740.32 917.32,1748.11 888.33,1752.13 C871.48,1754.77 836.30,1760.67 817.97,1763.91 C785.00,1770.50 717.51,1784.61 682.99,1792.14 C637.96,1802.10 607.34,1809.31 601.97,1810.89 C593.58,1813.38 590.45,1815.37 589.58,1816.00" fill="none" stroke="rgb(111, 86, 79)" stroke-width="30.00" stroke-opacity="1.00" stroke-linejoin="round"/>
<path d="M1107.25,1815.89 C1096.90,1816.12 1088.83,1816.61 1079.14,1817.96 C1047.28,1822.88 983.34,1832.65 951.25,1837.50 C921.89,1841.40 860.63,1849.07 828.14,1852.41 C812.58,1853.62 781.38,1855.70 765.74,1856.56 C750.38,1857.04 719.14,1857.00 703.14,1856.41 C684.04,1855.27 655.81,1852.34 640.94,1849.83 C625.40,1846.92 589.14,1837.80 582.49,1835.71 C573.70,1832.93 560.56,1827.87 550.80,1823.61 C541.26,1819.25 531.33,1814.11 524.96,1809.83 C518.29,1805.32 507.19,1795.27 502.79,1790.21 C498.50,1785.25 491.17,1771.87 489.50,1765.94 C488.48,1762.25 487.30,1754.49 487.29,1751.39 C487.30,1748.30 488.49,1740.79 489.55,1737.26 C490.60,1733.82 494.10,1727.09 496.23,1724.01 C498.64,1720.55 503.00,1715.83 506.21,1713.07 C512.05,1708.10 523.77,1701.15 531.69,1697.67 C539.30,1694.35 552.43,1690.07 559.26,1688.08 C573.00,1684.41 603.81,1678.68 617.62,1677.03 C635.94,1675.23 657.72,1674.02 678.29,1673.99 C694.28,1674.31 724.02,1676.89 738.84,1678.57 C748.59,1679.76 776.51,1684.18 799.18,1688.81 C812.89,1691.84 843.14,1698.67 859.67,1702.47 C875.48,1706.35 907.47,1714.56 923.66,1718.90 C938.70,1723.30 967.78,1731.98 981.81,1736.26 C997.73,1741.38 1028.20,1751.39 1042.76,1756.27 C1056.91,1761.23 1087.42,1772.20 1098.40,1776.80 C1116.00,1784.55 1157.19,1805.72 1158.17,1806.22" fill="none" stroke="rgb(111, 86, 79)" stroke-width="30.00" stroke-opacity="1.00" stroke-linejoin="round"/>
<path d="M680.17,1860.18 C680.17,1860.18 671.74,1857.96 671.74,1857.96 C674.95,1862.90 684.99,1878.35 688.05,1882.58 C693.48,1890.07 703.76,1901.32 709.16,1905.88 C714.29,1910.17 726.61,1918.56 734.04,1922.87 C740.56,1926.48 754.83,1933.72 761.91,1937.08 C771.97,1941.65 780.70,1945.19 789.46,1948.18 C796.92,1950.64 833.37,1959.64 847.17,1962.76 C863.23,1966.10 892.38,1971.22 912.85,1974.00 C929.57,1975.91 960.86,1979.27 975.54,1980.51 C989.30,1981.36 1015.44,1981.34 1034.01,1980.67 C1056.79,1979.54 1081.24,1976.83 1096.54,1974.72 C1110.74,1972.53 1137.17,1967.43 1154.39,1963.38 C1168.86,1959.63 1199.84,1951.42 1216.36,1946.94 C1232.03,1942.47 1264.58,1932.73 1281.46,1927.47 C1295.84,1922.65 1323.80,1913.06 1339.24,1907.32 C1352.45,1902.10 1383.47,1887.83 1393.44,1882.79 C1410.19,1873.86 1429.50,1860.51 1437.39,1854.94" fill="none" stroke="rgb(111, 86, 79)" stroke-width="30.00" stroke-opacity="1.00" stroke-linejoin="round"/>
</g>
</svg>
