<?xml version="1.0" encoding="UTF-8" standalone="no"?>
<!DOCTYPE svg PUBLIC "-//W3C//DTD SVG 1.1//EN" "http://www.w3.org/Graphics/SVG/1.1/DTD/svg11.dtd">
<!-- Created with Vectornator (http://vectornator.io/) -->
<svg height="100%" stroke-miterlimit="10" style="fill-rule:nonzero;clip-rule:evenodd;stroke-linecap:round;stroke-linejoin:round;" version="1.1" viewBox="0 0 2000 2000" width="100%" xml:space="preserve" xmlns="http://www.w3.org/2000/svg" xmlns:vectornator="http://vectornator.io" xmlns:xlink="http://www.w3.org/1999/xlink">
<defs/>
<g id="All" vectornator:layerName="All" visibility="hidden">
<path d="M1203.78 265.406C1057.48 261.951 858.451 434.356 832.938 832.844C648.76 968.735 635.629 1061.85 600.281 1245.53C455.82 1547.95 625.336 1674.42 1013.03 1754.38C1395.86 1818.52 1661.22 1705.18 1605.78 1376.81C1630.14 1182.05 1648.85 1134.87 1582.91 969.031C2055.34 524.536 1701.82 180.358 1405.55 430.706C1395.87 438.886 1377.15 469.796 1374.62 474.125C1302.44 597.92 1277.74 661.472 1232.84 838.844C1231.4 844.553 1225.58 848.008 1219.88 846.562C1214.17 845.117 1210.71 839.303 1212.16 833.594C1257.52 654.391 1282.97 589.038 1356.22 463.406C1357.38 461.419 1361.1 450.409 1361 446.17C1358.33 331.268 1290.39 267.452 1203.78 265.406ZM799.594 1182.12C814.869 1182.24 832.45 1186.61 849.75 1195.44C889.293 1215.62 912.254 1251.45 901.031 1275.47C889.808 1299.49 848.668 1302.62 809.125 1282.44C769.582 1262.25 746.621 1226.4 757.844 1202.38C764.157 1188.86 779.954 1181.98 799.594 1182.12ZM1383.16 1269.59C1419.78 1267.73 1449.59 1282.2 1452.88 1305.22C1456.63 1331.53 1424.34 1359.05 1380.72 1366.69C1337.1 1374.33 1298.69 1359.19 1294.94 1332.88C1291.18 1306.56 1323.47 1279.05 1367.09 1271.41C1372.55 1270.45 1377.92 1269.86 1383.16 1269.59ZM1037.5 1364.5C1040.23 1364.46 1042.98 1365.45 1045.09 1367.5C1049.32 1371.6 1049.42 1378.37 1045.31 1382.59C1032.61 1395.67 1028.5 1412.58 1033.53 1426.22C1038.61 1440.01 1052.17 1448.38 1072.22 1447.47C1081.33 1447.06 1086.7 1457.55 1081.06 1464.72C1066.63 1483.08 1058.01 1503.18 1058.09 1517.84C1058.17 1531.63 1065.64 1539.17 1084.03 1540.41C1089.91 1540.8 1094.36 1545.91 1093.97 1551.78C1093.57 1557.66 1088.47 1562.08 1082.59 1561.69C1053.28 1559.71 1036.9 1543.15 1036.75 1517.94C1036.66 1502.48 1042.86 1484.53 1053.47 1467.16C1034.24 1462.92 1019.87 1450.88 1013.5 1433.59C1005.55 1412.02 1011.74 1386.52 1030 1367.72C1032.05 1365.61 1034.77 1364.54 1037.5 1364.5Z" fill="#ffdbe5" fill-rule="nonzero" opacity="1" stroke="none" vectornator:layerName="Base color"/>
<path d="M1360.5 475.596C1383.97 133.835 874.796 178.906 832.927 832.834C648.749 968.726 635.625 1061.85 600.277 1245.53C455.816 1547.95 625.338 1674.43 1013.03 1754.38C1395.86 1818.53 1661.2 1705.18 1605.77 1376.82C1630.13 1182.06 1648.84 1134.87 1582.9 969.033C2079.45 501.844 1663.57 145.388 1360.73 473.681M1365.42 468.766C1292.8 593.311 1267.68 657.697 1222.49 836.225M1037.65 1375.15C1005.55 1408.19 1020.37 1460.49 1072.69 1458.13C1042.12 1497.03 1032.33 1547.61 1083.32 1551.05" fill="none" opacity="1" stroke="#000000" stroke-linecap="round" stroke-linejoin="round" stroke-width="21.3271" vectornator:layerName="Outline"/>
<path d="M809.123 1282.43C769.58 1262.24 746.622 1226.41 757.845 1202.38C769.068 1178.36 810.222 1175.25 849.765 1195.43C889.308 1215.61 912.266 1251.45 901.043 1275.47C889.82 1299.5 848.666 1302.61 809.123 1282.43ZM1367.11 1271.4C1410.73 1263.76 1449.13 1278.9 1452.89 1305.21C1456.65 1331.53 1424.33 1359.05 1380.71 1366.69C1337.09 1374.33 1298.68 1359.19 1294.93 1332.88C1291.17 1306.57 1323.48 1279.04 1367.11 1271.4Z" fill="#000000" fill-rule="nonzero" opacity="1" stroke="#000000" stroke-linecap="round" stroke-linejoin="round" stroke-width="5" vectornator:layerName="Eyes"/>
<path d="M250.248 752.141C-66.1211 454.024 371.12 282.66 482.531 487.762C434.982 251.347 854.098 118.214 828.299 534.791C810.041 686.828 721.604 768.322 648.704 920.436C496.749 854.451 356.415 846.85 250.248 752.141Z" fill="#f17897" fill-rule="nonzero" opacity="1" stroke="none" vectornator:layerName="Hearts"/>
</g>
<g id="Layer-2" vectornator:layerName="Layer 2">
<path d="M1479.95 1515.16C1497.31 1533.59 1507.02 1553.86 1507.02 1575.96C1507.06 1710.64 1178.98 1770.9 892.628 1775.34C606.275 1779.78 292.813 1687.67 293.209 1573.3C293.282 1552.36 304.568 1532.43 324.55 1513.85" fill="#c8c8c8" fill-rule="nonzero" opacity="1" stroke="#c8c8c8" stroke-linecap="round" stroke-linejoin="round" stroke-width="16.2785" vectornator:layerName="Curve 13"/>
<path d="M1425.06 720.237C1483.01 749.298 1519.4 785.196 1519.41 828.001C1519.45 962.684 1191.37 1022.94 905.012 1027.38C618.659 1031.82 305.197 939.706 305.593 825.335C305.922 730.534 536.132 656.51 762.483 634.003" fill="#c8c8c8" fill-rule="nonzero" opacity="1" stroke="#a8a8a8" stroke-linecap="round" stroke-linejoin="round" stroke-width="16.2785" vectornator:layerName="Curve 16"/>
<path d="M961.841 759.326C1054.8 759.029 1126.07 768.642 1241.14 785.33C1272.51 789.88 1445.71 795.785 1453.81 827.902C1467.15 880.805 1345.18 913.267 1294.64 930.116C1261.85 941.043 1204.36 948.593 1159.8 955.004C1007.04 976.982 821.807 978.317 707.539 963.449C597.655 949.151 535.717 933.386 473.156 907.889C441.348 894.926 424.003 884.761 410.384 876.465C389.42 863.695 347.205 831.127 528.664 806.588C614.324 795.003 656.838 783.126 713.213 775.773C813.73 762.662 844.535 759.702 961.841 759.326Z" fill="#d0674d" fill-rule="nonzero" opacity="1" stroke="#d0674d" stroke-linecap="round" stroke-linejoin="round" stroke-width="16.2785" vectornator:layerName="inner salmon"/>
<path d="M1447.7 505.919C1493.23 409.052 1650.06 383.244 1662.22 390.87C1710.41 421.089 1699.69 501.931 1667.87 519.754C1602.99 558.598 1430.02 535.224 1430.02 535.224" fill="#c8c8c8" fill-rule="nonzero" opacity="1" stroke="#a8a8a8" stroke-linecap="butt" stroke-linejoin="round" stroke-width="16.2785" vectornator:layerName="Curve 8"/>
<path d="M775.504 659.849C713.212 530.073 804.92 362.23 1000.45 315.51C1180.4 287.825 1481.48 350.117 1657.98 389.915C1364.47 415.195 1404.51 692.943 1436.05 768.884" fill="#c8c8c8" fill-rule="nonzero" opacity="1" stroke="#a8a8a8" stroke-linecap="round" stroke-linejoin="round" stroke-width="16.2785" vectornator:layerName="Curve 7"/>
<path d="M1438.37 769.126C1453.48 783.582 1461.91 799.44 1461.92 816.707C1461.95 924.129 1164.95 972.185 905.722 975.727C646.495 979.269 362.726 905.801 363.085 814.58C363.382 739.167 570.695 680.238 775.084 662.119M1439.34 778.801C1108.14 752.705 779.944 663.111 771.049 662.367" fill="none" opacity="1" stroke="#676767" stroke-linecap="round" stroke-linejoin="round" stroke-width="16.2785" vectornator:layerName="Curve 17"/>
<path d="M1492.62 898.962C1489.62 951.05 1491.19 976.086 1490.52 1002.95C1489.92 1026.94 1489.54 1043.39 1489.18 1056.23C1488.29 1087.77 1486.56 1099.8 1485.16 1160.89C1484.31 1197.49 1484.08 1229.07 1482.89 1264.96C1480.85 1326.38 1485.75 1355.37 1479.74 1404.6C1474.96 1443.75 1476.82 1500.97 1474.38 1561.74C1471.61 1630.78 1336.47 1677.23 1263.85 1691.28C1134.37 1716.32 1064.88 1722.63 893.396 1729.44C816.902 1732.47 678.117 1717.37 678.117 1717.37C678.117 1717.37 643.228 1710.41 605.706 1703.34C583.87 1699.23 559.373 1696.98 544.976 1691.08C492.321 1669.5 423.487 1651.53 389.62 1631.99C334.309 1600.06 330.167 1569.18 329.506 1550.52C323.635 1384.9 330.223 1262.52 327.443 1114.15C326.842 1082.11 326.496 1047.75 326.714 1020.28C326.956 989.922 325.606 977.202 325.983 943.617C326.36 910.032 328.577 918.71 328.223 885.935C328.109 875.36 334.143 894.901 365.947 915.982C386.483 929.595 420.1 944.261 457.775 962.059C556.962 1008.92 724.999 1029.43 863.79 1029.12C1032.69 1028.74 1037.4 1034.25 1234.79 997.901C1278.77 989.803 1363.52 971.279 1406.53 949.21C1425.77 939.338 1454.31 925.919 1467.85 915.5C1486.76 900.95 1493.34 886.371 1492.62 898.962ZM504.331 500.187C396.017 425.883 187.625 451.717 133.714 321.948C78.3032 188.569 274.863 102.726 345.967 233.292C339.002 127.046 401.285 39.4766 536.269 108.596C653.777 202.192 454.704 402.982 504.331 500.187Z" fill="#feb68a" fill-rule="nonzero" opacity="1" stroke="none" vectornator:layerName="Fill"/>
<path d="M1478.15 1551.29C1478.2 1552.26 1478.22 1553.25 1478.22 1554.23C1478.26 1674.36 1166.38 1728.11 894.169 1732.07C859.663 1732.57 824.742 1731.69 790.068 1729.56C658.073 1721.45 529.645 1695.24 441.204 1658.38M1477.83 1550.64L1479.66 1471.56M325.968 1280.55L326.121 1200.17M325.87 1332.18L325.903 1315.05M1479.66 1471.56L1481.1 1409.25M325.903 1315.05L325.968 1280.55M326.202 1157.22L326.266 1123.59M326.308 1101.24L326.326 1092.11M326.266 1123.59L326.308 1101.24M326.326 1092.11L326.733 877.129M1482.63 1370.32L1487.71 1122.57M1488.32 1096.12L1493.08 890.091M441.204 1658.38C369.6 1628.54 338.953 1595.91 329.088 1569.85M324.666 1527.77L325.87 1332.18M125.437 293.419C106.477 177.135 280.081 112.307 345.967 233.292C339.002 127.046 433.651 46.5882 529.247 104.694C581.263 146.126 568.96 235.183 545.94 300.341M530.458 341.161C505.864 401.953 483.786 459.946 504.331 500.187C396.017 425.883 187.625 451.717 133.714 321.948" fill="none" opacity="1" stroke="#d0674d" stroke-linecap="round" stroke-linejoin="round" stroke-width="16.2785" vectornator:layerName="Outline"/>
<path d="M547.113 1368.32C533.103 1312.99 888.948 1084.63 1111.7 1323.49C1176.85 1263.25 1225.53 1183.57 1256 1233.83C1286.47 1284.09 1284.72 1447.48 1239.89 1511.92C1204.69 1558.51 1159.33 1480.4 1115.2 1420.16C804.89 1661.83 540.808 1417.36 547.113 1368.32Z" fill="#ffffff" fill-rule="nonzero" opacity="1" stroke="#ffffff" stroke-linecap="round" stroke-linejoin="round" stroke-width="16.2785" vectornator:layerName="Fish"/>
</g>
</svg>
