<?xml version="1.0" encoding="UTF-8" standalone="no"?>
<!DOCTYPE svg PUBLIC "-//W3C//DTD SVG 1.1//EN" "http://www.w3.org/Graphics/SVG/1.1/DTD/svg11.dtd">
<svg width="480.00" height="840.00" viewBox="0.00 0.00 2000.00 3500.00" xmlns="http://www.w3.org/2000/svg" xmlns:xlink="http://www.w3.org/1999/xlink">
<g stroke-linecap="round" id="เลเยอร์_2">
<path d="M1007.34,2156.89 C998.07,2159.45 988.41,2161.30 980.57,2161.03 C975.86,2160.85 969.52,2159.91 965.92,2158.78 C960.93,2157.19 946.73,2150.50 939.72,2146.52 C927.69,2139.51 902.18,2123.57 890.12,2115.59 C877.44,2106.81 852.06,2088.83 839.37,2079.63 C824.46,2068.37 804.50,2051.91 793.72,2042.61 C782.97,2033.07 760.91,2012.58 749.96,2001.92 C739.77,1991.62 719.46,1969.97 709.26,1958.44 C699.20,1946.65 677.23,1919.11 670.24,1909.47 C661.62,1897.13 645.27,1871.66 637.44,1858.32 C631.47,1847.73 614.35,1813.40 609.82,1802.95 C603.93,1788.57 594.24,1762.36 589.09,1744.99 C585.00,1730.40 578.30,1698.46 576.71,1686.53 C575.77,1678.68 574.38,1662.98 573.94,1655.28 C573.72,1650.57 573.86,1632.66 574.18,1625.22 C574.83,1615.17 576.32,1602.69 577.48,1595.02 C578.85,1586.86 582.24,1572.94 584.83,1564.81 C587.04,1558.17 591.91,1543.76 594.53,1538.63 C596.20,1535.38 607.10,1516.52 609.43,1513.18 C612.45,1508.88 622.77,1497.31 626.36,1494.00 C631.41,1489.38 641.58,1481.94 647.03,1478.88 C653.91,1475.03 668.55,1469.46 676.20,1467.85 C684.19,1466.20 702.65,1465.61 706.26,1465.97 C710.29,1466.38 728.77,1470.25 734.81,1472.23 C741.21,1474.35 755.40,1481.02 761.38,1484.47 C767.09,1487.79 780.79,1496.96 786.62,1501.41 C792.24,1505.87 803.28,1515.18 808.69,1520.22 C814.09,1525.40 824.70,1536.12 829.87,1541.84 C843.03,1557.04 857.70,1575.30 867.06,1588.96 C876.14,1602.62 893.90,1629.93 901.78,1642.91 C910.74,1658.30 938.09,1712.68 945.85,1728.45 C950.72,1738.27 953.70,1743.71 955.32,1744.78 C956.02,1745.24 957.81,1745.60 959.17,1745.79 C961.79,1743.77 964.80,1739.01 966.00,1736.81 C973.57,1722.23 988.96,1692.71 996.80,1677.77 C1003.21,1666.16 1019.71,1639.39 1028.37,1626.01 C1034.57,1616.73 1055.26,1588.21 1064.98,1575.98 C1077.68,1560.82 1096.30,1540.73 1107.18,1530.16 C1112.63,1525.08 1123.71,1515.25 1129.38,1510.55 C1135.27,1505.84 1148.48,1496.49 1155.10,1492.11 C1163.57,1486.59 1171.97,1481.60 1179.41,1478.44 C1186.29,1475.54 1199.74,1470.19 1206.07,1468.73 C1211.71,1467.45 1225.26,1465.54 1232.73,1465.79 C1236.06,1465.91 1243.74,1466.89 1247.20,1467.71 C1251.26,1468.69 1256.11,1470.41 1260.55,1472.44 C1263.71,1473.90 1268.99,1476.78 1272.23,1479.35 C1276.56,1482.81 1287.66,1493.98 1291.80,1500.00 C1295.79,1505.86 1302.01,1518.20 1304.71,1525.22 C1307.40,1532.26 1311.00,1545.56 1312.44,1552.95 C1313.80,1560.29 1315.40,1574.17 1316.10,1583.84 C1316.38,1588.52 1316.50,1605.79 1316.33,1613.05 C1315.88,1625.09 1312.65,1654.65 1309.55,1671.88 C1307.20,1684.10 1300.54,1709.83 1293.94,1730.65 C1289.35,1744.89 1278.46,1770.91 1272.38,1784.48 C1265.38,1799.63 1252.70,1825.09 1243.64,1841.40 C1236.06,1854.14 1220.31,1879.92 1211.80,1893.06 C1203.19,1905.92 1185.42,1930.90 1176.12,1943.22 C1166.69,1955.30 1147.14,1979.85 1137.01,1992.32 C1128.72,2002.18 1113.14,2020.25 1099.74,2034.58 C1088.79,2046.08 1066.46,2069.30 1055.10,2081.01 C1042.56,2093.54 1013.98,2121.77 1012.45,2123.39 C1010.81,2125.11 999.09,2137.43 993.59,2142.59 C985.03,2150.35 983.09,2151.61 981.35,2152.52" fill="none" stroke="rgb(255, 0, 97)" stroke-width="60.00" stroke-opacity="1.00" stroke-linejoin="round"/>
</g>
</svg>
