<?xml version="1.0" encoding="UTF-8" standalone="no"?>
<!DOCTYPE svg PUBLIC "-//W3C//DTD SVG 1.1//EN" "http://www.w3.org/Graphics/SVG/1.1/DTD/svg11.dtd">
<!-- Created with Vectornator (http://vectornator.io/) -->
<svg height="100%" stroke-miterlimit="10" style="fill-rule:nonzero;clip-rule:evenodd;stroke-linecap:round;stroke-linejoin:round;" version="1.1" viewBox="0 0 2000 2000" width="100%" xml:space="preserve" xmlns="http://www.w3.org/2000/svg" xmlns:vectornator="http://vectornator.io" xmlns:xlink="http://www.w3.org/1999/xlink">
<defs>
<path d="M672.778 1231.18C643.575 1231.07 661.553 1325.53 685.909 1335.08C698.824 1340.14 698.765 1338.43 700.383 1348.05C711.822 1416.06 725.394 1731.02 759.657 1740.27C860.332 1767.43 1089.86 1780.96 1232.7 1747.67C1254.78 1742.52 1291.93 1428.43 1304.02 1354.13C1305.85 1342.9 1308.16 1349.4 1327.03 1337.6C1338.66 1330.33 1356.07 1237.85 1324.03 1237.66C1126.55 1236.49 895.405 1231.99 672.778 1231.18Z" id="Fill"/>
<filter color-interpolation-filters="sRGB" filterUnits="userSpaceOnUse" height="792.926" id="Filter" width="405.66" x="1070.81" y="1113.31">
<feGaussianBlur in="SourceGraphic" result="Blur" stdDeviation="6.68605"/>
</filter>
<filter color-interpolation-filters="sRGB" filterUnits="userSpaceOnUse" height="786.053" id="Filter_2" width="415.012" x="495.973" y="1102.77">
<feGaussianBlur in="SourceGraphic" result="Blur" stdDeviation="6.68605"/>
</filter>
<path d="M672.778 1231.18C643.575 1231.07 661.553 1325.53 685.909 1335.08C698.824 1340.14 698.765 1338.43 700.383 1348.05C711.822 1416.06 725.394 1731.02 759.657 1740.27C860.332 1767.43 1089.86 1780.96 1232.7 1747.67C1254.78 1742.52 1291.93 1428.43 1304.02 1354.13C1305.85 1342.9 1308.16 1349.4 1327.03 1337.6C1338.66 1330.33 1356.07 1237.85 1324.03 1237.66C1126.55 1236.49 895.405 1231.99 672.778 1231.18Z" id="Fill_2"/>
</defs>
<g id="Layer-1" vectornator:layerName="Layer 1">
<path d="M856.383 869.304C818.171 873.768 796.549 804.788 800.676 775.379C802.742 760.65 807.965 746.61 809.764 731.843C810.683 724.295 812.658 687.429 819.945 684.765C824.475 683.108 858.758 710.588 863.37 715.886C892.599 749.462 907.24 803.652 881.314 843.663C875.526 852.596 863.259 868.501 856.383 869.304Z" fill="#ec7b7f" fill-rule="nonzero" opacity="1" stroke="#ec7b7f" stroke-linecap="round" stroke-linejoin="round" stroke-width="3.82151" vectornator:layerName="Curve 36"/>
<path d="M861.64 865.811C844.414 862.028 843.285 840.365 841.796 826.319C838.221 792.583 840.055 758.264 849.24 725.702C853.582 710.31 861.662 699.941 870.074 686.793C871.815 684.072 873.561 681.299 875.061 678.435C875.734 677.15 875.458 673.446 876.586 674.358C882.449 679.098 889.827 709.758 892.867 717.164C907.335 752.426 913.765 788.156 910.798 826.347C908.843 851.508 903.28 870.696 876.164 873.57" fill="#ec7b7f" fill-rule="nonzero" opacity="1" stroke="#ec7b7f" stroke-linecap="round" stroke-linejoin="round" stroke-width="3.82151" vectornator:layerName="Curve 37"/>
<path d="M826.906 731.984C819.304 732.789 824.959 721.337 826.387 717.847C829.124 711.159 838.413 672.622 851.474 677.509C867.072 683.346 878.43 722.328 883.583 735.765" fill="#ec7b7f" fill-rule="nonzero" opacity="1" stroke="#ec7b7f" stroke-linecap="round" stroke-linejoin="round" stroke-width="3.82151" vectornator:layerName="Curve 38"/>
<path d="M1139.06 1024.01C1132.4 1020.68 1153.1 998.178 1155.67 995.816C1172.79 980.13 1196.46 971.393 1217.1 961.075C1221.71 958.77 1232.31 950.141 1238.25 952.516C1247.78 956.331 1238.51 998.862 1236.23 1005.38C1221.44 1047.65 1199.89 1069.83 1152.15 1069.83" fill="#ec7b7f" fill-rule="nonzero" opacity="1" stroke="#ec7b7f" stroke-linecap="round" stroke-linejoin="round" stroke-width="3.82151" vectornator:layerName="Curve 39"/>
<path d="M873.749 883.157C861.314 876.11 844.884 882.903 831.147 873.34C806.661 856.295 803.613 815.436 800.567 788.39C800.063 783.912 793.413 764.877 795.323 761.629C796.02 760.443 798.064 762.337 799.138 763.194C807.095 769.54 813.311 778.29 822.331 783.591C842.982 795.728 862.216 824.374 871.119 846.769C873.757 853.406 882.288 887.995 873.749 883.157Z" fill="#96bd60" fill-rule="nonzero" opacity="1" stroke="#96bd60" stroke-linecap="round" stroke-linejoin="round" stroke-width="17.1009" vectornator:layerName="Curve 29"/>
<path d="M870.955 883.882C869.202 883.509 873.911 881.594 874.621 879.948C874.864 879.383 873.418 879.692 872.817 879.564C867.927 878.524 862.807 873.085 859.919 869.278C851.575 858.275 845.83 847.149 844.587 833.205C842.205 806.47 864.276 774.395 883.713 757.426C886.354 755.121 897.433 742.931 899.588 743.078C901.17 743.185 913.361 777.395 914.329 780.156C921.466 800.515 932.246 836.003 920.419 856.125C912.614 869.405 899.582 876.475 886.451 882.842C881.592 885.197 876.125 887.227 870.898 888.584C869.833 888.861 867.147 890.362 867.704 889.414C869.907 885.666 873.542 884.433 870.955 883.882Z" fill="#96bd60" fill-rule="nonzero" opacity="1" stroke="#96bd60" stroke-linecap="round" stroke-linejoin="round" stroke-width="17.1009" vectornator:layerName="Curve 30"/>
<path d="M862.684 888.61C862.374 887.416 858.913 877.543 862.575 876.592C866.453 875.586 863.19 884.636 862.684 888.61C860.332 907.108 847.387 945.674 852.053 963.643C856.197 979.6 903.356 1032.19 902.241 1040.95C900.632 1053.61 886.219 1083.63 889.303 1095.51C892.853 1109.18 953.728 1143.48 952.023 1151.49C950.423 1159.02 926.153 1179.44 929.781 1193.41C929.927 1193.97 969.623 1220.72 976.088 1232.58C988.359 1255.09 966.586 1321.18 988.244 1325.78" fill="none" opacity="1" stroke="#96bd60" stroke-linecap="round" stroke-linejoin="round" stroke-width="17.1009" vectornator:layerName="Curve 31"/>
<path d="M980.546 1314.4C975.854 1305.01 977.882 1257.88 989.291 1250.27C1002.03 1241.77 1039.23 1263.28 1044.67 1241.53C1049.95 1220.4 1041.76 1182.65 1041.76 1159.91C1041.76 1157.68 1039.85 1131.72 1041.76 1130.77C1046.2 1128.55 1108.79 1139.52 1111.71 1130.77C1113.36 1125.8 1106.53 1121.38 1105.88 1116.19C1103.77 1099.34 1105.88 1080.78 1105.88 1063.73C1105.88 1061.78 1104.14 1058.77 1105.88 1057.9C1106.55 1057.56 1135.21 1057.9 1137.94 1057.9" fill="none" opacity="1" stroke="#96bd60" stroke-linecap="round" stroke-linejoin="round" stroke-width="17.1009" vectornator:layerName="Curve 32"/>
<path d="M1132.5 1057.5C1130.79 1051.14 1128.14 1051.71 1125.64 1046.72C1119.77 1034.98 1146.94 995.506 1156.01 987.94C1158.45 985.907 1177.36 972.451 1181.49 975.203C1186.04 978.24 1180.48 997.175 1179.53 1000.68C1174.76 1018.15 1171.65 1038.92 1156.01 1050.64C1143.49 1060.03 1136.11 1070.93 1132.5 1057.5Z" fill="#96bd60" fill-rule="nonzero" opacity="1" stroke="#96bd60" stroke-linecap="round" stroke-linejoin="round" stroke-width="17.1009" vectornator:layerName="Curve 33"/>
<path d="M1134.46 1049.66C1126.38 1051.68 1154.82 1034.34 1158.95 1032.03C1169.66 1026.03 1180.34 1018.89 1191.29 1013.41C1197.34 1010.38 1204.96 1013.44 1210.88 1010.47C1212.04 1009.89 1217.77 1005.58 1218.72 1005.58C1223.39 1005.58 1217.26 1014.86 1215.78 1019.29C1213.63 1025.74 1213.45 1033.13 1212.84 1039.87C1209.91 1072.13 1165.8 1076.12 1140.34 1076.12C1126.72 1076.12 1110.95 1077.05 1110.95 1058.48M891.406 1085.5C891.753 1049.18 836.541 1048.27 810.088 1052.68C800.481 1054.28 789.449 1053.66 779.716 1053.66C775.784 1053.66 767.96 1048.75 767.96 1052.68C767.96 1053.41 769.335 1053.23 769.919 1053.66C777.834 1059.6 782.866 1068.1 788.534 1076.2C808.275 1104.4 828.255 1099.71 859.075 1099.71C866.773 1099.71 884.446 1105.22 888.467 1093.83C890.259 1088.75 891.385 1087.65 891.406 1085.5ZM1040.9 1135.88C1023.77 1134.34 1020.81 1076.5 1020.81 1061.42C1020.81 1052.75 1018.63 1045.08 1015.91 1036.93C1015.27 1035 1007.55 1027.22 1011.99 1028.11C1039.61 1033.63 1063.05 1066.1 1066.86 1092.77C1069.56 1111.65 1058.03 1137.42 1040.9 1135.88ZM1001.71 1243.65C991.463 1249.78 1007.92 1234 1010.03 1231.89C1019.63 1222.3 1029.7 1212.94 1042.37 1207.4C1073.34 1193.85 1090.83 1212.48 1113.89 1228.95C1116.86 1231.08 1119.92 1234.21 1123.68 1234.83C1125.62 1235.15 1129.56 1232.87 1129.56 1234.83C1129.56 1236.99 1114.84 1245.14 1112.91 1246.59C1087.82 1265.41 1071.89 1275.41 1038.45 1272.06C1029.99 1271.22 1020.35 1266.97 1013.95 1261.29C1009.62 1257.44 1004.55 1241.95 1001.71 1243.65Z" fill="#96bd60" fill-rule="nonzero" opacity="1" stroke="#96bd60" stroke-linecap="round" stroke-linejoin="round" stroke-width="17.1009" vectornator:layerName="Curve 34"/>
<g opacity="1" vectornator:layerName="Group 2">
<use fill="#b5895b" fill-rule="nonzero" opacity="1" stroke="none" vectornator:layerName="Curve 2" xlink:href="#Fill"/>
<clipPath clip-rule="nonzero" id="ClipPath">
<use xlink:href="#Fill"/>
</clipPath>
<g clip-path="url(#ClipPath)">
<path d="M1114.4 1189.27C1142.8 1242.32 1158.66 1281.22 1144.39 1322.73C1132.01 1335.29 1140.51 1345.46 1118.37 1347.66C1124.7 1455.33 1113.72 1676.6 1087.53 1793.73C1150.99 1904.96 1264.82 1937.32 1352.73 1792.73C1440.64 1648.13 1490.24 1369.22 1439.16 1215.35C1388.09 1061.48 1190.36 1156.15 1114.4 1189.27Z" fill="#a07951" fill-rule="nonzero" filter="url(#Filter)" opacity="1" stroke="none" vectornator:blur="13.3721" vectornator:layerName="Curve 42"/>
<path d="M858.05 1178.73C829.647 1231.78 813.783 1270.68 828.054 1312.19C840.433 1324.75 834.277 1339.68 856.413 1341.88C852.719 1448.97 868.305 1627.12 894.27 1767.3C830.81 1878.53 707.627 1926.79 619.718 1782.19C531.81 1637.6 482.207 1358.68 533.283 1204.81C584.358 1050.94 782.091 1145.61 858.05 1178.73Z" fill="#a07951" fill-rule="nonzero" filter="url(#Filter_2)" opacity="1" stroke="none" vectornator:blur="13.3721" vectornator:layerName="Curve 43"/>
</g>
</g>
<g opacity="1" vectornator:layerName="Group 3">
<use fill="none" opacity="1" stroke="#000000" stroke-linecap="round" stroke-linejoin="round" stroke-width="10" vectornator:layerName="Curve 2" xlink:href="#Fill_2"/>
<clipPath clip-rule="nonzero" id="ClipPath_2">
<use xlink:href="#Fill_2"/>
</clipPath>
<g clip-path="url(#ClipPath_2)"/>
</g>
<path d="M698.803 1336.1C860.991 1347.62 1100.17 1350.76 1311.63 1344.48" fill="none" opacity="1" stroke="#000000" stroke-linecap="round" stroke-linejoin="round" stroke-width="3.82151" vectornator:layerName="Curve 24"/>
</g>
</svg>
