<?xml version="1.0" encoding="UTF-8" standalone="no"?>
<!DOCTYPE svg PUBLIC "-//W3C//DTD SVG 1.1//EN" "http://www.w3.org/Graphics/SVG/1.1/DTD/svg11.dtd">
<!-- Created with Vectornator (http://vectornator.io/) -->
<svg height="100%" stroke-miterlimit="10" style="fill-rule:nonzero;clip-rule:evenodd;stroke-linecap:round;stroke-linejoin:round;" version="1.1" viewBox="0 0 2000 2000" width="100%" xml:space="preserve" xmlns="http://www.w3.org/2000/svg" xmlns:vectornator="http://vectornator.io" xmlns:xlink="http://www.w3.org/1999/xlink">
<defs>
<path d="M672.778 1231.18C643.575 1231.07 661.553 1325.53 685.909 1335.08C698.824 1340.14 698.765 1338.43 700.383 1348.05C711.822 1416.06 725.394 1731.02 759.657 1740.27C860.332 1767.43 1089.86 1780.96 1232.7 1747.67C1254.78 1742.52 1291.93 1428.43 1304.02 1354.13C1305.85 1342.9 1308.16 1349.4 1327.03 1337.6C1338.66 1330.33 1356.07 1237.85 1324.03 1237.66C1126.55 1236.49 895.405 1231.99 672.778 1231.18Z" id="Fill"/>
<filter color-interpolation-filters="sRGB" filterUnits="userSpaceOnUse" height="792.926" id="Filter" width="405.66" x="1070.81" y="1113.31">
<feGaussianBlur in="SourceGraphic" result="Blur" stdDeviation="6.68605"/>
</filter>
<filter color-interpolation-filters="sRGB" filterUnits="userSpaceOnUse" height="786.053" id="Filter_2" width="415.012" x="495.973" y="1102.77">
<feGaussianBlur in="SourceGraphic" result="Blur" stdDeviation="6.68605"/>
</filter>
<path d="M672.778 1231.18C643.575 1231.07 661.553 1325.53 685.909 1335.08C698.824 1340.14 698.765 1338.43 700.383 1348.05C711.822 1416.06 725.394 1731.02 759.657 1740.27C860.332 1767.43 1089.86 1780.96 1232.7 1747.67C1254.78 1742.52 1291.93 1428.43 1304.02 1354.13C1305.85 1342.9 1308.16 1349.4 1327.03 1337.6C1338.66 1330.33 1356.07 1237.85 1324.03 1237.66C1126.55 1236.49 895.405 1231.99 672.778 1231.18Z" id="Fill_2"/>
</defs>
<g id="Layer-1" vectornator:layerName="Layer 1">
<path d="M852.727 673.301C844.553 670.576 828.806 719.408 824.029 727.37C822.461 729.983 806.828 745.769 807.228 746.97C809.946 755.124 826.631 763.414 831.496 772.171C846.081 798.424 844.85 840.017 850.163 869.242C854.395 892.514 858.552 918.77 853.897 942.044C851.542 953.82 823.937 962.487 832.429 970.979C839.012 977.561 859.81 964.034 867.897 977.512C882.902 1002.52 888.472 1042.93 902.432 1070.85C905.284 1076.55 936.966 1076.13 936.966 1087.65C936.966 1096.32 914.688 1109.36 919.232 1118.45C922.84 1125.67 945.215 1123.8 950.967 1133.38C959.167 1147.05 952.915 1214.63 969.634 1222.99" fill="none" opacity="1" stroke="#96bd60" stroke-linecap="round" stroke-linejoin="round" stroke-width="21.2073" vectornator:layerName="Curve 39"/>
<path d="M1091.91 859.908C1029.65 859.908 1086.12 920.007 1080.7 930.844C1077.08 938.084 1058.4 922.057 1056.44 929.91C1052.48 945.721 1077.48 965.965 1071.37 981.246C1068.26 989.033 1050.53 979.051 1048.04 987.779C1042.06 1008.7 1065.38 1028.93 1061.1 1050.31C1056.36 1074.03 1004.09 1098.15 996.702 1120.32C996.503 1120.91 1005.83 1127.57 1005.1 1133.38C1001.34 1163.49 977.486 1201.85 969.634 1233.25" fill="none" opacity="1" stroke="#96bd60" stroke-linecap="round" stroke-linejoin="round" stroke-width="21.2073" vectornator:layerName="Curve 40"/>
<path d="M831.029 794.105C773.181 887.145 732.923 816.267 698.024 734.837C694.411 726.406 670.023 708.628 670.023 702.169C670.023 693.955 684.632 709.838 692.424 712.436C706.492 717.125 719.775 720.016 733.492 725.503C784.266 745.813 869.953 731.504 831.029 794.105Z" fill="#96bd60" fill-rule="nonzero" opacity="1" stroke="#96bd60" stroke-linecap="round" stroke-linejoin="round" stroke-width="17.1009" vectornator:layerName="Curve 41"/>
<path d="M1062.97 1058.72C1072.79 1052.17 1090.83 1054.86 1098.44 1044.71C1109.48 1029.99 1092.83 1007.54 1108.71 994.313C1134.8 972.571 1184.64 973.728 1211.38 992.446C1234.27 1008.47 1252.27 1004.5 1273.91 991.513C1275.11 990.797 1277.65 988.255 1277.65 989.646C1277.65 1007.99 1263.37 1061.79 1249.64 1075.52C1217.29 1107.87 1107.13 1103.11 1096.57 1050.31" fill="#96bd60" fill-rule="nonzero" opacity="1" stroke="#96bd60" stroke-linecap="round" stroke-linejoin="round" stroke-width="17.1009" vectornator:layerName="Curve 42"/>
<path d="M1072.48 785.833C1072.48 770.723 1024.85 790.657 1030.08 816.817C1036.8 850.423 1080.09 836.652 1097.76 854.324C1103.96 860.529 1109.27 885.002 1118.96 886.939C1138.78 890.904 1202.61 864.438 1206.2 842.909C1208.92 826.625 1197.2 815.797 1194.79 801.325C1193.84 795.629 1191.27 790.522 1189.89 785.017C1189.18 782.177 1187.94 774.245 1186.63 776.864C1182.76 784.618 1196.58 800.025 1199.68 806.217C1201.91 810.678 1200.93 818.069 1204.57 821.709C1213.27 830.406 1224.15 820.069 1230.66 815.186C1245.49 804.066 1280.42 786.769 1275.51 762.187C1272.42 746.723 1260.28 731.43 1255.94 714.08C1255.37 711.786 1254.78 711.304 1251.86 710.819C1241.8 709.142 1217.62 721.425 1210.28 714.08C1204.92 708.725 1207.49 698.519 1206.2 692.065C1203.39 678.019 1188.84 657.232 1180.11 645.589C1163.87 623.939 1102.02 641.927 1080.64 650.481C1074.34 652.998 1070.62 654.076 1064.05 655.718C1056.16 657.689 1055.36 656.189 1037.42 655.373C1034.51 655.241 1021.7 657.455 1019.48 661.896C1015.81 669.245 1019.12 684.543 1017.04 692.88C1004.94 741.257 975.367 773.574 1041.5 795.617" fill="#f19599" fill-rule="nonzero" opacity="1" stroke="none" vectornator:layerName="Curve 44"/>
<path d="M762.925 559.326C758.442 570.937 728.535 571.403 724.301 587.75C719.888 604.784 747.014 624.62 754.03 636.542C756.968 641.534 757.477 648.488 759.916 653.821C762.224 658.87 765.163 675.365 769.925 677.918C781.877 684.324 819.548 674.572 834.358 674.382C839.493 674.316 846.188 678.14 851.201 676.758C855.199 675.656 857.642 670.084 862.259 669.687C869.824 669.036 874.018 678.253 882.369 677.806C900.531 676.832 916.424 658.782 931.906 654.515C940.474 652.153 947.125 657.346 951.699 656.732C953.708 656.462 967.321 627.927 967.18 623.271C966.899 614.011 971.237 605.973 971.12 596.827C971.05 591.319 967.149 585.858 968.56 580.408C970.418 573.239 977.675 568.487 979.36 562.554C981.962 553.39 978.799 544.079 978.526 535.086C978.342 528.997 981.377 522.621 981.064 516.795C979.796 493.142 962.578 502.55 949.059 492.678C938.829 485.208 930.057 470.504 915.281 471.296C901.75 472.022 893.721 484.802 878.525 480.865C871.49 479.043 865.945 471.263 860.512 467.116C854.345 462.408 845.664 462.384 839.116 457.386C835.126 454.34 834.17 450.453 828.124 450.777C813.904 451.54 805.464 473.267 795.909 480.897C779.326 494.139 743.393 499.575 745.761 527.095C746.853 539.785 766.328 550.516 762.925 559.326Z" fill="#f19599" fill-rule="nonzero" opacity="1" stroke="none" vectornator:layerName="Curve 45"/>
<path d="M1068.07 778.294C1046.4 781.702 1019.09 805.479 1029.99 827.281C1038.32 843.941 1074.91 843.983 1089.39 847.602C1109.15 852.544 1112.7 887.68 1119.09 889.808C1126.54 892.293 1203.1 865.791 1206.63 856.981C1220.16 823.14 1183.18 799.832 1183.18 773.351M1208.44 725.962C1208.44 715.381 1244.78 702.08 1255.08 712.387C1262.71 720.013 1257.17 740.013 1262.12 749.904C1264.02 753.716 1281.64 769.484 1280.88 771.788C1276.95 783.581 1215.19 839.213 1205.99 820.814M1205.84 716.295C1194.73 710.74 1208.37 744.247 1199.59 753.03C1180.96 771.661 1159.38 770.881 1139.41 785.857C1135.29 788.947 1115.37 814.187 1114.4 813.994C1106.06 812.327 1096.52 795.337 1090.95 789.765C1067.08 765.893 1011.35 769.505 1043.27 716.295C1049.4 706.078 1056.83 702.017 1067.5 699.882C1077.44 697.894 1078.42 722.231 1091.73 724.893C1115.6 729.667 1139.19 711.406 1163.64 716.295C1170.61 717.69 1191.69 731.188 1198.03 728.019C1212.17 720.946 1164.71 680.855 1151.13 684.25C1135.84 688.074 1125.24 705.524 1141.36 717.003M1089.28 722.832C1067.71 683.683 1137.43 647.997 1173.02 656.895C1193.39 661.988 1224.64 706.715 1199.45 723.509M1039.37 792.891C974.889 792.891 1002.51 729.15 1015.92 688.94C1017.9 682.991 1017.54 661.526 1020.61 658.458C1027.89 651.177 1060.93 657.521 1072.19 653.768C1100.7 644.266 1173.89 600.311 1190.98 668.648M777.586 565.042C771.04 565.042 771.998 558.62 767.832 555.287C753.309 543.669 738.432 529.979 752.074 509.516C766.099 488.479 793.296 483.747 811.352 467.497C817.924 461.582 824.472 448.084 833.862 445.737C838.023 444.696 854.253 458.997 858.623 461.494C867.154 466.369 883.683 479.948 883.683 490.577M886.386 492.258C883.387 486.261 904.276 472.029 910.397 470.498C918.539 468.463 926.259 473.15 933.658 475C945.556 477.975 953.992 492.296 964.422 497.511C967.992 499.295 982.937 497.286 983.181 498.261C984.428 503.249 978.678 529.587 978.678 538.029C978.678 554.795 992.92 572.545 959.92 572.545M943.412 568.043C941.784 564.786 948.621 566.083 950.916 566.542C958.977 568.155 969.5 576.927 971.175 585.301C975.669 607.769 968.012 627.644 958.419 646.829C957.468 648.731 957.225 655.527 956.168 656.584C954.503 658.248 935.14 656.267 931.407 657.334C911.548 663.008 889.402 679.697 867.627 675.342C859.838 673.784 858.642 649.016 856.786 637.595M856.928 639.15C855.754 639.15 864.468 664.449 852.297 676.055C847.863 680.284 776.762 688.024 775.335 686.597C766.863 678.126 766.579 662.634 759.578 652.832C753.548 644.39 721.435 594.558 723.561 586.051C725.056 580.072 734.431 575.182 738.568 571.044C743.949 565.663 761.714 560.992 770.02 560.992M826.359 591.304C763.865 591.304 768.93 552.688 807.6 514.018C812.24 509.378 812.896 501.219 817.354 496.76C827.088 487.027 851.121 501.262 862.375 501.262C895.554 501.262 906.835 494.64 906.835 532.623M910.397 524.523C912.506 520.305 929.455 519.758 934.408 518.52C935.409 518.27 937.409 517.77 937.409 517.77C937.409 517.77 933.088 531.069 935.158 537.279C939.136 549.212 950.24 565.155 946.414 578.548C936.389 613.633 881.058 633.308 847.368 626.57C835.348 624.166 826.655 604.198 823.357 594.305M782.088 581.549C779.824 581.549 774.202 610.557 779.087 613.814C789.946 621.054 840.642 631.44 854.121 628.07M827.859 590.553C830.814 584.643 885.047 589.859 878.883 559.039C868.982 509.534 792.045 556.037 841.365 556.037M881.884 573.295C899.263 573.295 901.138 555.809 903.644 543.282" fill="none" opacity="1" stroke="#ec7b7f" stroke-linecap="round" stroke-linejoin="round" stroke-width="17.1009" vectornator:layerName="Curve 43"/>
<g opacity="1" vectornator:layerName="Group 2">
<use fill="#b5895b" fill-rule="nonzero" opacity="1" stroke="none" vectornator:layerName="Curve 2" xlink:href="#Fill"/>
<clipPath clip-rule="nonzero" id="ClipPath">
<use xlink:href="#Fill"/>
</clipPath>
<g clip-path="url(#ClipPath)">
<path d="M1114.4 1189.27C1142.8 1242.32 1158.66 1281.22 1144.39 1322.73C1132.01 1335.29 1140.51 1345.46 1118.37 1347.66C1124.7 1455.33 1113.72 1676.6 1087.53 1793.73C1150.99 1904.96 1264.82 1937.32 1352.73 1792.73C1440.64 1648.13 1490.24 1369.22 1439.16 1215.35C1388.09 1061.48 1190.36 1156.15 1114.4 1189.27Z" fill="#a07951" fill-rule="nonzero" filter="url(#Filter)" opacity="1" stroke="none" vectornator:blur="13.3721" vectornator:layerName="Curve 42"/>
<path d="M858.05 1178.73C829.647 1231.78 813.783 1270.68 828.054 1312.19C840.433 1324.75 834.277 1339.68 856.413 1341.88C852.719 1448.97 868.305 1627.12 894.27 1767.3C830.81 1878.53 707.627 1926.79 619.718 1782.19C531.81 1637.6 482.207 1358.68 533.283 1204.81C584.358 1050.94 782.091 1145.61 858.05 1178.73Z" fill="#a07951" fill-rule="nonzero" filter="url(#Filter_2)" opacity="1" stroke="none" vectornator:blur="13.3721" vectornator:layerName="Curve 43"/>
</g>
</g>
<g opacity="1" vectornator:layerName="Group 3">
<use fill="none" opacity="1" stroke="#000000" stroke-linecap="round" stroke-linejoin="round" stroke-width="10" vectornator:layerName="Curve 2" xlink:href="#Fill_2"/>
<clipPath clip-rule="nonzero" id="ClipPath_2">
<use xlink:href="#Fill_2"/>
</clipPath>
<g clip-path="url(#ClipPath_2)"/>
</g>
<path d="M698.803 1336.1C860.991 1347.62 1100.17 1350.76 1311.63 1344.48" fill="none" opacity="1" stroke="#000000" stroke-linecap="round" stroke-linejoin="round" stroke-width="3.82151" vectornator:layerName="Curve 24"/>
<path d="M839.048 956.424C845.334 955.446 876.588 935.964 899.433 947.386C904.534 949.937 963.663 998.918 964.336 1001.61C971.797 1031.45 933.418 1055.89 908.47 1050.9C881.167 1045.44 813.375 960.418 839.048 956.424Z" fill="#96bd60" fill-rule="nonzero" opacity="1" stroke="none" vectornator:layerName="Curve 46"/>
<path d="M844.534 947.624C821.166 915.524 767.015 965.178 741.358 943.717C734.506 937.986 735.594 915.056 730.754 906.343C729.279 903.687 722.47 900.285 725.256 899.072C732.227 896.037 759.55 908.427 766.964 909.909C807.163 917.942 842.046 899.026 853.753 953.109" fill="#96bd60" fill-rule="nonzero" opacity="1" stroke="none" vectornator:layerName="Curve 47"/>
<path d="M1065.63 979.633C987.725 991.58 1024.91 944.545 985.367 895.123C977.857 885.735 913.581 837.846 934.378 830.914C961.496 821.875 1052.55 883.248 1066.57 909.287C1074.63 924.251 1081.1 977.26 1065.63 979.633Z" fill="#96bd60" fill-rule="nonzero" opacity="1" stroke="none" vectornator:layerName="Curve 48"/>
</g>
</svg>
